<?xml version="1.0" encoding="UTF-8"?>
<svg version="1.1" xmlns="http://www.w3.org/2000/svg" width="225" height="225">
<path d="M0 0 C74.25 0 148.5 0 225 0 C225 74.25 225 148.5 225 225 C150.75 225 76.5 225 0 225 C0 150.75 0 76.5 0 0 Z " fill="#FEFDFD" transform="translate(0,0)"/>
<path d="M0 0 C9.20101837 8.43426683 13.66942448 16.23617031 14.875 28.71875 C14.96885018 31.26761346 15.01984639 33.81833827 15.03271484 36.36889648 C15.03779556 37.08712585 15.04287628 37.80535522 15.04811096 38.54534912 C15.05872995 40.08995322 15.06738258 41.63457189 15.07423019 43.17919731 C15.08613907 45.63134849 15.10561909 48.08333285 15.12734985 50.53541565 C15.18857912 57.50215043 15.24297317 64.46886238 15.27636719 71.43579102 C15.29740345 75.71159699 15.33276783 79.98708766 15.37712479 84.26271248 C15.39120265 85.88243955 15.39998849 87.50222227 15.40317917 89.12200737 C15.42648549 99.81650694 15.99652112 108.67773283 21.875 118.03125 C22.37 118.83175781 22.865 119.63226563 23.375 120.45703125 C24.80929806 122.74523966 24.80929806 122.74523966 26.625 124.63671875 C27.875 126.71875 27.875 126.71875 27.99609375 129.5703125 C26.39711514 134.06082386 23.58514371 136.15609173 19.9375 139.09375 C19.25888916 139.65594238 18.58027832 140.21813477 17.88110352 140.79736328 C16.5185456 141.92311603 15.15100713 143.04287035 13.77832031 144.15625 C12.10638295 145.52879991 10.48022106 146.93427533 8.8671875 148.375 C8.02414063 149.1071875 7.18109375 149.839375 6.3125 150.59375 C5.58933594 151.23054687 4.86617188 151.86734375 4.12109375 152.5234375 C1.875 153.71875 1.875 153.71875 -1.12109375 153.6640625 C-9.39561544 151.06011679 -14.83898781 141.82848786 -19.125 134.71875 C-22.44618079 136.17409889 -24.6960233 138.03868659 -27.3125 140.53125 C-35.37073965 147.77711427 -43.73888649 150.88238165 -54.125 153.71875 C-54.7631665 153.89599609 -55.40133301 154.07324219 -56.05883789 154.25585938 C-65.41520371 156.35200372 -77.39845029 155.6516338 -86.125 151.71875 C-87.04796875 151.30496094 -87.9709375 150.89117187 -88.921875 150.46484375 C-98.96758792 145.48271315 -105.19014328 138.22643856 -109.125 127.71875 C-113.36487048 112.91209885 -112.63830514 96.5168295 -105.6171875 82.765625 C-97.84083035 69.52773329 -85.21614029 61.3010621 -70.51171875 57.3984375 C-66.73480156 56.49584054 -62.93782974 55.74836035 -59.11425781 55.07275391 C-57.41173146 54.76977609 -55.71654092 54.42606014 -54.0234375 54.07421875 C-44.50891826 52.2115171 -34.78867842 52.0816154 -25.125 51.71875 C-24.95905236 37.56099644 -24.95905236 37.56099644 -30.515625 25.140625 C-36.6722655 19.73024395 -41.6359244 19.27331884 -49.63671875 19.40625 C-55.90137379 19.9674733 -59.39431191 22.06672955 -63.875 26.34375 C-66.44963343 29.72458177 -67.81482733 33.571031 -69.23046875 37.546875 C-70.125 39.71875 -70.125 39.71875 -72.125 41.71875 C-74.22875977 41.77807617 -74.22875977 41.77807617 -76.81640625 41.51171875 C-77.76193359 41.41955078 -78.70746094 41.32738281 -79.68164062 41.23242188 C-81.16954102 41.0709668 -81.16954102 41.0709668 -82.6875 40.90625 C-83.65236328 40.81021484 -84.61722656 40.71417969 -85.61132812 40.61523438 C-87.52897528 40.42230431 -89.44592174 40.22226833 -91.36206055 40.01489258 C-93.1590784 39.82228123 -94.95744821 39.64176727 -96.75708008 39.4753418 C-104.07244682 38.77130318 -104.07244682 38.77130318 -107.125 35.71875 C-105.97021578 22.72742755 -99.94840256 10.61579582 -90.1875 1.96875 C-66.41246576 -16.10545859 -23.97017006 -19.57563888 0 0 Z " fill="#010101" transform="translate(158.125,12.28125)"/>
<path d="M0 0 C3.45210266 0.65858874 5.97860663 2.02704147 8.97265625 3.84375 C9.94485107 4.42632568 10.9170459 5.00890137 11.91870117 5.60913086 C12.95615479 6.23311768 13.9936084 6.85710449 15.0625 7.5 C54.73493348 30.92186293 97.14715398 42.10423829 143 31 C156.28603561 27.56494795 169.251001 23.44661798 181.57177734 17.35058594 C185.21891104 15.57697377 187.12761373 14.73054733 191 16 C190.33954242 21.77900384 187.49154652 24.77928168 183.07421875 28.39453125 C171.08084862 37.13485613 158.99983879 43.57669458 144.9375 48.375 C143.484646 48.87604248 143.484646 48.87604248 142.00244141 49.38720703 C129.29834266 53.52535688 116.54439191 54.41426446 103.25 54.375 C102.55100586 54.37445618 101.85201172 54.37391235 101.13183594 54.37335205 C89.99877731 54.33365464 79.62574367 53.49250921 69 50 C68.34789551 49.79632813 67.69579102 49.59265625 67.02392578 49.3828125 C44.94231217 42.3565981 10.73100579 25.41760393 -1 4 C-0.66015625 1.78125 -0.66015625 1.78125 0 0 Z " fill="#FF9903" transform="translate(7,166)"/>
<path d="M0 0 C0.69287109 0.00451172 1.38574219 0.00902344 2.09960938 0.01367188 C3.79561068 0.02536844 5.49156703 0.04330076 7.1875 0.0625 C7.8241553 31.89526519 7.8241553 31.89526519 -3.1015625 43.4921875 C-9.59062542 49.43168809 -13.86890626 50.45083709 -22.64453125 50.32421875 C-26.92903314 49.97025867 -28.83138839 49.19266719 -31.8125 46.0625 C-37.25422899 38.61286031 -37.91003006 31.0643571 -36.8125 22.0625 C-35.07628373 14.42086393 -30.21216256 9.35483817 -23.8125 5.0625 C-15.99203399 1.36088408 -8.61120862 -0.10712508 0 0 Z " fill="#FBFBFB" transform="translate(125.8125,86.9375)"/>
<path d="M0 0 C2 2 2 2 2.2578125 5.62890625 C2.14206443 9.97730604 1.21741136 13.8182924 -0.125 17.9375 C-0.34728271 18.63262695 -0.56956543 19.32775391 -0.79858398 20.04394531 C-3.22839546 27.25347939 -6.93421278 34.18920324 -13 39 C-13.99 39 -14.98 39 -16 39 C-15.40618495 35.41663334 -14.3776762 32.14109075 -13.13354492 28.73266602 C-10.71975797 22.0737974 -9.24453138 16.1349814 -10 9 C-12.81824192 7.59087904 -15.17251282 7.88816447 -18.3203125 7.90234375 C-20.20556641 7.90717773 -20.20556641 7.90717773 -22.12890625 7.91210938 C-23.44761719 7.92048828 -24.76632813 7.92886719 -26.125 7.9375 C-27.46484211 7.94251511 -28.804686 7.94707799 -30.14453125 7.95117188 C-33.42973206 7.96298914 -36.71484397 7.97946383 -40 8 C-38.70114919 5.02102281 -38.28860877 4.15608433 -35.3203125 2.55078125 C-33.73863281 1.93783203 -33.73863281 1.93783203 -32.125 1.3125 C-31.07570312 0.89613281 -30.02640625 0.47976562 -28.9453125 0.05078125 C-19.54507088 -3.30288585 -9.51490084 -2.80767566 0 0 Z " fill="#FF9B0C" transform="translate(218,166)"/>
</svg>
