<?xml version="1.0" encoding="UTF-8"?>
<svg version="1.1" xmlns="http://www.w3.org/2000/svg" width="225" height="225">
<path d="M0 0 C74.25 0 148.5 0 225 0 C225 74.25 225 148.5 225 225 C150.75 225 76.5 225 0 225 C0 150.75 0 76.5 0 0 Z " fill="#020202" transform="translate(0,0)"/>
<path d="M0 0 C74.25 0 148.5 0 225 0 C225 74.25 225 148.5 225 225 C150.75 225 76.5 225 0 225 C0 150.75 0 76.5 0 0 Z M62 31 C60.49373047 31.85078125 60.49373047 31.85078125 58.95703125 32.71875 C36.83977753 45.94542923 22.59148503 68.33673015 15.9609375 92.83984375 C10.44143153 118.24504647 14.57971325 144.38843193 27.8125 166.75 C42.01272235 188.72269254 63.40654345 205.4540561 89.03442383 211.91918945 C111.97768113 216.63140446 136.26426293 213.48167914 157 203 C158.06089844 202.46375 159.12179688 201.9275 160.21484375 201.375 C182.99883113 188.92015276 199.06853803 167.96940943 206.39794922 143.22509766 C213.51942903 116.90507861 210.43846824 89.6970279 197.08984375 65.85595703 C183.74842394 43.13609293 161.32851203 26.78220698 136 20 C110.20107797 14.58434346 84.78443171 17.73790741 62 31 Z " fill="#FDFDFD" transform="translate(0,0)"/>
<path d="M0 0 C8.19636974 18.73455941 18 43.36030118 18 64 C15.77236012 64.81690177 13.5430514 65.62861872 11.3125 66.4375 C10.68666016 66.66759766 10.06082031 66.89769531 9.41601562 67.13476562 C-8.35842539 73.55589877 -31.20883387 71.85081252 -48.30859375 64.09375 C-54.50919158 61.14194146 -60.34467382 57.89782482 -66 54 C-64.04683633 40.20578156 -47.91567369 26.79082134 -37.39990234 18.78125 C-11.84713135 0 -11.84713135 0 0 0 Z " fill="#FCFCFC" transform="translate(127,129)"/>
<path d="M0 0 C1.00460531 2.12282669 2.00355602 4.24833021 3 6.375 C3.556875 7.55835937 4.11375 8.74171875 4.6875 9.9609375 C6 13 6 13 6 15 C4.99646484 15.27650391 4.99646484 15.27650391 3.97265625 15.55859375 C-14.51509143 21.14214171 -30.05775032 31.83231974 -44 45 C-44.72703125 45.66257813 -45.4540625 46.32515625 -46.203125 47.0078125 C-53.46299196 53.87596002 -59.1538806 61.93809254 -65 70 C-76.56570434 61.64699131 -81.97066245 45.86139327 -85.3125 32.5 C-85.57015137 31.50468262 -85.57015137 31.50468262 -85.83300781 30.48925781 C-87.2569631 24.33860336 -87.16033792 18.28682994 -87 12 C-85.98502441 11.93006836 -84.97004883 11.86013672 -83.92431641 11.78808594 C-57.80137325 9.96430039 -32.12692711 7.8268972 -6.75390625 0.953125 C-3 0 -3 0 0 0 Z " fill="#FBFBFB" transform="translate(115,101)"/>
<path d="M0 0 C3.71171753 1.23723918 4.23914858 2.42596835 6.37109375 5.64453125 C7.02263428 6.62268799 7.6741748 7.60084473 8.34545898 8.60864258 C9.03583252 9.66591553 9.72620605 10.72318848 10.4375 11.8125 C11.14527588 12.88588623 11.85305176 13.95927246 12.58227539 15.06518555 C29.76895069 41.30685206 29.76895069 41.30685206 32 48 C20.59078902 52.04704088 8.92113565 54.09420279 -3 56 C-3.74266113 56.12149414 -4.48532227 56.24298828 -5.25048828 56.36816406 C-18.44676138 58.45785987 -31.67212893 58.20887562 -45 58 C-43.94385379 51.49929536 -42.4380365 45.89615197 -39.375 40.0625 C-39.02018555 39.37575195 -38.66537109 38.68900391 -38.29980469 37.98144531 C-29.44620156 21.25275399 -16.91808369 8.45904185 0 0 Z " fill="#FCFCFC" transform="translate(75,40)"/>
<path d="M0 0 C3.16975546 2.16776309 6.22989781 4.46128545 9.23291016 6.85351562 C4.22700248 18.68566103 -8.79229711 26.07874072 -19.64208984 31.85351562 C-20.34301758 32.22710205 -21.04394531 32.60068848 -21.76611328 32.9855957 C-26.02681412 35.17312655 -30.1207661 36.68890184 -34.76708984 37.85351562 C-35.17846191 37.1403418 -35.58983398 36.42716797 -36.01367188 35.69238281 C-44.62171182 20.82460103 -53.46820081 6.37209403 -63.62231445 -7.51196289 C-64.76708984 -9.14648438 -64.76708984 -9.14648438 -65.76708984 -11.14648438 C-44.26243549 -18.77224833 -18.50694575 -12.00726958 0 0 Z " fill="#FCFCFC" transform="translate(157.76708984375,45.146484375)"/>
<path d="M0 0 C1.54606548 2.05332076 2.94233354 4.08258444 4.3125 6.25 C4.71549316 6.88534668 5.11848633 7.52069336 5.53369141 8.17529297 C13.72169041 21.39546535 18.26849256 36.42743161 18 52 C14.00507199 51.58673159 10.03731114 51.17531043 6.07617188 50.50585938 C-3.95715123 48.83869088 -13.7318405 48.76733177 -23.875 48.875 C-25.54556748 48.8850617 -27.21614091 48.89418185 -28.88671875 48.90234375 C-32.92462978 48.92407742 -36.96224652 48.95842643 -41 49 C-42.17133058 46.54379149 -43.33721722 44.08525083 -44.5 41.625 C-44.83386719 40.92632812 -45.16773438 40.22765625 -45.51171875 39.5078125 C-48 34.2265625 -48 34.2265625 -48 32 C-47.00742188 31.52691406 -46.01484375 31.05382812 -44.9921875 30.56640625 C-29.60692724 23.12543094 -16.52697713 14.75358716 -4.5 2.4375 C-2 0 -2 0 0 0 Z " fill="#FBFBFB" transform="translate(178,63)"/>
<path d="M0 0 C2.4375 1.1015625 2.4375 1.1015625 4 2 C4.28712799 7.41341305 3.40615706 11.69709799 1.4375 16.6875 C1.16574951 17.38593018 0.89399902 18.08436035 0.61401367 18.80395508 C-5.56376962 34.19820891 -15.8920392 48.86157529 -30 58 C-30.66 58 -31.32 58 -32 58 C-32.14695313 57.195625 -32.29390625 56.39125 -32.4453125 55.5625 C-35.61714157 38.93774073 -39.5061929 22.40705488 -45.17114258 6.4440918 C-46.21628462 3.4875923 -47 1.16337445 -47 -2 C-35.52291619 -7.73854191 -12.19373826 -3.32279368 0 0 Z " fill="#FBFBFB" transform="translate(190,127)"/>
</svg>
