<svg width="430" height="310" viewBox="0 0 430 310" fill="none" xmlns="http://www.w3.org/2000/svg">
<g clip-path="url(#clip0_2_2040)">
<path d="M221.387 260.526L231.793 257.46L228.756 267.896L231.793 278.302L221.387 275.266L210.951 278.302L214.017 267.896L210.951 257.46L221.387 260.526Z" fill="black" stroke="white" stroke-miterlimit="10"/>
</g>
<g clip-path="url(#clip1_2_2040)">
<path d="M109.21 207.977L128.157 218.3L109.21 228.706L98.8457 247.611L88.481 228.706L69.5343 218.3L88.481 207.977L98.8457 188.989L109.21 207.977Z" fill="black" stroke="white" stroke-miterlimit="10"/>
</g>
<path d="M241.925 121.277C283.113 143.996 318.455 168.064 342.299 188.604C354.223 198.877 363.251 208.25 368.699 216.115C371.424 220.048 373.236 223.582 374.078 226.644C374.919 229.703 374.78 232.247 373.67 234.26C372.56 236.273 370.482 237.747 367.445 238.668C364.407 239.589 360.451 239.941 355.671 239.735C346.112 239.322 333.368 236.686 318.318 232.08C288.225 222.869 249.015 205.815 207.826 183.096C166.638 160.377 131.296 136.308 107.453 115.768C95.5281 105.495 86.5001 96.1226 81.0523 88.2575C78.3279 84.3242 76.5151 80.791 75.6735 77.7291C74.8326 74.6697 74.9723 72.1259 76.0825 70.1132C77.1927 68.1005 79.2698 66.6253 82.3061 65.7046C85.3449 64.7831 89.3004 64.4316 94.0807 64.6378C103.639 65.0502 116.383 67.6866 131.433 72.2929C161.526 81.5034 200.737 98.5578 241.925 121.277Z" stroke="black"/>
<path d="M229.747 143.353C270.936 166.072 306.278 190.14 330.121 210.68C342.046 220.953 351.074 230.326 356.521 238.191C359.246 242.124 361.059 245.657 361.9 248.719C362.741 251.779 362.602 254.323 361.492 256.336C360.382 258.348 358.304 259.823 355.268 260.744C352.229 261.665 348.273 262.017 343.493 261.81C333.934 261.398 321.191 258.762 306.14 254.155C276.048 244.945 236.837 227.891 195.649 205.171C154.46 182.452 119.118 158.384 95.2751 137.844C83.3504 127.571 74.3224 118.198 68.8746 110.333C66.1501 106.4 64.3374 102.867 63.4958 99.8048C62.6549 96.7454 62.7946 94.2015 63.9047 92.1889C65.015 90.1762 67.092 88.701 70.1284 87.7803C73.1672 86.8588 77.1226 86.5073 81.903 86.7135C91.4617 87.1259 104.205 89.7622 119.256 94.3686C149.348 103.579 188.559 120.634 229.747 143.353Z" stroke="black"/>
<path d="M217.572 165.428C258.76 188.147 294.102 212.215 317.945 232.756C329.87 243.028 338.898 252.401 344.346 260.266C347.07 264.199 348.883 267.733 349.724 270.795C350.565 273.854 350.426 276.398 349.316 278.411C348.206 280.424 346.128 281.898 343.092 282.819C340.053 283.741 336.098 284.092 331.317 283.886C321.758 283.474 309.015 280.837 293.965 276.231C263.872 267.02 224.661 249.966 183.473 227.247C142.285 204.528 106.943 180.459 83.0993 159.919C71.1746 149.647 62.1466 140.274 56.6988 132.409C53.9743 128.475 52.1616 124.942 51.32 121.88C50.4791 118.821 50.6188 116.277 51.729 114.264C52.8392 112.252 54.9163 110.776 57.9526 109.856C60.9914 108.934 64.9468 108.583 69.7272 108.789C79.2859 109.201 92.0297 111.838 107.08 116.444C137.173 125.654 176.383 142.709 217.572 165.428Z" stroke="black"/>
<ellipse cx="113.119" cy="62.9256" rx="9.71642" ry="9.25373" fill="#B9FF66"/>
<circle cx="287.089" cy="261.418" r="6.01493" fill="#B9FF66"/>
<circle cx="83.0444" cy="38.8657" r="13.8806" fill="black"/>
<path d="M218.179 230.899C214.384 232.196 210.048 229.626 208.539 225.17L185.064 156.391L198.781 151.698L222.28 220.572C223.788 224.981 221.95 229.602 218.179 230.899Z" fill="black"/>
<path d="M216.129 231.748C215.021 231.748 213.89 231.488 212.806 230.946C210.614 229.861 208.87 227.834 208.021 225.334L184.546 156.555C184.452 156.296 184.594 155.989 184.876 155.895L198.594 151.203C198.735 151.156 198.876 151.156 198.994 151.227C199.112 151.297 199.206 151.392 199.254 151.533L222.752 220.406C224.331 225.075 222.351 230.003 218.321 231.394C217.638 231.63 216.883 231.748 216.129 231.748ZM185.725 156.72L209.035 225.004C209.789 227.244 211.345 229.083 213.277 230.026C214.833 230.781 216.506 230.922 218.015 230.404C221.503 229.201 223.2 224.863 221.786 220.736L198.452 152.358L185.725 156.72Z" fill="black"/>
<path d="M196.353 92.3273L151.973 123.993L134.697 141.937L127.909 153.938L127.885 154.033C126.542 156.107 127.319 160.894 129.841 165.775C132.316 170.585 135.804 173.933 138.255 174.122L138.185 174.169L151.219 175.583L175.613 171.693L227.394 153.16L291.761 164.195L292.209 164.219C276.041 161.2 254.216 139.579 238.354 108.997C222.515 78.4395 217.471 48.2352 224.424 33.3335H224.401L196.707 91.5728L196.353 92.3273Z" fill="#B9FF66"/>
<path d="M302.908 162.887C318.816 154.623 315.74 117.155 296.037 79.2018C276.335 41.2481 247.467 17.1804 231.56 25.445C215.652 33.7096 218.728 71.1769 238.43 109.131C258.133 147.084 287 171.152 302.908 162.887Z" fill="white"/>
<path d="M295.912 165.044C288.983 165.044 280.639 161.177 271.659 153.656C259.427 143.423 247.43 127.649 237.885 109.21C223.437 81.2929 217.474 52.6685 222.706 36.2813C224.45 30.8111 227.373 26.9913 231.356 24.94C239.275 20.8844 250.424 24.3269 262.774 34.6544C275.006 44.8875 287.003 60.6616 296.548 79.1001C311.02 107.017 316.983 135.642 311.727 152.029C309.983 157.499 307.06 161.319 303.077 163.37C300.932 164.502 298.528 165.044 295.912 165.044ZM238.568 24.3269C236.141 24.3269 233.878 24.8221 231.851 25.8831C228.104 27.793 225.369 31.4241 223.72 36.635C218.558 52.7864 224.497 81.1043 238.827 108.786C258.343 146.441 286.956 170.538 302.629 162.498C306.377 160.588 309.111 156.957 310.761 151.746C315.922 135.595 309.983 107.277 295.653 79.5953C278.659 46.821 254.807 24.3269 238.568 24.3269Z" fill="black"/>
<path d="M295.91 165.044C288.981 165.044 280.637 161.177 271.657 153.655C259.425 143.422 247.428 127.648 237.883 109.209C223.435 81.2924 217.472 52.6679 222.704 36.2807C224.448 30.8105 227.371 26.9907 231.354 24.9394C236.657 22.2043 243.586 22.8881 251.388 26.8964C258.859 30.7397 266.944 37.554 274.816 46.5846C275.004 46.7968 274.981 47.1269 274.769 47.3155C274.556 47.5042 274.226 47.4806 274.038 47.2684C258.058 28.9242 241.89 20.7188 231.849 25.8825C228.102 27.7924 225.368 31.4235 223.718 36.6344C218.556 52.7858 224.495 81.1037 238.826 108.785C255.795 141.536 279.671 164.053 295.886 164.053C298.314 164.053 300.577 163.558 302.604 162.497C306.351 160.587 309.085 156.956 310.735 151.745C315.897 135.594 309.957 107.276 295.627 79.5947C291.361 71.3422 286.553 63.5848 281.391 56.5348C281.226 56.299 281.274 55.9689 281.509 55.8038C281.745 55.6388 282.075 55.686 282.24 55.9217C287.449 63.0189 292.257 70.8234 296.57 79.1231C311.018 107.017 316.981 135.641 311.725 152.028C309.981 157.499 307.058 161.318 303.075 163.37C300.93 164.501 298.526 165.044 295.91 165.044Z" fill="black"/>
<path d="M266.813 114.573C270.499 112.659 269.79 103.986 265.23 95.2028C260.671 86.4194 253.987 80.8511 250.302 82.7657C246.616 84.6803 247.325 93.3528 251.885 102.136C256.444 110.92 263.128 116.488 266.813 114.573Z" fill="#B9FF66"/>
<path d="M265.199 115.482C261.145 115.482 255.489 110.247 251.411 102.348C248.017 95.7935 246.627 89.05 247.876 85.1596C248.324 83.792 249.054 82.8253 250.068 82.3066C254.075 80.2552 260.933 85.8434 265.694 95.0154C269.088 101.57 270.479 108.314 269.23 112.204C268.782 113.572 268.051 114.539 267.038 115.057C266.472 115.34 265.859 115.482 265.199 115.482ZM251.906 82.896C251.411 82.896 250.94 82.9903 250.539 83.2025C249.762 83.6034 249.196 84.3579 248.842 85.4661C247.687 89.0972 249.031 95.5578 252.307 101.877C256.644 110.247 263.172 115.883 266.543 114.138C267.321 113.737 267.886 112.982 268.24 111.874C269.395 108.219 268.028 101.783 264.775 95.4634C260.957 88.1305 255.489 82.896 251.906 82.896Z" fill="#B9FF66"/>
<path d="M292.328 156.249C286.247 156.249 278.941 152.853 271.069 146.275C260.368 137.315 249.857 123.498 241.513 107.37C228.857 82.9425 223.648 57.8784 228.22 43.519C229.752 38.709 232.321 35.3608 235.833 33.5453C243.894 29.419 255.749 34.1819 268.382 46.6078C268.594 46.82 268.594 47.1266 268.382 47.3388C268.17 47.551 267.863 47.551 267.651 47.3388C255.348 35.2429 243.917 30.5272 236.304 34.4648C233.052 36.1389 230.671 39.2749 229.21 43.8255C224.708 57.9256 229.894 82.6832 242.432 106.898C257.257 135.546 278.116 155.211 292.305 155.211C294.426 155.211 296.382 154.763 298.173 153.867C301.426 152.193 303.806 149.057 305.268 144.506C309.769 130.406 304.584 105.649 292.045 81.4335C288.251 74.1241 284.008 67.2627 279.436 61.0615C279.271 60.8258 279.318 60.4957 279.554 60.3306C279.789 60.1656 280.119 60.2127 280.284 60.4485C284.904 66.7204 289.17 73.6054 292.988 80.9619C305.645 105.389 310.854 130.454 306.281 144.813C304.749 149.623 302.18 152.971 298.668 154.787C296.736 155.753 294.615 156.249 292.328 156.249Z" fill="black"/>
<path d="M151.244 176.079C151.22 176.079 151.196 176.079 151.196 176.079L138.163 174.664C138.092 174.664 138.021 174.641 137.951 174.594C135.264 174.169 131.87 170.774 129.395 166.011C126.755 160.989 125.977 156.084 127.415 153.774L127.439 153.703L134.227 141.678C134.25 141.631 134.274 141.607 134.297 141.583L151.574 123.64C151.597 123.617 151.621 123.593 151.644 123.569L195.907 91.974L223.907 33.0981C223.978 32.9802 224.072 32.8859 224.214 32.8388C224.355 32.7916 224.497 32.7916 224.614 32.8624C224.874 32.9802 224.992 33.2868 224.874 33.5461C217.779 48.7544 223.389 78.9822 238.803 108.738C254.241 138.542 275.76 160.611 292.329 163.653C292.588 163.7 292.777 163.936 292.753 164.219C292.729 164.478 292.494 164.667 292.234 164.691L291.787 164.667C291.763 164.667 291.739 164.667 291.716 164.667L227.466 153.656L175.803 172.141C175.779 172.141 175.732 172.165 175.708 172.165L151.314 176.055C151.291 176.079 151.267 176.079 151.244 176.079ZM138.54 173.674L151.244 175.042L175.52 171.151L227.278 152.642C227.372 152.618 227.443 152.595 227.537 152.618L285.376 162.521C269.749 155.66 251.483 135.406 237.931 109.234C224.473 83.2499 218.463 56.8654 221.763 40.1953L196.826 92.5399C196.779 92.6106 196.732 92.6814 196.661 92.7285L152.328 124.395L135.122 142.244L128.334 154.269C128.334 154.292 128.311 154.316 128.311 154.316C127.085 156.226 127.91 160.942 130.291 165.539C132.624 170.043 135.994 173.438 138.304 173.603C138.398 173.603 138.469 173.627 138.54 173.674Z" fill="black"/>
<path d="M196.424 92.139L224.4 33.3103H224.424C217.471 48.212 222.538 78.4162 238.353 108.974C254.215 139.579 276.04 161.201 292.256 164.172L291.808 164.148L227.535 153.137L226.05 152.878C218.579 151.557 208.609 141.843 201.468 127.979C194.138 113.761 192.841 99.5899 196.094 92.8464L196.424 92.139Z" fill="white"/>
<path d="M292.257 164.69C292.234 164.69 292.257 164.69 292.257 164.69L291.786 164.667C291.762 164.667 291.739 164.667 291.715 164.667L227.442 153.656L225.957 153.396C218.061 152.005 208.044 141.89 200.997 128.238C193.007 112.723 192.607 98.906 195.624 92.6341L195.977 91.9267L223.954 33.1216C224.024 33.0037 224.119 32.9094 224.26 32.8622C224.401 32.8151 224.543 32.8151 224.661 32.8858C224.92 33.0037 225.038 33.3102 224.92 33.5696C217.826 48.7778 223.435 79.0056 238.849 108.762C254.287 138.565 275.806 160.635 292.375 163.677C292.634 163.724 292.823 163.96 292.799 164.242C292.729 164.478 292.516 164.69 292.257 164.69ZM221.715 40.1952L196.896 92.3747L196.543 93.0821C193.549 99.3068 194.422 113.218 201.917 127.743C208.822 141.135 218.556 151.038 226.146 152.359L227.63 152.618L285.351 162.521C269.725 155.66 251.459 135.406 237.907 109.233C224.449 83.2498 218.439 56.8653 221.715 40.1952Z" fill="black"/>
<path d="M150.536 176.008C150.512 176.008 150.489 176.008 150.489 176.008L138.138 174.688C138.068 174.688 137.997 174.664 137.926 174.617C135.239 174.193 131.845 170.797 129.371 166.034C126.754 160.989 125.977 156.084 127.414 153.774L127.438 153.703L134.226 141.678C134.367 141.418 134.674 141.348 134.933 141.489C135.192 141.631 135.263 141.937 135.121 142.196L128.334 154.269C128.334 154.292 128.31 154.316 128.31 154.316C127.084 156.226 127.909 160.941 130.29 165.539C132.623 170.043 135.994 173.438 138.303 173.603C138.374 173.603 138.468 173.627 138.515 173.674L150.583 174.971C150.866 174.994 151.078 175.254 151.031 175.537C151.007 175.796 150.795 176.008 150.536 176.008Z" fill="black"/>
<path d="M151.36 175.49C147.353 175.207 141.744 169.524 137.666 161.672C133.353 153.349 132.34 144.743 134.979 141.678L127.932 153.939L127.885 154.033C126.542 156.108 127.319 160.894 129.841 165.775C132.316 170.585 135.804 173.933 138.255 174.122L138.185 174.169L151.36 175.49Z" fill="white"/>
<path d="M151.361 176.008C151.337 176.008 151.337 176.008 151.313 176.008C151.219 176.008 151.101 175.985 151.007 175.985L138.138 174.688C138.068 174.688 137.997 174.664 137.926 174.617C135.239 174.193 131.845 170.797 129.371 166.034C126.754 160.989 125.977 156.084 127.414 153.774L127.438 153.703L133.637 142.904C133.872 142.291 134.179 141.748 134.556 141.3C134.721 141.088 135.027 141.065 135.239 141.206C135.451 141.371 135.522 141.654 135.381 141.89L134.509 143.375C133.118 147.124 134.485 154.481 138.068 161.366C141.957 168.887 147.26 174.381 151.054 174.876L151.337 174.9C151.62 174.924 151.832 175.183 151.808 175.466C151.832 175.796 151.62 176.008 151.361 176.008ZM138.515 173.674L147.519 174.593C144.054 172.377 140.236 167.803 137.196 161.908C134.249 156.226 132.788 150.331 133.024 146.087L128.334 154.269C128.334 154.292 128.31 154.316 128.31 154.316C127.084 156.226 127.909 160.941 130.29 165.539C132.623 170.043 135.994 173.438 138.303 173.603C138.374 173.603 138.468 173.627 138.515 173.674Z" fill="black"/>
<path d="M174.742 171.787L175.779 171.575C170.17 172.754 161.308 164.266 155.062 152.217C148.675 139.909 147.473 127.625 151.998 123.993L151.409 124.583L135.028 141.607C132.341 144.625 133.331 153.278 137.668 161.649C141.84 169.712 147.756 175.466 151.786 175.442L174.742 171.787Z" fill="black"/>
<path d="M151.762 175.984C147.473 175.984 141.51 170.208 137.196 161.908C132.813 153.42 131.705 144.554 134.627 141.277L150.702 124.583C150.984 124.206 151.314 123.875 151.668 123.593C151.88 123.428 152.186 123.451 152.375 123.64C152.564 123.852 152.564 124.158 152.375 124.347L151.456 125.314C148.18 129.699 149.806 140.923 155.533 151.981C161.708 163.912 170.335 172.094 175.614 171.104L175.685 171.08C175.968 171.033 176.227 171.198 176.298 171.481C176.345 171.764 176.18 172.023 175.897 172.094C175.873 172.094 175.85 172.094 175.826 172.117L174.86 172.306H174.836L151.88 175.961C151.833 175.961 151.786 175.984 151.762 175.984ZM149.335 127.507L135.405 141.984C132.813 144.908 133.991 153.443 138.139 161.436C142.193 169.264 147.92 174.923 151.762 174.947L172.032 171.717C166.564 169.783 159.823 162.497 154.614 152.476C149.665 142.927 147.755 133.213 149.335 127.507Z" fill="black"/>
<path d="M250.304 82.7542C246.604 84.6404 247.146 93.3881 251.86 102.112C259.755 116.707 266.048 114.986 266.779 114.727C266.803 114.727 266.803 114.75 266.779 114.75L253.227 125.667C249.244 120.079 245.449 113.854 241.961 107.134C238.637 100.698 235.833 94.2841 233.617 88.0593L250.304 82.7542Z" fill="black"/>
<path d="M253.227 126.186C253.203 126.186 253.18 126.186 253.156 126.186C253.015 126.162 252.897 126.092 252.803 125.974C248.725 120.244 244.931 113.972 241.513 107.394C238.237 101.075 235.409 94.6377 233.146 88.2715C233.099 88.13 233.099 87.9886 233.17 87.8707C233.24 87.7528 233.335 87.6585 233.476 87.6113L250.163 82.3061C250.422 82.2354 250.705 82.3533 250.799 82.6126C250.894 82.872 250.799 83.1549 250.564 83.2728C249.762 83.6737 249.173 84.4753 248.82 85.6543C247.665 89.3561 249.079 95.911 252.355 101.924C260.062 116.165 266.002 114.538 266.638 114.302C266.874 114.208 267.156 114.326 267.274 114.538C267.392 114.75 267.345 115.057 267.156 115.222L253.557 126.068C253.463 126.139 253.345 126.186 253.227 126.186ZM234.301 88.3894C236.54 94.5434 239.274 100.768 242.432 106.899C245.732 113.265 249.409 119.325 253.345 124.913L265.106 115.434C262.419 115.316 257.352 113.312 251.412 102.348C247.971 96.0053 246.557 89.309 247.806 85.277C247.971 84.7583 248.16 84.3103 248.395 83.8859L234.301 88.3894Z" fill="black"/>
<path d="M320.031 49.1168C330.806 43.4563 334.973 30.1668 329.339 19.4337C323.705 8.70072 310.403 4.58861 299.629 10.2491C288.854 15.9096 284.686 29.1991 290.32 39.9321C295.954 50.6652 309.256 54.7773 320.031 49.1168Z" fill="black"/>
<path d="M299.793 24.8211C300.83 23.4063 302.362 22.5339 304.107 22.3453C305.426 22.2038 306.652 22.4868 307.807 23.1941C308.396 23.5478 308.915 23.9958 309.41 24.5381C309.763 23.9015 310.187 23.3356 310.682 22.864C311.649 21.9209 312.804 21.3786 314.1 21.2371C315.844 21.0485 317.541 21.5672 318.861 22.7226C320.157 23.8543 320.982 25.5048 321.194 27.3676C321.406 29.2774 320.888 31.1166 319.568 33.1443C318.389 34.9599 316.598 36.8462 314.524 39.0626C313.817 39.8171 313.016 40.6659 312.191 41.5619C311.979 41.7977 311.672 41.9627 311.342 41.9863C311.012 42.0335 310.706 41.9392 310.423 41.7505C309.41 41.0432 308.443 40.383 307.595 39.8171C305.096 38.1194 302.928 36.6575 301.373 35.1485C299.628 33.4744 298.733 31.7768 298.521 29.8669C298.332 28.0042 298.78 26.2122 299.793 24.8211Z" fill="white"/>
<path d="M381.156 50.3181C389.044 42.4269 389.044 29.6327 381.156 21.7415C373.268 13.8503 360.479 13.8503 352.591 21.7415C344.703 29.6327 344.703 42.4269 352.591 50.3181C360.479 58.2093 373.268 58.2093 381.156 50.3181Z" fill="#B9FF66"/>
<path d="M366.87 56.7469C355.462 56.7469 346.152 47.4569 346.152 36.0213C346.152 24.6092 355.439 15.2957 366.87 15.2957C378.301 15.2957 387.587 24.5856 387.587 36.0213C387.587 47.4333 378.301 56.7469 366.87 56.7469ZM366.87 16.3331C356.028 16.3331 347.189 25.1515 347.189 36.0213C347.189 46.8675 356.004 55.7095 366.87 55.7095C377.711 55.7095 386.55 46.891 386.55 36.0213C386.55 25.1751 377.735 16.3331 366.87 16.3331Z" fill="#B9FF66"/>
<path d="M372.339 38.0256C371.208 38.0256 370.218 38.5679 369.558 39.4167L362.746 36.7524C362.746 36.658 362.77 36.5873 362.77 36.493C362.77 36.3279 362.746 36.1629 362.723 35.9978L369.699 32.7676C370.336 33.4985 371.278 33.9701 372.339 33.9937C374.272 33.9937 375.874 32.4139 375.874 30.4569C375.874 28.4998 374.295 26.8965 372.339 26.8965C370.406 26.8965 368.804 28.4763 368.804 30.4333C368.804 30.5983 368.827 30.7634 368.851 30.9284L361.874 34.1587C361.238 33.4278 360.295 32.9562 359.235 32.9326C357.302 32.9326 355.699 34.5124 355.699 36.4694C355.699 38.4264 357.278 40.0298 359.235 40.0298C360.366 40.0298 361.356 39.4875 362.016 38.6386L368.827 41.303C368.827 41.3974 368.804 41.4681 368.804 41.5624C368.804 43.5194 370.383 45.1228 372.339 45.1228C374.272 45.1228 375.874 43.543 375.874 41.586C375.851 39.629 374.272 38.0492 372.339 38.0256Z" fill="black"/>
<path d="M372.606 114.365C381.855 107.942 384.179 95.277 377.796 86.077C371.413 76.877 358.74 74.6256 349.49 81.0484C340.241 87.4713 337.917 100.136 344.3 109.336C350.683 118.536 363.356 120.787 372.606 114.365Z" fill="black"/>
<path d="M355.96 107.37L352.99 91.2661C352.848 90.4408 353.603 89.757 354.404 89.9692L371.963 94.9443C372.859 95.2037 373.071 96.359 372.34 96.9249L357.727 108.054C357.091 108.573 356.125 108.219 355.96 107.37Z" fill="white"/>
<path d="M360.852 180.33C372.275 174.767 377.054 161.051 371.528 149.694C366.001 138.337 352.261 133.64 340.839 139.203C329.416 144.766 324.636 158.482 330.163 169.839C335.69 181.196 349.43 185.893 360.852 180.33Z" fill="#B9FF66"/>
<path d="M350.73 183.199C348.279 183.199 345.78 182.821 343.353 181.996C337.413 180.015 332.605 175.866 329.824 170.254C327.043 164.666 326.619 158.323 328.622 152.381C332.77 140.144 346.11 133.471 358.39 137.55C364.329 139.531 369.137 143.681 371.918 149.292C374.7 154.881 375.124 161.223 373.121 167.165C369.774 176.974 360.558 183.199 350.73 183.199ZM350.965 137.409C341.561 137.409 332.747 143.351 329.565 152.735C327.656 158.417 328.056 164.477 330.72 169.806C333.383 175.158 337.979 179.143 343.659 181.029C355.396 184.92 368.147 178.554 372.107 166.859C374.016 161.176 373.615 155.116 370.952 149.788C368.289 144.435 363.693 140.45 358.013 138.564C355.679 137.763 353.299 137.409 350.965 137.409Z" fill="black"/>
<path d="M362.561 156.06C362.325 161.79 352.638 175.182 350.328 178.318C350.093 178.648 349.598 178.625 349.386 178.271C347.924 175.913 343.093 167.991 340.571 161.578C339.557 159.031 338.921 156.72 338.992 155.093C339.251 148.586 344.743 143.516 351.248 143.776C357.753 144.082 362.82 149.552 362.561 156.06Z" fill="black"/>
<path d="M354.588 159.41C356.696 157.302 356.696 153.883 354.588 151.774C352.48 149.666 349.063 149.666 346.955 151.774C344.847 153.883 344.847 157.302 346.955 159.41C349.063 161.519 352.48 161.519 354.588 159.41Z" fill="#B9FF66"/>
<defs>
<clipPath id="clip0_2_2040">
<rect width="21.2836" height="21.2836" fill="white" transform="translate(210.746 257.254)"/>
</clipPath>
<clipPath id="clip1_2_2040">
<rect width="42.3321" height="42.3321" fill="white" transform="translate(98.8457 188.408) rotate(45)"/>
</clipPath>
</defs>
</svg>
