<?xml version="1.0" encoding="UTF-8"?>
<svg version="1.1" xmlns="http://www.w3.org/2000/svg" width="225" height="225">
<path d="M0 0 C74.25 0 148.5 0 225 0 C225 74.25 225 148.5 225 225 C150.75 225 76.5 225 0 225 C0 150.75 0 76.5 0 0 Z " fill="#FFFEFE" transform="translate(0,0)"/>
<path d="M0 0 C4.51531449 3.27360301 8.03753613 6.77861369 10.5 11.8125 C10.39088461 13.79567228 10.21906276 15.7759458 10 17.75 C10.20506342 21.3919263 10.58564268 23.81236912 13.09277344 26.5546875 C17.6961015 30.480729 22.77142438 33.75044835 27.83496094 37.04638672 C32.00743127 39.81147012 35.99354466 42.81436667 40 45.8125 C41.56940715 46.96997856 43.13972481 48.12622356 44.7109375 49.28125 C48.01197727 51.71316558 51.30811712 54.15156058 54.6015625 56.59375 C55.44267578 57.21636719 56.28378906 57.83898437 57.15039062 58.48046875 C58.74151509 59.6584283 60.3314589 60.83798517 61.91992188 62.01953125 C63.37492141 63.09569154 64.83565775 64.16414605 66.30249023 65.22412109 C67.83842272 66.33430626 69.36040301 67.4639366 70.87133789 68.60791016 C75.18124877 71.97775897 75.18124877 71.97775897 80.35546875 72.5234375 C81.12503906 72.08257812 81.89460938 71.64171875 82.6875 71.1875 C86.58380531 69.05519361 89.06220976 68.70668426 93.5 68.8125 C93.53545108 64.76928187 93.49340301 60.73040591 93.4375 56.6875 C93.45393555 54.97433594 93.45393555 54.97433594 93.47070312 53.2265625 C93.50138413 47.11625264 93.50138413 47.11625264 90.94750977 41.78759766 C89.1190311 40.20294529 89.1190311 40.20294529 87.1875 39.00195312 C84.20436349 36.89925621 83.49510235 34.20755509 82.5 30.8125 C81.79823768 24.49663915 82.74976882 20.00512778 86.5 14.8125 C89.76510479 11.04198587 92.72980345 9.09348358 97.69921875 8.3046875 C102.69240754 8.13388287 106.43897333 8.31988047 111 10.4375 C116.09431676 15.27710092 119.59447898 19.19055844 119.8125 26.5 C119.7455297 31.59718359 118.76785642 35.81068653 115.5 39.8125 C114.4790625 40.28429688 113.458125 40.75609375 112.40625 41.2421875 C108.92550941 44.32058442 109.01079393 45.18738513 108.6953125 49.671875 C108.64221699 51.96825584 108.6198899 54.26551111 108.625 56.5625 C108.604375 57.73683594 108.58375 58.91117188 108.5625 60.12109375 C108.51538061 63.01893612 108.49556082 65.9143526 108.5 68.8125 C109.67820313 68.915625 110.85640625 69.01875 112.0703125 69.125 C123.03980342 70.5148871 133.28934867 77.73760245 140.5 85.8125 C143.20044042 89.31943033 145.42997948 92.90307133 147.5 96.8125 C148.15162109 98.00359375 148.15162109 98.00359375 148.81640625 99.21875 C154.07965035 110.80889031 153.16517066 127.23291083 148.81640625 138.9609375 C142.41045821 152.83732347 132.74430699 162.15827127 118.5 167.8125 C106.44747752 171.94479342 94.53952656 172.15878495 82.5 167.8125 C79.53907571 166.29233197 76.69709379 164.68568362 73.875 162.921875 C71.64683509 161.63011628 71.64683509 161.63011628 69.60839844 162.0222168 C65.18104448 163.68170554 62.06010395 167.61155589 58.75 170.875 C57.95722656 171.61427734 57.16445312 172.35355469 56.34765625 173.11523438 C52.21723876 176.96967491 52.21723876 176.96967491 50.04785156 182.00415039 C50.09033832 183.94565946 50.28866755 185.88205933 50.5 187.8125 C49.10149209 192.43203943 46.82400771 196.44126997 42.5 198.8125 C36.72206218 200.73847927 30.64772001 200.74968691 25.0625 198.3125 C20.80911644 194.16285751 18.34515468 189.69319137 18 183.6875 C18.72721174 178.05160905 20.92243428 175.20226028 25.125 171.5 C28.7956932 168.89187588 30.12086867 168.86403029 34.51953125 169.3125 C39.57159376 169.35869029 41.82200802 168.30535342 45.51171875 164.875 C47.09940715 163.2148445 48.65777039 161.52620886 50.1875 159.8125 C51.40083008 158.52472656 51.40083008 158.52472656 52.63867188 157.2109375 C54.61977238 155.10088963 56.57063635 152.96976635 58.5 150.8125 C57.32428357 147.82937538 56.10386603 144.99786215 54.5625 142.1875 C48.65721397 130.26634206 47.18289089 116.17448398 51.125 103.375 C53.58664696 97.02883921 56.6386525 90.39566094 61.75 85.78125 C62.61625 84.80671875 62.61625 84.80671875 63.5 83.8125 C63.28453839 81.22436473 62.83651661 80.121284 60.91210938 78.35546875 C60.22955078 77.90816406 59.54699219 77.46085937 58.84375 77 C58.07748291 76.48832275 57.31121582 75.97664551 56.52172852 75.44946289 C55.68955811 74.90926514 54.8573877 74.36906738 54 73.8125 C52.24791604 72.64570448 50.4966287 71.47771196 48.74609375 70.30859375 C47.41940674 69.42856689 47.41940674 69.42856689 46.06591797 68.53076172 C42.35161016 66.0434831 38.704242 63.46688617 35.0625 60.875 C33.68514834 59.8980814 32.30753915 58.92152579 30.9296875 57.9453125 C30.22424805 57.44547852 29.51880859 56.94564453 28.79199219 56.43066406 C23.57521354 52.74757833 18.33543463 49.09708856 13.09790039 45.44360352 C12.29602295 44.88342529 11.49414551 44.32324707 10.66796875 43.74609375 C9.95922607 43.25165771 9.2504834 42.75722168 8.52026367 42.24780273 C7.10664868 41.24349548 5.72321523 40.19595762 4.36499023 39.11791992 C2.60265638 37.58601955 2.60265638 37.58601955 0.4921875 37.9921875 C-0.55582031 38.33636719 -0.55582031 38.33636719 -1.625 38.6875 C-7.74008015 40.27140601 -13.15781049 40.32643851 -18.9921875 37.68359375 C-23.4756915 34.98614134 -26.87731582 32.10870813 -28.90625 27.21484375 C-30.54211372 20.59605303 -30.90167077 13.40091412 -27.5 7.3125 C-20.56233101 -1.78355489 -10.76293937 -3.65171157 0 0 Z " fill="#FF7A5A" transform="translate(51.5,13.1875)"/>
<path d="M0 0 C5.93832406 3.96246217 10.89593689 9.07695365 13 16 C13.9709814 24.47245719 14.28684322 32.86363407 9 40 C7.948125 41.5778125 7.948125 41.5778125 6.875 43.1875 C1.75347898 48.80117919 -4.43037998 51.19448469 -11.95996094 51.59423828 C-20.67280587 51.72171372 -26.49477921 50.07151584 -32.98828125 44.203125 C-38.83886399 38.14662112 -41.04242555 31.89270147 -41.5 23.5625 C-41.25121636 15.82857389 -37.9012603 9.76857189 -32.75 4.125 C-23.57704066 -4.23741767 -11.07872963 -5.71215234 0 0 Z " fill="#FFFDFD" transform="translate(166,108)"/>
</svg>
