<svg version="1.1" id="Layer_1" xmlns="http://www.w3.org/2000/svg" xmlns:xlink="http://www.w3.org/1999/xlink" x="0px" y="0px"
	 width="100%" viewBox="0 0 225 225" enable-background="new 0 0 225 225" xml:space="preserve">
<path fill="#FEFEFE" opacity="1.000000" stroke="none" 
	d="
M132.000000,226.000000 
	C88.000000,226.000000 44.500004,226.000000 1.000006,226.000000 
	C1.000004,151.000000 1.000004,76.000015 1.000002,1.000016 
	C75.999992,1.000011 150.999985,1.000011 225.999969,1.000005 
	C225.999985,75.999985 225.999985,150.999969 226.000000,225.999969 
	C194.833328,226.000000 163.666672,226.000000 132.000000,226.000000 
M73.542274,88.203545 
	C73.291252,88.384102 73.115707,88.620682 72.533203,88.996735 
	C72.533203,88.996735 72.045204,89.036331 71.490143,88.642815 
	C69.325417,86.093346 67.160698,83.543869 64.882721,80.297928 
	C62.378651,78.855583 59.960865,77.216049 57.329498,76.064598 
	C56.223450,75.580589 54.662331,76.090935 53.314335,76.216408 
	C51.422390,76.392494 49.523293,76.553795 47.651760,76.867577 
	C46.145325,77.120163 44.675236,77.589561 43.189022,77.962753 
	C44.009083,79.320633 44.536404,81.450294 45.703594,81.893021 
	C49.337872,83.271515 53.214573,84.010910 57.879913,84.999336 
	C58.703266,84.999527 59.609043,84.777267 60.333069,85.045532 
	C61.912956,85.630913 63.400387,86.465813 64.925583,87.198761 
	C63.530781,88.659325 62.300308,90.364281 60.663471,91.464874 
	C59.970612,91.930733 58.423592,91.126259 57.000153,90.847313 
	C57.000153,92.050217 57.000153,93.025108 56.195072,93.999931 
	C53.090809,93.936142 49.872791,94.076920 49.675732,89.989799 
	C50.246651,89.514702 50.817570,89.039604 51.388493,88.564507 
	C50.592133,88.709671 49.795776,88.854836 48.309181,88.935898 
	C47.206783,88.624031 46.104382,88.312172 44.881611,87.282127 
	C39.167660,83.245590 32.508999,82.535805 26.117935,80.883690 
	C25.946272,81.416946 25.774609,81.950203 25.602947,82.483459 
	C29.401964,83.988976 33.200981,85.494484 36.711430,87.664955 
	C36.968754,89.434052 36.988541,91.284012 37.554920,92.947906 
	C38.051178,94.405792 39.161156,95.654778 39.212891,96.996613 
	C34.093029,94.665337 28.861137,93.317604 22.032585,95.585274 
	C29.414246,98.630714 38.413067,95.423721 43.286022,103.611557 
	C39.893879,105.390945 36.961292,106.929260 33.855995,108.558174 
	C34.433807,109.981682 34.941784,111.233139 35.515648,112.646919 
	C32.495026,112.960182 28.535397,112.287872 27.551430,113.695549 
	C25.422623,116.741051 24.162228,120.797256 23.847893,124.549095 
	C23.672155,126.646675 26.101017,128.962479 26.954336,130.469955 
	C26.353477,132.231003 25.417822,133.636414 25.647503,134.814636 
	C25.779749,135.493057 27.768490,135.903656 28.974272,136.252792 
	C30.231714,136.616913 31.552475,136.762360 33.339344,137.522522 
	C35.016972,137.749786 36.694599,137.977051 38.737968,138.237610 
	C38.737968,138.237610 39.019413,138.001694 39.766029,138.029312 
	C41.757610,138.786362 43.749187,139.543427 46.221050,140.815872 
	C49.798283,141.336227 50.869694,143.911667 51.269192,147.721756 
	C51.455299,148.149261 51.641407,148.576767 51.716312,149.748840 
	C52.443470,153.196976 53.170628,156.645111 53.813313,160.564911 
	C53.813313,160.564911 54.024197,160.995193 53.943291,161.812164 
	C54.539898,164.577454 55.136505,167.342728 55.681404,170.590042 
	C55.681404,170.590042 55.912090,171.016449 55.834759,171.869812 
	C57.323017,185.331390 59.447479,186.856430 72.628326,183.875015 
	C73.422897,183.695282 74.171036,183.310257 75.815414,183.095444 
	C79.187210,182.409088 82.558998,181.722748 86.481262,180.664139 
	C89.236206,176.303741 89.278915,170.460144 86.451057,166.470795 
	C84.768295,170.250137 89.359947,175.387466 83.136032,177.693634 
	C82.741341,175.215302 81.510025,172.497726 82.135300,170.311050 
	C83.255165,166.394623 81.947914,164.109390 78.568108,161.423401 
	C76.520226,156.984406 79.493195,153.592010 81.426407,149.340042 
	C81.639778,147.110519 81.853142,144.880997 82.706764,142.229477 
	C84.025688,142.193192 85.353386,142.040298 86.662155,142.138870 
	C98.491531,143.029816 110.317589,143.964783 122.802696,145.110291 
	C124.759087,146.320221 126.660751,147.631439 128.681107,148.722961 
	C138.755569,154.165817 149.121155,152.044693 157.370270,144.292068 
	C163.178482,138.833420 165.376175,131.917587 168.355453,124.854553 
	C168.427567,124.761848 168.580215,124.632797 168.557648,124.582832 
	C168.466766,124.381462 168.321747,124.204506 168.165192,123.245842 
	C168.314026,122.756653 168.462860,122.267471 168.991898,121.255623 
	C172.374451,121.028023 175.757004,120.800423 179.139557,120.572823 
	C178.021133,119.159019 176.339249,118.752953 175.142334,117.761459 
	C174.251526,117.023537 173.988708,115.527481 173.446213,114.369087 
	C174.718033,114.194374 176.380737,113.432388 177.181534,113.965385 
	C178.929398,115.128685 180.121994,117.091164 181.765289,118.458031 
	C183.037949,119.516617 184.561508,120.599403 186.127609,120.920860 
	C191.803177,122.085823 197.543671,122.934395 203.951675,124.019539 
	C203.406082,123.062180 202.508270,122.027199 202.202133,120.839684 
	C201.516678,118.180794 200.667862,115.435341 200.730423,112.744774 
	C200.809067,109.361244 203.792847,110.106285 206.028336,109.964020 
	C206.846756,109.911934 207.644119,109.528984 209.165619,109.091515 
	C200.915573,106.657028 198.760910,107.728096 196.326996,114.305977 
	C196.215073,114.170822 196.103134,114.035660 195.736816,113.480766 
	C195.504929,113.226112 195.217514,113.083008 194.297470,112.915024 
	C193.871948,112.522545 193.446426,112.130066 193.011734,110.997108 
	C192.289734,107.687767 190.611221,105.856796 186.423904,107.108170 
	C186.069550,107.122253 185.715195,107.136345 184.692688,107.052711 
	C184.468613,107.031311 184.244553,107.009918 183.658157,106.344681 
	C181.997253,105.978912 180.350433,105.513077 178.671295,105.276833 
	C177.136780,105.060921 175.567276,105.093445 173.459961,104.528061 
	C172.119171,99.636490 176.225922,100.559258 178.531143,100.096291 
	C182.128922,99.373741 185.837448,99.202591 190.077423,98.733864 
	C187.937607,96.815582 186.470322,95.500214 185.797806,94.058914 
	C186.860565,94.138763 187.923340,94.218613 189.134949,94.933403 
	C195.240097,100.053558 201.618347,93.988426 207.767654,95.872795 
	C205.221573,94.965385 201.666229,95.064003 200.399841,93.410019 
	C197.637024,89.801643 203.483978,89.589287 204.309219,86.766014 
	C204.309219,86.766014 204.656525,86.843048 205.325546,87.117851 
	C206.154556,87.029503 206.983582,86.941154 207.812592,86.852798 
	C206.861710,83.632339 210.059540,79.648750 205.989960,76.256744 
	C204.774261,74.952438 203.558563,73.648132 202.342850,72.343826 
	C201.895432,73.228912 201.448013,74.113991 200.685837,75.612389 
	C199.456009,76.075768 198.226166,76.539146 196.289764,77.010872 
	C195.526306,77.672791 194.762848,78.334717 193.501007,79.346436 
	C193.334549,79.919022 193.168106,80.491608 192.327713,81.453423 
	C190.291763,81.674088 188.255798,81.894753 185.487961,81.788017 
	C182.318100,80.243591 179.695618,80.554611 177.523941,83.655693 
	C177.349701,82.105522 177.175461,80.555351 177.499359,78.999954 
	C177.499359,78.999954 177.997559,78.997864 178.853546,78.999191 
	C182.764679,79.326408 186.265930,78.710533 189.105209,75.546875 
	C189.940552,74.616081 191.676285,74.493355 193.069565,74.568680 
	C193.374542,74.890961 193.679504,75.213242 193.984482,75.535530 
	C194.166183,75.326096 194.347870,75.116661 194.529572,74.907227 
	C194.019913,74.604713 193.510269,74.302208 193.134094,73.253227 
	C195.324936,72.500626 197.561310,71.855568 199.689407,70.954735 
	C200.948013,70.421967 202.035446,69.484856 204.153732,68.110847 
	C196.990952,66.784828 191.649643,65.935493 187.757065,71.373947 
	C187.235245,72.102997 185.293030,71.815414 183.973999,71.142410 
	C183.915619,70.573334 183.857224,70.004250 183.912582,68.944778 
	C183.996399,68.619995 184.080215,68.295212 184.641586,67.472565 
	C185.285034,66.110870 184.550995,63.592834 187.827682,64.645218 
	C189.224426,65.093819 191.176712,63.812683 192.931763,63.301506 
	C190.917542,57.733929 188.159103,55.320797 182.685303,58.359711 
	C182.185410,58.758965 181.685516,59.158218 180.953781,58.924019 
	C180.636139,58.616005 180.318497,58.307987 180.000275,57.141228 
	C180.330414,54.761776 180.250427,52.224670 181.089874,50.041008 
	C182.255554,47.008747 181.076355,45.953102 178.224274,45.128960 
	C177.423950,46.522236 176.711838,47.761955 175.404449,49.042515 
	C174.936508,49.361649 174.468552,49.680782 173.294174,50.012745 
	C172.196732,51.342033 171.099274,52.671322 170.000809,54.750305 
	C170.000336,55.500000 169.999863,56.249695 170.000000,57.000000 
	C170.000000,57.000000 169.999390,56.999397 169.268921,57.005173 
	C166.177063,59.005684 163.085220,61.006191 159.620300,62.471817 
	C158.460693,61.092594 157.301086,59.713375 156.141479,58.334156 
	C156.480042,57.845863 156.818619,57.357571 157.157181,56.869282 
	C155.772705,56.591145 154.388214,56.313007 152.513687,55.637005 
	C152.740707,49.922909 149.985825,48.068130 143.860916,50.088737 
	C141.271667,48.714214 138.682404,47.339687 135.517639,45.507294 
	C129.215424,43.142868 122.949516,42.484051 116.354095,45.922222 
	C116.354095,45.922222 116.030899,46.185196 115.407471,46.219933 
	C114.591537,46.808601 113.775604,47.397270 112.336327,48.221905 
	C109.669060,50.523781 107.001785,52.825657 103.593529,54.985188 
	C102.491020,53.328880 101.388504,51.672577 100.988258,51.071281 
	C100.149467,53.584469 99.077637,56.795921 98.017166,60.749554 
	C98.754013,61.530869 99.490868,62.312180 100.147804,63.446060 
	C100.147804,63.446060 100.083092,63.801735 100.019516,64.407082 
	C100.012367,64.609848 100.005226,64.812622 99.685287,65.186394 
	C99.685287,65.186394 99.334694,65.121895 98.930107,65.151627 
	C98.816986,65.220970 98.599548,65.337402 98.606407,65.352585 
	C98.707367,65.576225 98.838158,65.786400 99.057434,66.649460 
	C98.994774,67.081726 98.932106,67.514000 98.212112,68.007561 
	C97.553482,68.047302 96.894844,68.087051 95.445686,68.036118 
	C93.505913,67.471550 91.566139,66.906990 88.615479,66.048210 
	C91.393250,69.879005 92.023010,72.571541 87.640816,74.435173 
	C86.911102,74.745514 87.190193,77.427971 86.562416,79.061249 
	C86.562416,79.061249 86.119232,79.058678 85.320526,79.018272 
	C81.882042,80.343330 78.443550,81.668381 74.893715,82.718071 
	C74.807152,82.669495 74.720589,82.620911 74.634033,82.572327 
	C74.753876,82.716560 74.873711,82.860794 75.060364,83.691093 
	C75.368721,84.784660 75.677078,85.878227 76.001709,87.000198 
	C76.001709,87.000198 75.971817,86.987221 75.392708,87.033928 
	C74.931572,87.338509 74.470444,87.643089 73.986961,87.987930 
	C73.986961,87.987930 73.944046,88.004616 73.542274,88.203545 
M56.926781,37.394627 
	C56.517647,37.077759 56.108513,36.760895 55.699379,36.444031 
	C55.465656,36.961472 55.231937,37.478912 54.717567,38.628448 
	C50.174980,44.957672 50.205311,44.935619 54.751900,51.188709 
	C55.798309,52.627872 56.442535,54.357716 57.475636,55.808693 
	C59.304420,58.377224 61.289524,60.834457 63.431591,63.628311 
	C65.425919,60.141148 66.922821,57.523746 68.675461,54.459179 
	C70.246696,56.662411 71.098343,57.856617 72.263809,59.663509 
	C73.512161,62.436142 74.760513,65.208778 76.077339,68.584503 
	C76.485382,68.907005 76.893433,69.229507 77.301476,69.552017 
	C77.531410,69.028572 77.761353,68.505127 77.975815,67.208168 
	C76.663216,63.801308 75.350609,60.394451 74.018433,56.196148 
	C73.190170,51.916897 72.240875,47.703178 68.239677,44.759655 
	C66.571892,47.011513 65.182053,48.888088 63.166832,51.609047 
	C61.821213,48.418900 60.886032,46.201813 60.628086,44.050144 
	C61.601315,44.199371 62.574539,44.348598 63.547768,44.497826 
	C63.768333,44.097263 63.988899,43.696701 64.209465,43.296139 
	C61.809364,41.528919 59.409264,39.761703 56.999847,38.000153 
	C56.999847,38.000153 57.005444,37.990688 56.926781,37.394627 
M161.782547,49.031574 
	C164.042419,48.237553 166.302292,47.443527 168.821304,46.558453 
	C167.743896,45.056664 166.944153,43.941929 165.598541,42.066303 
	C167.485107,40.806885 169.251709,39.627548 171.018326,38.448212 
	C170.829941,37.884850 170.641556,37.321491 170.453171,36.758129 
	C168.911362,36.758129 166.896515,36.136303 165.919861,36.879242 
	C163.382385,38.809483 161.301163,41.339508 158.714798,43.957184 
	C160.282883,44.677448 161.494507,45.233986 162.863556,45.862835 
	C162.062454,46.771027 161.524460,47.380932 160.307114,48.109467 
	C158.918549,50.106915 157.529984,52.104362 156.141418,54.101807 
	C156.693054,54.436188 157.244690,54.770569 157.796326,55.104950 
	C158.866409,53.090431 159.936508,51.075912 161.782547,49.031574 
M165.895111,153.716644 
	C165.807892,153.667526 165.720688,153.618393 165.633469,153.569275 
	C165.754227,153.713974 165.874969,153.858673 165.931931,154.694305 
	C166.720871,157.164642 167.509811,159.634964 168.524414,162.811935 
	C170.856277,160.872345 171.931015,159.978394 173.373459,158.778595 
	C175.085922,160.869080 176.585373,162.699509 178.078918,164.522751 
	C181.016983,160.202621 178.925888,156.008865 172.064087,152.379745 
	C172.015701,152.843094 171.967316,153.306442 171.918930,153.769791 
	C169.947083,153.845108 167.975235,153.920425 165.895111,153.716644 
M148.006973,169.292496 
	C147.035156,167.521469 146.063354,165.750427 145.051758,163.344238 
	C144.529007,163.265518 143.557480,163.079941 143.547180,163.123230 
	C142.342712,168.181961 141.209579,173.257675 139.881424,179.185822 
	C143.061844,178.020981 145.260468,177.215729 148.082428,176.182175 
	C147.779175,181.037994 147.513885,185.285828 147.229767,189.835281 
	C152.525421,188.497559 154.732513,185.881424 154.011597,181.055634 
	C153.433945,177.188782 153.057617,173.291824 152.552704,169.080963 
	C150.831879,169.459778 149.426529,169.769135 148.006973,169.292496 
M165.290512,214.000244 
	C173.562820,212.988785 181.841919,212.026917 190.097733,210.895126 
	C191.001129,210.771286 191.770569,209.670258 192.602142,209.022476 
	C192.109940,208.427032 191.716965,207.460648 191.108978,207.297989 
	C187.836655,206.422638 184.544235,205.467300 181.195755,205.068466 
	C176.270111,204.481781 171.295792,204.227371 166.334320,204.031311 
	C148.091537,203.310394 129.849854,202.451279 111.598923,202.093430 
	C102.153183,201.908218 92.688019,202.642807 83.233330,203.006149 
	C75.276192,203.311920 67.317940,203.615662 59.366920,204.045105 
	C53.416874,204.366440 47.451126,204.683578 41.551048,205.452728 
	C39.971558,205.658630 38.607071,207.513840 37.143879,208.611877 
	C38.641262,209.722748 40.020195,211.544647 41.657204,211.817337 
	C47.681080,212.820816 53.775543,213.679047 59.870487,213.926819 
	C80.608131,214.769791 101.355003,215.737869 122.102875,215.854752 
	C136.177750,215.934067 150.260193,214.666473 165.290512,214.000244 
M89.850784,49.973656 
	C90.059052,51.472149 90.267319,52.970646 90.475586,54.469139 
	C92.114197,50.931133 92.709778,47.441235 92.883354,43.930470 
	C92.929100,43.005112 91.716927,41.230553 91.003899,41.188877 
	C87.650246,40.992867 88.028358,38.763809 87.991440,36.587196 
	C87.962746,34.895432 87.807602,33.205807 87.689926,31.195055 
	C80.059647,34.581734 83.993584,40.692059 83.082138,45.390755 
	C82.935799,46.145172 83.647514,47.066032 84.043770,48.127426 
	C85.685791,47.409855 86.983131,46.842911 88.379471,46.232704 
	C88.857338,47.419064 89.225822,48.333858 89.850784,49.973656 
M118.871819,179.411880 
	C120.150734,176.160782 121.429642,172.909668 122.803635,169.416870 
	C121.116959,169.109741 119.862221,168.881271 118.478195,168.629257 
	C118.478195,167.153946 118.478195,165.844482 118.478195,163.759232 
	C115.805229,166.520264 113.689072,168.436401 116.117569,171.859253 
	C116.574249,172.502899 115.943054,174.223724 115.396507,175.218079 
	C113.571190,178.539001 113.977051,180.280807 118.871819,179.411880 
M201.005737,136.746033 
	C200.882263,135.884064 201.007401,134.428314 200.595276,134.255753 
	C197.760315,133.068726 194.875732,131.784424 191.880310,131.270432 
	C189.802475,130.913879 187.522247,131.736771 185.332443,132.032700 
	C185.412079,132.512634 185.491730,132.992584 185.571365,133.472534 
	C190.462952,134.627060 195.354538,135.781586 201.005737,136.746033 
M118.048790,191.209671 
	C118.515762,194.070282 118.982742,196.930908 119.389511,199.422684 
	C119.389511,194.349777 119.389511,188.992111 119.389511,183.634445 
	C118.929901,183.643707 118.470284,183.652985 118.010674,183.662262 
	C118.010674,185.880783 118.010674,188.099304 118.048790,191.209671 
M24.673483,107.876717 
	C22.962191,108.031242 21.250896,108.185768 19.539602,108.340294 
	C19.908276,109.119370 20.124802,110.422089 20.673519,110.581512 
	C22.479347,111.106216 24.740070,111.906052 24.673483,107.876717 
M51.518692,65.342621 
	C51.308907,65.996193 50.750168,67.077835 50.944214,67.236015 
	C52.584400,68.573051 54.362030,69.741478 56.098377,70.960548 
	C56.431213,70.510704 56.764050,70.060852 57.096882,69.611000 
	C55.441368,68.271576 53.785858,66.932159 51.518692,65.342621 
M32.399807,88.911545 
	C31.626108,88.355385 30.852407,87.799225 30.078707,87.243065 
	C29.391027,88.553017 28.703350,89.862976 28.015671,91.172935 
	C28.384216,91.395790 28.752762,91.618652 29.121307,91.841507 
	C30.072952,91.053398 31.024595,90.265289 32.399807,88.911545 
M174.542526,167.987534 
	C175.296219,167.907455 176.049911,167.827377 176.803604,167.747314 
	C175.945435,166.949463 175.087250,166.151596 174.229080,165.353745 
	C174.175934,166.077164 174.122772,166.800598 174.542526,167.987534 
M62.607590,73.797852 
	C62.213749,73.793594 61.819904,73.789345 61.426060,73.785088 
	C61.424587,73.948502 61.412128,74.253937 61.423229,74.254799 
	C61.815086,74.285110 62.209160,74.286850 62.607590,73.797852 
M33.587822,105.517342 
	C33.587822,105.517342 33.476997,105.583542 33.587822,105.517342 
M195.408966,109.482773 
	C195.408966,109.482773 195.522095,109.414978 195.408966,109.482773 
z"/>
<path fill="#087CF8" opacity="1.000000" stroke="none" 
	d="
M98.869431,67.946266 
	C98.932106,67.514000 98.994774,67.081726 99.136032,66.119240 
	C99.214622,65.589020 99.334694,65.121895 99.334694,65.121895 
	C99.334694,65.121895 99.685287,65.186394 100.127319,65.101151 
	C100.407265,64.611176 100.245178,64.206459 100.083092,63.801735 
	C100.083092,63.801735 100.147804,63.446060 100.518555,63.216698 
	C101.373108,62.036007 101.856926,61.084682 102.530350,60.000641 
	C102.918823,59.608864 102.998505,59.317238 103.194550,58.814392 
	C103.572037,58.088978 103.713966,57.542225 103.959061,56.690609 
	C104.152985,55.966347 104.243752,55.546944 104.334511,55.127541 
	C107.001785,52.825657 109.669060,50.523781 112.993011,48.111282 
	C114.443436,47.395500 115.237167,46.790348 116.030899,46.185196 
	C116.030899,46.185196 116.354095,45.922222 117.037605,45.948395 
	C123.845131,45.971436 129.969147,45.968300 136.093155,45.965164 
	C138.682404,47.339687 141.271667,48.714214 144.355560,50.462086 
	C147.493729,53.388973 150.137268,55.942516 152.882431,58.801231 
	C154.530472,61.111008 156.076874,63.115608 157.695831,65.412247 
	C158.113174,66.166740 158.457947,66.629189 158.865341,67.414139 
	C159.612793,68.830475 160.297607,69.924301 160.991547,71.385269 
	C162.958344,76.623077 164.915985,81.493744 166.836273,86.538849 
	C166.798920,86.713280 167.014328,86.997688 166.992554,87.427628 
	C167.207214,89.612808 167.539825,91.361328 167.663391,93.124481 
	C168.189621,100.632973 168.717804,108.142578 169.098648,115.659203 
	C169.201324,117.685463 168.788116,119.737877 168.611710,121.778282 
	C168.462860,122.267471 168.314026,122.756653 168.071381,123.866760 
	C167.995590,124.659332 168.013611,124.830978 168.031616,125.002632 
	C165.376175,131.917587 163.178482,138.833420 157.370270,144.292068 
	C149.121155,152.044693 138.755569,154.165817 128.681107,148.722961 
	C126.660751,147.631439 124.759087,146.320221 122.277603,144.730133 
	C116.728271,138.002151 110.919518,132.116821 106.846497,125.208183 
	C98.875504,111.687828 96.623062,96.556763 97.128578,80.627960 
	C97.806519,76.150932 98.337975,72.048599 98.869431,67.946266 
M107.925804,89.902939 
	C107.872314,100.768822 110.812126,110.850166 116.074371,121.019791 
	C117.563332,123.586655 118.622757,126.575256 120.636826,128.626526 
	C124.095634,132.149216 128.150253,135.086868 132.113373,138.958282 
	C142.461502,146.234665 156.601303,140.042709 160.017578,127.082466 
	C162.902878,116.136627 163.424927,105.275505 161.009247,94.208519 
	C158.040695,80.608635 152.820145,68.209900 142.172256,58.772312 
	C136.340332,53.603275 129.443680,51.246578 121.904243,54.276917 
	C115.189384,56.975830 112.315132,62.985855 110.303787,70.288322 
	C109.541069,76.524841 108.778358,82.761353 107.925804,89.902939 
z"/>
<path fill="#F5F5F5" opacity="1.000000" stroke="none" 
	d="
M164.814880,214.000732 
	C150.260193,214.666473 136.177750,215.934067 122.102875,215.854752 
	C101.355003,215.737869 80.608131,214.769791 59.870487,213.926819 
	C53.775543,213.679047 47.681080,212.820816 41.657204,211.817337 
	C40.020195,211.544647 38.641262,209.722748 37.143883,208.611877 
	C38.607071,207.513840 39.971558,205.658630 41.551048,205.452728 
	C47.451126,204.683578 53.416874,204.366440 59.366920,204.045105 
	C67.317940,203.615662 75.276192,203.311920 83.233330,203.006149 
	C92.688019,202.642807 102.153183,201.908218 111.598923,202.093430 
	C129.849854,202.451279 148.091537,203.310394 166.334320,204.031311 
	C171.295792,204.227371 176.270111,204.481781 181.195755,205.068466 
	C184.544235,205.467300 187.836655,206.422638 191.108978,207.297989 
	C191.716965,207.460648 192.109940,208.427032 192.602142,209.022461 
	C191.770569,209.670258 191.001129,210.771286 190.097733,210.895126 
	C181.841919,212.026917 173.562820,212.988785 164.814880,214.000732 
z"/>
<path fill="#BDD8FC" opacity="1.000000" stroke="none" 
	d="
M96.982101,81.002655 
	C96.623062,96.556763 98.875504,111.687828 106.846497,125.208183 
	C110.919518,132.116821 116.728271,138.002151 121.948563,144.618423 
	C110.317589,143.964783 98.491531,143.029816 86.662155,142.138870 
	C85.353386,142.040298 84.025688,142.193192 81.925293,142.417816 
	C78.062347,142.759750 74.980865,142.913376 71.596008,142.983582 
	C70.528549,142.633575 69.764465,142.366989 68.602325,142.036133 
	C64.522942,141.556351 60.841595,141.140854 57.164764,140.536194 
	C57.169273,140.347031 56.998875,140.009155 57.043835,139.691833 
	C56.744141,138.901337 56.399487,138.428177 55.986645,137.601318 
	C50.193470,127.774269 47.662270,117.588631 48.833141,106.501297 
	C48.912983,105.745255 47.650307,104.847443 47.220329,103.729881 
	C48.580639,103.276054 49.732605,103.107910 51.243172,102.962273 
	C52.079620,102.996307 52.557468,103.007843 52.970322,103.420959 
	C52.395321,107.394920 51.389557,110.979469 51.476799,114.537209 
	C51.668270,122.345146 52.870148,123.500710 60.736797,122.887466 
	C65.195885,122.539871 69.640961,121.270866 73.954147,119.961563 
	C80.985657,117.827110 87.991356,115.536812 94.799721,112.795174 
	C96.234528,112.217400 97.742767,109.277328 97.524963,107.652573 
	C97.020538,103.889565 94.825592,100.318741 94.520142,96.571838 
	C94.100967,91.429695 94.795944,86.196724 95.341599,81.002243 
	C96.107185,81.002090 96.544640,81.002373 96.982101,81.002655 
z"/>
<path fill="#F6FAFA" opacity="1.000000" stroke="none" 
	d="
M168.801804,121.516953 
	C168.788116,119.737877 169.201324,117.685463 169.098648,115.659203 
	C168.717804,108.142578 168.189621,100.632973 167.663391,93.124481 
	C167.539825,91.361328 167.207214,89.612808 167.340302,87.492119 
	C168.463943,88.274979 169.218018,89.423279 170.020538,90.645309 
	C173.621155,89.675819 177.221817,88.706322 181.047714,87.676178 
	C179.730072,86.087387 178.863617,85.042633 177.997177,83.997879 
	C179.695618,80.554611 182.318100,80.243591 185.578186,82.172287 
	C185.447815,83.631271 184.754654,84.907997 185.109009,85.736908 
	C185.763855,87.268715 187.032578,88.538094 188.433380,90.444603 
	C183.929840,91.163651 180.235153,91.753555 176.279739,92.385086 
	C178.350815,92.980415 180.151840,93.498123 181.606415,94.055954 
	C179.890839,95.004005 178.521729,95.911934 177.152603,96.819862 
	C180.283829,97.792480 182.922424,98.116684 183.328461,94.115463 
	C184.108276,94.094536 184.555649,94.139687 185.003036,94.184845 
	C186.470322,95.500214 187.937607,96.815582 190.077423,98.733864 
	C185.837448,99.202591 182.128922,99.373741 178.531143,100.096291 
	C176.225922,100.559258 172.119171,99.636490 173.771896,105.124283 
	C175.774551,107.796318 177.465286,109.872147 179.437805,112.121376 
	C181.654449,114.606514 183.589279,116.918243 186.005783,119.805466 
	C186.892899,117.294861 187.466309,115.672096 188.351898,114.164948 
	C190.941650,116.235329 193.219238,118.190079 195.496811,120.144829 
	C195.926697,119.943336 196.356567,119.741852 196.786453,119.540359 
	C196.786453,117.881241 196.786453,116.222115 196.786453,114.562988 
	C198.760910,107.728096 200.915573,106.657028 209.165619,109.091515 
	C207.644119,109.528984 206.846756,109.911934 206.028336,109.964020 
	C203.792847,110.106285 200.809067,109.361244 200.730423,112.744774 
	C200.667862,115.435341 201.516678,118.180794 202.202133,120.839684 
	C202.508270,122.027199 203.406082,123.062180 203.951675,124.019539 
	C197.543671,122.934395 191.803177,122.085823 186.127609,120.920860 
	C184.561508,120.599403 183.037949,119.516617 181.765289,118.458031 
	C180.121994,117.091164 178.929398,115.128685 177.181534,113.965385 
	C176.380737,113.432388 174.718033,114.194374 173.446213,114.369080 
	C173.988708,115.527481 174.251526,117.023537 175.142334,117.761459 
	C176.339249,118.752953 178.021133,119.159019 179.139557,120.572823 
	C175.757004,120.800423 172.374451,121.028023 168.801804,121.516953 
z"/>
<path fill="#057CFA" opacity="1.000000" stroke="none" 
	d="
M51.827515,149.004272 
	C51.641407,148.576767 51.455299,148.149261 51.491318,147.242279 
	C52.118031,146.510422 52.522610,146.258026 53.402328,146.002533 
	C58.919575,145.978073 63.961678,145.956726 69.336136,146.125092 
	C69.588585,149.515793 70.223022,152.950867 69.268074,155.865143 
	C67.676247,160.723038 67.930077,162.424759 72.846527,165.491196 
	C71.678474,168.304657 70.496590,170.734116 69.034622,173.103668 
	C68.567429,173.018616 68.380325,172.993439 68.153381,172.602081 
	C68.071564,171.500427 68.029572,170.764984 67.881439,169.798035 
	C67.493156,169.389023 67.211021,169.211517 66.609589,169.023285 
	C65.866676,168.968445 65.443047,168.924347 64.970322,168.600418 
	C64.607544,168.020340 64.293869,167.720108 63.980202,167.419876 
	C63.645187,167.888016 63.310169,168.356140 62.580460,168.856934 
	C61.131405,168.865280 60.077049,168.840927 58.944702,168.481232 
	C57.252541,165.762329 55.638371,163.378769 54.024197,160.995193 
	C54.024197,160.995193 53.813313,160.564911 53.889858,159.906281 
	C53.253441,155.833191 52.540478,152.418732 51.827515,149.004272 
z"/>
<path fill="#FAFBFB" opacity="1.000000" stroke="none" 
	d="
M50.884575,102.939774 
	C49.732605,103.107910 48.580639,103.276054 46.965366,103.949265 
	C40.728039,107.645882 36.954098,112.273445 35.772854,119.038757 
	C34.939037,119.342125 34.406277,119.585396 33.500275,119.863876 
	C27.049181,121.226418 29.385979,125.379829 30.013742,129.346771 
	C30.915503,132.143158 31.880527,134.573288 32.845554,137.003403 
	C31.552475,136.762360 30.231714,136.616913 28.974272,136.252792 
	C27.768490,135.903656 25.779749,135.493057 25.647503,134.814636 
	C25.417822,133.636414 26.353477,132.231003 26.954336,130.469955 
	C26.101017,128.962479 23.672155,126.646675 23.847893,124.549095 
	C24.162228,120.797256 25.422623,116.741051 27.551430,113.695549 
	C28.535397,112.287872 32.495026,112.960182 35.515648,112.646919 
	C34.941784,111.233139 34.433807,109.981682 33.855995,108.558174 
	C36.961292,106.929260 39.893879,105.390945 43.286022,103.611557 
	C38.413067,95.423721 29.414246,98.630714 22.032585,95.585274 
	C28.861137,93.317604 34.093029,94.665337 40.012859,97.048431 
	C42.538040,97.399483 44.289356,97.595375 45.982185,98.022850 
	C48.363403,98.624146 50.701233,99.397270 52.927021,100.367264 
	C52.159142,101.405006 51.521858,102.172386 50.884575,102.939774 
z"/>
<path fill="#E3E3E3" opacity="1.000000" stroke="none" 
	d="
M71.949997,59.050823 
	C71.098343,57.856617 70.246696,56.662411 68.675461,54.459179 
	C66.922821,57.523746 65.425919,60.141148 63.431591,63.628311 
	C61.289524,60.834457 59.304420,58.377224 57.475636,55.808693 
	C56.442535,54.357716 55.798309,52.627872 54.751900,51.188709 
	C50.205311,44.935619 50.174980,44.957672 55.192421,38.313400 
	C56.113335,37.995800 56.559387,37.993244 57.005444,37.990688 
	C57.005444,37.990688 56.999847,38.000153 57.005959,38.358772 
	C57.991665,40.473171 58.971260,42.228947 59.950851,43.984726 
	C60.886032,46.201813 61.821213,48.418900 63.166832,51.609047 
	C65.182053,48.888088 66.571892,47.011513 68.239677,44.759655 
	C72.240875,47.703178 73.190170,51.916897 73.773682,56.748466 
	C73.002617,57.884132 72.476311,58.467476 71.949997,59.050823 
z"/>
<path fill="#FDFDFE" opacity="1.000000" stroke="none" 
	d="
M160.982422,71.018127 
	C160.297607,69.924301 159.612793,68.830475 159.184875,67.267876 
	C160.518112,66.071838 161.730698,65.483994 162.644592,64.590591 
	C165.163086,62.128601 167.556503,59.538704 169.999390,56.999397 
	C169.999390,56.999397 170.000000,57.000000 170.323822,57.027252 
	C171.487045,57.259106 172.326462,57.463699 173.165878,57.668297 
	C173.383850,57.282173 173.601837,56.896049 173.819809,56.509926 
	C172.547150,55.673489 171.274490,54.837048 170.001831,54.000610 
	C171.099274,52.671322 172.196732,51.342033 173.894623,50.166817 
	C175.089127,50.723942 175.683182,51.126987 176.277252,51.530033 
	C176.184769,50.687248 176.092255,49.844463 175.999741,49.001678 
	C176.711838,47.761955 177.423950,46.522236 178.224274,45.128960 
	C181.076355,45.953102 182.255554,47.008747 181.089874,50.041008 
	C180.250427,52.224670 180.330414,54.761776 180.005692,57.931419 
	C180.049332,59.201527 180.087555,59.681438 180.065750,60.112183 
	C180.005722,60.063011 180.148514,60.123756 179.744751,60.084244 
	C176.079544,60.662251 172.818085,61.279774 169.849792,61.841789 
	C170.873505,63.846981 171.933395,65.923035 172.619202,67.999237 
	C171.496536,67.999794 170.747971,68.000206 169.726364,68.195496 
	C167.392410,71.724953 165.157455,74.498604 160.982422,71.018127 
z"/>
<path fill="#0957B6" opacity="1.000000" stroke="none" 
	d="
M69.314705,173.163574 
	C70.496590,170.734116 71.678474,168.304657 73.153061,165.362885 
	C75.606491,164.611542 78.285027,165.425232 78.949211,162.143616 
	C81.947914,164.109390 83.255165,166.394623 82.135300,170.311050 
	C81.510025,172.497726 82.741341,175.215302 83.593414,178.173386 
	C84.677460,179.447556 85.304123,180.241974 85.930794,181.036392 
	C82.558998,181.722748 79.187210,182.409088 75.359169,182.725754 
	C73.647751,180.884018 72.392578,179.411957 71.106590,177.586761 
	C70.413124,176.413651 69.750458,175.593674 69.119865,174.503693 
	C69.206192,173.876968 69.260452,173.520279 69.314705,173.163574 
z"/>
<path fill="#C2D8F9" opacity="1.000000" stroke="none" 
	d="
M51.243172,102.962265 
	C51.521858,102.172386 52.159142,101.405006 53.251389,100.315300 
	C54.808697,99.340057 55.911045,98.687126 57.357079,97.990013 
	C58.856041,96.985519 60.011311,96.025208 61.522758,95.023773 
	C65.267685,93.000549 68.656448,91.018440 72.045204,89.036331 
	C72.045204,89.036331 72.533203,88.996735 72.985352,88.869507 
	C73.705406,88.564438 73.874252,88.318558 73.944046,88.004616 
	C73.944046,88.004616 73.986961,87.987930 74.291718,87.963631 
	C75.054916,87.621964 75.513367,87.304588 75.971817,86.987221 
	C75.971817,86.987221 76.001709,87.000198 76.307037,86.852707 
	C79.781319,84.156372 82.950272,81.607521 86.119232,79.058670 
	C86.119232,79.058678 86.562416,79.061249 87.089783,78.895218 
	C91.120468,75.707451 95.878174,73.705444 96.236214,68.126793 
	C96.894844,68.087051 97.553482,68.047302 98.540771,67.976913 
	C98.337975,72.048599 97.806519,76.150932 97.128578,80.627960 
	C96.544640,81.002373 96.107185,81.002090 95.337585,80.635941 
	C94.766205,79.267174 94.526962,78.264267 94.429810,77.857018 
	C86.328163,83.318138 78.580116,88.876381 70.488770,93.879425 
	C64.917236,97.324394 58.869965,99.999954 53.035316,103.019394 
	C52.557468,103.007843 52.079620,102.996307 51.243172,102.962265 
z"/>
<path fill="#E2E2E2" opacity="1.000000" stroke="none" 
	d="
M148.021194,170.078491 
	C149.426529,169.769135 150.831879,169.459778 152.552704,169.080963 
	C153.057617,173.291824 153.433945,177.188782 154.011597,181.055634 
	C154.732513,185.881424 152.525421,188.497559 147.229767,189.835281 
	C147.513885,185.285828 147.779175,181.037994 148.082428,176.182175 
	C145.260468,177.215729 143.061844,178.020981 139.881424,179.185822 
	C141.209579,173.257675 142.342712,168.181961 143.547180,163.123230 
	C143.557480,163.079941 144.529007,163.265518 145.043823,164.105743 
	C145.035873,167.448013 145.035873,170.028763 145.035873,172.609512 
	C145.542358,172.669342 146.048843,172.729156 146.555344,172.788971 
	C147.043961,171.885483 147.532578,170.981995 148.021194,170.078491 
z"/>
<path fill="#137DF1" opacity="1.000000" stroke="none" 
	d="
M181.952866,94.015831 
	C180.151840,93.498123 178.350815,92.980415 176.279739,92.385086 
	C180.235153,91.753555 183.929840,91.163651 188.433380,90.444603 
	C187.032578,88.538094 185.763855,87.268715 185.109009,85.736908 
	C184.754654,84.907997 185.447815,83.631271 185.944138,82.335999 
	C188.255798,81.894753 190.291763,81.674088 193.057373,81.291626 
	C202.946930,80.341034 203.269272,80.510460 204.656525,86.843048 
	C204.656525,86.843048 204.309219,86.766014 203.734146,86.751099 
	C201.432663,86.850578 199.706238,86.964966 197.739685,87.028648 
	C197.499557,86.977943 197.030960,87.124107 196.621307,87.059433 
	C194.834808,87.091942 193.457962,87.189110 191.705688,87.312782 
	C192.889969,89.709320 193.848709,91.649467 194.996750,93.972687 
	C192.559006,94.104805 190.772552,94.201630 188.986099,94.298454 
	C187.923340,94.218613 186.860565,94.138763 185.400421,94.121880 
	C184.555649,94.139687 184.108276,94.094536 183.071579,94.049316 
	C182.305817,94.038109 182.129349,94.026970 181.952866,94.015831 
z"/>
<path fill="#0756B8" opacity="1.000000" stroke="none" 
	d="
M78.758659,161.783508 
	C78.285027,165.425232 75.606491,164.611542 73.139221,164.978882 
	C67.930077,162.424759 67.676247,160.723038 69.268074,155.865143 
	C70.223022,152.950867 69.588585,149.515793 69.335144,145.743149 
	C69.001328,144.147812 69.000847,143.124100 69.000366,142.100403 
	C69.764465,142.366989 70.528549,142.633575 71.610855,143.388275 
	C72.842445,149.909729 72.842445,149.909729 80.972588,149.888275 
	C79.493195,153.592010 76.520226,156.984406 78.758659,161.783508 
z"/>
<path fill="#FEFEFE" opacity="1.000000" stroke="none" 
	d="
M57.013393,98.034195 
	C55.911045,98.687126 54.808697,99.340057 53.381981,100.044952 
	C50.701233,99.397270 48.363403,98.624146 45.982185,98.022850 
	C44.289356,97.595375 42.538040,97.399483 40.406433,97.048141 
	C39.161156,95.654778 38.051178,94.405792 37.554920,92.947906 
	C36.988541,91.284012 36.968754,89.434052 37.230717,87.332550 
	C38.500004,87.001007 39.250008,87.001877 40.044701,87.326874 
	C41.059547,87.767441 42.029709,87.883873 43.333542,88.000290 
	C44.112137,88.000282 44.557060,88.000298 45.001984,88.000305 
	C46.104382,88.312172 47.206783,88.624031 48.654644,89.217796 
	C49.000107,89.499695 49.000305,89.999390 49.000305,89.999390 
	C49.872791,94.076920 53.090809,93.936142 56.597778,94.249741 
	C57.000488,94.499542 57.000458,94.999084 57.000362,95.378143 
	C57.004642,96.516197 57.009018,97.275200 57.013393,98.034195 
z"/>
<path fill="#FCFDFE" opacity="1.000000" stroke="none" 
	d="
M177.760559,83.826790 
	C178.863617,85.042633 179.730072,86.087387 181.047714,87.676178 
	C177.221817,88.706322 173.621155,89.675819 170.020538,90.645309 
	C169.218018,89.423279 168.463943,88.274979 167.362091,87.062180 
	C167.014328,86.997688 166.798920,86.713280 166.900269,86.145660 
	C167.482727,83.275642 167.730988,80.891319 168.504883,78.691948 
	C169.435791,76.046379 170.813751,73.558121 171.998657,71.396301 
	C171.226837,75.887177 174.689514,77.047157 177.001221,79.005180 
	C177.175461,80.555351 177.349701,82.105522 177.760559,83.826790 
M173.184372,80.262100 
	C173.026855,80.376404 172.869339,80.490715 172.711823,80.605019 
	C172.930939,80.581932 173.150040,80.558853 173.184372,80.262100 
z"/>
<path fill="#FCFDFE" opacity="1.000000" stroke="none" 
	d="
M184.008575,71.998611 
	C185.293030,71.815414 187.235245,72.102997 187.757065,71.373947 
	C191.649643,65.935493 196.990952,66.784828 204.153732,68.110847 
	C202.035446,69.484856 200.948013,70.421967 199.689407,70.954735 
	C197.561310,71.855568 195.324936,72.500626 193.067047,73.626617 
	C193.000000,74.000000 192.999390,74.000305 192.999390,74.000305 
	C191.676285,74.493355 189.940552,74.616081 189.105209,75.546875 
	C186.265930,78.710533 182.764679,79.326408 178.419678,78.611755 
	C177.657379,76.211258 177.328934,74.198204 177.358887,72.119476 
	C178.425507,71.901924 179.133774,71.750031 180.024384,71.916138 
	C181.474014,72.155617 182.741287,72.077118 184.008575,71.998611 
z"/>
<path fill="#F2F2F2" opacity="1.000000" stroke="none" 
	d="
M89.722549,49.611153 
	C89.225822,48.333858 88.857338,47.419064 88.379471,46.232704 
	C86.983131,46.842911 85.685791,47.409855 84.043770,48.127426 
	C83.647514,47.066032 82.935799,46.145172 83.082138,45.390755 
	C83.993584,40.692059 80.059647,34.581734 87.689926,31.195055 
	C87.807602,33.205807 87.962746,34.895432 87.991440,36.587196 
	C88.028358,38.763809 87.650246,40.992867 91.003899,41.188877 
	C91.716927,41.230553 92.929100,43.005112 92.883354,43.930470 
	C92.709778,47.441235 92.114197,50.931133 90.475586,54.469139 
	C90.267319,52.970646 90.059052,51.472149 89.722549,49.611153 
z"/>
<path fill="#147FF3" opacity="1.000000" stroke="none" 
	d="
M71.137398,177.939911 
	C72.392578,179.411957 73.647751,180.884018 74.921852,182.688416 
	C74.171036,183.310257 73.422897,183.695282 72.628326,183.875015 
	C59.447479,186.856430 57.323017,185.331390 56.049965,171.342316 
	C56.087814,170.579208 55.910461,170.343613 55.733109,170.108017 
	C55.136505,167.342728 54.539898,164.577454 53.983742,161.403687 
	C55.638371,163.378769 57.252541,165.762329 58.675991,168.750580 
	C59.108097,172.487076 59.060265,176.019424 60.602692,178.602036 
	C61.543453,180.177246 64.894531,180.597794 67.242966,180.886398 
	C68.020607,180.981979 69.047806,179.046951 69.975258,178.025269 
	C69.989609,178.010193 70.015678,177.978653 70.296341,177.975800 
	C70.763809,177.961945 70.950607,177.950928 71.137398,177.939911 
z"/>
<path fill="#F2F2F2" opacity="1.000000" stroke="none" 
	d="
M56.997253,84.998169 
	C53.214573,84.010910 49.337872,83.271515 45.703594,81.893021 
	C44.536404,81.450294 44.009083,79.320633 43.189022,77.962753 
	C44.675236,77.589561 46.145325,77.120163 47.651760,76.867577 
	C49.523293,76.553795 51.422390,76.392494 53.314335,76.216408 
	C54.662331,76.090935 56.223450,75.580589 57.329498,76.064598 
	C59.960865,77.216049 62.378651,78.855583 64.535538,80.647652 
	C61.948757,80.556534 59.709164,80.115692 56.997253,79.581879 
	C56.997253,81.517082 56.997253,83.257622 56.997253,84.998169 
z"/>
<path fill="#FAFBFB" opacity="1.000000" stroke="none" 
	d="
M57.438583,84.998749 
	C56.997253,83.257622 56.997253,81.517082 56.997253,79.581879 
	C59.709164,80.115692 61.948757,80.556534 64.592163,80.995888 
	C67.160698,83.543869 69.325417,86.093346 71.767670,88.839577 
	C68.656448,91.018440 65.267685,93.000549 61.102119,95.001175 
	C59.217022,95.012825 58.108742,95.005959 57.000458,94.999084 
	C57.000458,94.999084 57.000488,94.499542 57.000320,94.249771 
	C57.000153,93.025108 57.000153,92.050217 57.000153,90.847313 
	C58.423592,91.126259 59.970612,91.930733 60.663471,91.464874 
	C62.300308,90.364281 63.530781,88.659325 64.925583,87.198761 
	C63.400387,86.465813 61.912956,85.630913 60.333069,85.045532 
	C59.609043,84.777267 58.703266,84.999527 57.438583,84.998749 
z"/>
<path fill="#F4F4F4" opacity="1.000000" stroke="none" 
	d="
M166.003387,153.995728 
	C167.975235,153.920425 169.947083,153.845108 171.918930,153.769791 
	C171.967316,153.306442 172.015701,152.843094 172.064087,152.379745 
	C178.925888,156.008865 181.016983,160.202621 178.078918,164.522751 
	C176.585373,162.699509 175.085922,160.869080 173.373459,158.778595 
	C171.931015,159.978394 170.856277,160.872345 168.524414,162.811935 
	C167.509811,159.634964 166.720871,157.164642 165.965973,154.347153 
	C166.000000,154.000000 166.003387,153.995728 166.003387,153.995728 
z"/>
<path fill="#F6FAFA" opacity="1.000000" stroke="none" 
	d="
M197.979828,87.079361 
	C199.706238,86.964966 201.432663,86.850578 203.580963,86.841537 
	C203.483978,89.589287 197.637024,89.801643 200.399841,93.410019 
	C201.666229,95.064003 205.221573,94.965385 207.767654,95.872795 
	C201.618347,93.988426 195.240097,100.053558 189.060516,94.615929 
	C190.772552,94.201630 192.559006,94.104805 194.996750,93.972687 
	C193.848709,91.649467 192.889969,89.709320 191.705688,87.312782 
	C193.457962,87.189110 194.834808,87.091942 196.712555,87.207397 
	C197.468933,87.306473 197.724380,87.192917 197.979828,87.079361 
z"/>
<path fill="#1F80ED" opacity="1.000000" stroke="none" 
	d="
M179.842026,71.598137 
	C179.133774,71.750031 178.425507,71.901924 177.068329,71.973541 
	C177.205902,70.726639 177.992401,69.560005 178.798935,68.363632 
	C177.199020,67.604767 175.819153,66.950279 173.646790,65.919899 
	C176.110001,63.724007 178.129257,61.923882 180.148514,60.123756 
	C180.148514,60.123756 180.005722,60.063011 180.276276,60.081856 
	C180.825409,59.996807 181.038345,59.815735 181.185623,59.557472 
	C181.685516,59.158218 182.185410,58.758965 183.211609,58.122692 
	C185.051407,58.586796 186.364914,59.287918 187.944504,60.131081 
	C185.186661,62.159615 183.017242,63.755329 180.653854,65.493721 
	C182.066162,66.490219 183.115082,67.230316 184.164017,67.970421 
	C184.080215,68.295212 183.996399,68.619995 183.550476,69.309036 
	C182.072922,70.314911 180.957474,70.956520 179.842026,71.598137 
z"/>
<path fill="#0879F4" opacity="1.000000" stroke="none" 
	d="
M30.077007,128.980499 
	C29.385979,125.379829 27.049181,121.226418 33.654778,120.225143 
	C35.803699,126.029930 37.424877,131.508667 39.033699,137.240814 
	C39.020706,137.663376 39.020061,137.832535 39.019413,138.001694 
	C39.019413,138.001694 38.737968,138.237610 38.160141,138.161407 
	C36.302303,136.191864 35.131165,134.211182 33.705891,132.434341 
	C32.670372,131.143402 31.298761,130.122055 30.077007,128.980499 
z"/>
<path fill="#F6FAFA" opacity="1.000000" stroke="none" 
	d="
M179.744751,60.084240 
	C178.129257,61.923882 176.110001,63.724007 173.646790,65.919899 
	C175.819153,66.950279 177.199020,67.604767 178.798935,68.363632 
	C177.992401,69.560005 177.205902,70.726639 176.709961,72.039215 
	C177.328934,74.198204 177.657379,76.211258 177.991684,78.611092 
	C177.997559,78.997864 177.499359,78.999954 177.250290,79.002563 
	C174.689514,77.047157 171.226837,75.887177 171.999573,71.395424 
	C172.000000,71.000000 172.000977,70.998474 172.304962,70.962921 
	C172.737061,69.951271 172.865173,68.975174 172.993286,67.999084 
	C171.933395,65.923035 170.873505,63.846981 169.849792,61.841789 
	C172.818085,61.279774 176.079544,60.662251 179.744751,60.084240 
z"/>
<path fill="#E5E5E5" opacity="1.000000" stroke="none" 
	d="
M160.986481,47.990837 
	C161.524460,47.380932 162.062454,46.771027 162.863556,45.862835 
	C161.494507,45.233986 160.282883,44.677448 158.714798,43.957184 
	C161.301163,41.339508 163.382385,38.809483 165.919861,36.879242 
	C166.896515,36.136303 168.911362,36.758129 170.453171,36.758129 
	C170.641556,37.321491 170.829941,37.884850 171.018326,38.448212 
	C169.251709,39.627548 167.485107,40.806885 165.598541,42.066303 
	C166.944153,43.941929 167.743896,45.056664 168.821304,46.558453 
	C166.302292,47.443527 164.042419,48.237553 161.389740,48.778469 
	C160.993454,48.347187 160.989975,48.169010 160.986481,47.990837 
z"/>
<path fill="#F6FAFA" opacity="1.000000" stroke="none" 
	d="
M204.991028,86.980453 
	C203.269272,80.510460 202.946930,80.341034 193.394348,81.097015 
	C193.168106,80.491608 193.334549,79.919022 194.052887,79.298645 
	C195.401947,78.501411 196.199142,77.751961 196.996338,77.002518 
	C198.226166,76.539146 199.456009,76.075768 201.162567,75.307861 
	C202.191650,75.530327 202.660187,76.253365 203.317657,76.534447 
	C204.129776,76.881630 205.098938,76.861488 206.000229,77.000069 
	C210.059540,79.648750 206.861710,83.632339 207.812592,86.852798 
	C206.983582,86.941154 206.154556,87.029503 204.991028,86.980453 
z"/>
<path fill="#F2F2F2" opacity="1.000000" stroke="none" 
	d="
M118.538162,179.595062 
	C113.977051,180.280807 113.571190,178.539001 115.396507,175.218079 
	C115.943054,174.223724 116.574249,172.502899 116.117569,171.859253 
	C113.689072,168.436401 115.805229,166.520264 118.478195,163.759232 
	C118.478195,165.844482 118.478195,167.153946 118.478195,168.629257 
	C119.862221,168.881271 121.116959,169.109741 122.803635,169.416870 
	C121.429642,172.909668 120.150734,176.160782 118.538162,179.595062 
z"/>
<path fill="#162B32" opacity="1.000000" stroke="none" 
	d="
M81.199493,149.614166 
	C72.842445,149.909729 72.842445,149.909729 71.914230,143.471680 
	C74.980865,142.913376 78.062347,142.759750 81.605164,142.628815 
	C81.853142,144.880997 81.639778,147.110519 81.199493,149.614166 
z"/>
<path fill="#1880F3" opacity="1.000000" stroke="none" 
	d="
M196.556732,114.434479 
	C196.786453,116.222115 196.786453,117.881241 196.786453,119.540359 
	C196.356567,119.741852 195.926697,119.943336 195.496811,120.144829 
	C193.219238,118.190079 190.941650,116.235329 188.198944,113.860069 
	C187.512268,111.574913 187.290710,109.710266 187.383759,107.945862 
	C189.472565,109.276596 191.246735,110.507088 193.020905,111.737595 
	C193.446426,112.130066 193.871948,112.522545 194.687454,113.218369 
	C195.382019,113.647972 195.686615,113.774239 195.991196,113.900505 
	C196.103134,114.035660 196.215073,114.170822 196.556732,114.434479 
z"/>
<path fill="#F6FAFA" opacity="1.000000" stroke="none" 
	d="
M184.402802,67.721497 
	C183.115082,67.230316 182.066162,66.490219 180.653854,65.493721 
	C183.017242,63.755329 185.186661,62.159615 187.944504,60.131081 
	C186.364914,59.287918 185.051407,58.586796 183.393677,57.857388 
	C188.159103,55.320797 190.917542,57.733929 192.931763,63.301506 
	C191.176712,63.812683 189.224426,65.093819 187.827682,64.645218 
	C184.550995,63.592834 185.285034,66.110870 184.402802,67.721497 
z"/>
<path fill="#ECF3F4" opacity="1.000000" stroke="none" 
	d="
M179.156006,111.947975 
	C177.465286,109.872147 175.774551,107.796318 174.048523,105.368492 
	C175.567276,105.093445 177.136780,105.060921 178.671295,105.276833 
	C180.350433,105.513077 181.997253,105.978912 183.949066,106.895164 
	C184.515137,107.633820 184.790314,107.821991 185.133881,108.404800 
	C185.009399,110.173836 184.816528,111.548225 184.760437,111.947975 
	C182.506271,111.947975 180.831146,111.947975 179.156006,111.947975 
z"/>
<path fill="#FAFBFB" opacity="1.000000" stroke="none" 
	d="
M95.840950,68.081451 
	C95.878174,73.705444 91.120468,75.707451 87.310127,78.871735 
	C87.190193,77.427971 86.911102,74.745514 87.640816,74.435173 
	C92.023010,72.571541 91.393250,69.879005 88.615479,66.048210 
	C91.566139,66.906990 93.505913,67.471550 95.840950,68.081451 
z"/>
<path fill="#F6FAFA" opacity="1.000000" stroke="none" 
	d="
M200.625931,136.841064 
	C195.354538,135.781586 190.462952,134.627060 185.571365,133.472534 
	C185.491730,132.992584 185.412079,132.512634 185.332443,132.032700 
	C187.522247,131.736771 189.802475,130.913879 191.880310,131.270432 
	C194.875732,131.784424 197.760315,133.068726 200.595276,134.255753 
	C201.007401,134.428314 200.882263,135.884064 200.625931,136.841064 
z"/>
<path fill="#FAFBFB" opacity="1.000000" stroke="none" 
	d="
M40.000008,87.002747 
	C39.250008,87.001877 38.500004,87.001007 37.375000,87.000069 
	C33.200981,85.494484 29.401964,83.988976 25.602947,82.483459 
	C25.774609,81.950203 25.946272,81.416946 26.117935,80.883690 
	C32.508999,82.535805 39.167660,83.245590 44.941795,87.641220 
	C44.557060,88.000298 44.112137,88.000282 43.127865,87.737976 
	C41.725677,87.318039 40.862843,87.160393 40.000008,87.002747 
z"/>
<path fill="#2886E8" opacity="1.000000" stroke="none" 
	d="
M179.437805,112.121376 
	C180.831146,111.947975 182.506271,111.947975 184.760437,111.947975 
	C184.816528,111.548225 185.009399,110.173836 185.236603,108.199837 
	C185.270950,107.600227 185.360840,107.150429 185.360840,107.150429 
	C185.715195,107.136345 186.069550,107.122253 186.721893,107.284904 
	C187.019882,107.461639 187.069138,107.845619 187.069138,107.845619 
	C187.290710,109.710266 187.512268,111.574913 187.886780,113.744446 
	C187.466309,115.672096 186.892899,117.294861 186.005783,119.805466 
	C183.589279,116.918243 181.654449,114.606514 179.437805,112.121376 
z"/>
<path fill="#EDF6F7" opacity="1.000000" stroke="none" 
	d="
M152.780792,58.496059 
	C150.137268,55.942516 147.493729,53.388973 144.678040,50.540512 
	C149.985825,48.068130 152.740707,49.922909 152.743073,56.247211 
	C152.908554,57.403633 152.844681,57.949844 152.780792,58.496059 
z"/>
<path fill="#1B7FE8" opacity="1.000000" stroke="none" 
	d="
M135.805389,45.736229 
	C129.969147,45.968300 123.845131,45.971436 117.245789,45.940445 
	C122.949516,42.484051 129.215424,43.142868 135.805389,45.736229 
z"/>
<path fill="#FAFBFB" opacity="1.000000" stroke="none" 
	d="
M85.719879,79.038467 
	C82.950272,81.607521 79.781319,84.156372 76.298904,86.838501 
	C75.677078,85.878227 75.368721,84.784660 75.030182,83.345551 
	C75.000000,83.000000 75.005066,82.993439 75.005066,82.993439 
	C78.443550,81.668381 81.882042,80.343330 85.719879,79.038467 
z"/>
<path fill="#F0F6F3" opacity="1.000000" stroke="none" 
	d="
M86.206024,180.850266 
	C85.304123,180.241974 84.677460,179.447556 83.939575,178.368378 
	C89.359947,175.387466 84.768295,170.250137 86.451057,166.470795 
	C89.278915,170.460144 89.236206,176.303741 86.206024,180.850266 
z"/>
<path fill="#ECF3F4" opacity="1.000000" stroke="none" 
	d="
M152.882431,58.801231 
	C152.844681,57.949844 152.908554,57.403633 152.988098,56.446144 
	C154.388214,56.313007 155.772705,56.591145 157.157181,56.869282 
	C156.818619,57.357571 156.480042,57.845863 156.141479,58.334156 
	C157.301086,59.713375 158.460693,61.092594 159.745209,63.090191 
	C159.121185,64.179108 158.372223,64.649658 157.623276,65.120209 
	C156.076874,63.115608 154.530472,61.111008 152.882431,58.801231 
z"/>
<path fill="#F6FAFA" opacity="1.000000" stroke="none" 
	d="
M157.695831,65.412247 
	C158.372223,64.649658 159.121185,64.179108 159.931763,63.357632 
	C163.085220,61.006191 166.177063,59.005684 169.634155,57.002289 
	C167.556503,59.538704 165.163086,62.128601 162.644592,64.590591 
	C161.730698,65.483994 160.518112,66.071838 159.122253,66.945374 
	C158.457947,66.629189 158.113174,66.166740 157.695831,65.412247 
z"/>
<path fill="#F5F5F5" opacity="1.000000" stroke="none" 
	d="
M118.029732,190.763748 
	C118.010674,188.099304 118.010674,185.880783 118.010674,183.662262 
	C118.470284,183.652985 118.929901,183.643707 119.389511,183.634445 
	C119.389511,188.992111 119.389511,194.349777 119.389511,199.422684 
	C118.982742,196.930908 118.515762,194.070282 118.029732,190.763748 
z"/>
<path fill="#1A6DD8" opacity="1.000000" stroke="none" 
	d="
M30.013741,129.346771 
	C31.298761,130.122055 32.670372,131.143402 33.705891,132.434341 
	C35.131165,134.211182 36.302303,136.191864 37.977272,138.144760 
	C36.694599,137.977051 35.016972,137.749786 33.092449,137.262970 
	C31.880527,134.573288 30.915503,132.143158 30.013741,129.346771 
z"/>
<path fill="#E7E7E7" opacity="1.000000" stroke="none" 
	d="
M72.106903,59.357166 
	C72.476311,58.467476 73.002617,57.884132 73.783463,57.144188 
	C75.350609,60.394451 76.663216,63.801308 77.653214,67.600586 
	C76.890030,67.989136 76.449455,67.985268 76.008865,67.981407 
	C74.760513,65.208778 73.512161,62.436142 72.106903,59.357166 
z"/>
<path fill="#FAFBFB" opacity="1.000000" stroke="none" 
	d="
M102.958984,58.993046 
	C102.998505,59.317238 102.918823,59.608864 102.097229,59.965744 
	C100.318275,60.044830 99.162041,60.026100 98.005798,60.007370 
	C99.077637,56.795921 100.149467,53.584469 100.988258,51.071281 
	C101.388504,51.672577 102.491020,53.328880 103.964020,55.056366 
	C104.243752,55.546944 104.152985,55.966347 103.679512,56.727249 
	C103.184204,57.710178 103.071594,58.351612 102.958984,58.993046 
z"/>
<path fill="#F8F8F8" opacity="1.000000" stroke="none" 
	d="
M148.014084,169.685501 
	C147.532578,170.981995 147.043961,171.885483 146.555344,172.788971 
	C146.048843,172.729156 145.542358,172.669342 145.035873,172.609512 
	C145.035873,170.028763 145.035873,167.448013 145.063705,164.423340 
	C146.063354,165.750427 147.035156,167.521469 148.014084,169.685501 
z"/>
<path fill="#F8F8F8" opacity="1.000000" stroke="none" 
	d="
M60.289471,44.017433 
	C58.971260,42.228947 57.991665,40.473171 57.010616,38.355942 
	C59.409264,39.761703 61.809364,41.528919 64.209465,43.296139 
	C63.988899,43.696701 63.768333,44.097263 63.547768,44.497826 
	C62.574539,44.348598 61.601315,44.199371 60.289471,44.017433 
z"/>
<path fill="#FAFBFB" opacity="1.000000" stroke="none" 
	d="
M24.783171,108.246582 
	C24.740070,111.906052 22.479347,111.106216 20.673519,110.581512 
	C20.124802,110.422089 19.908276,109.119370 19.539604,108.340294 
	C21.250896,108.185768 22.962191,108.031242 24.783171,108.246582 
z"/>
<path fill="#FCFDFE" opacity="1.000000" stroke="none" 
	d="
M205.995087,76.628403 
	C205.098938,76.861488 204.129776,76.881630 203.317657,76.534447 
	C202.660187,76.253365 202.191650,75.530327 201.319946,75.001205 
	C201.448013,74.113991 201.895432,73.228912 202.342865,72.343826 
	C203.558563,73.648132 204.774261,74.952438 205.995087,76.628403 
z"/>
<path fill="#FAFBFB" opacity="1.000000" stroke="none" 
	d="
M51.824516,65.467682 
	C53.785858,66.932159 55.441368,68.271576 57.096882,69.611000 
	C56.764050,70.060852 56.431213,70.510704 56.098377,70.960548 
	C54.362030,69.741478 52.584400,68.573051 50.944214,67.236015 
	C50.750168,67.077835 51.308907,65.996193 51.824516,65.467682 
z"/>
<path fill="#F6FAFA" opacity="1.000000" stroke="none" 
	d="
M187.383759,107.945862 
	C187.069138,107.845619 187.019882,107.461639 186.988403,107.270615 
	C190.611221,105.856796 192.289734,107.687767 193.016327,111.367348 
	C191.246735,110.507088 189.472565,109.276596 187.383759,107.945862 
z"/>
<path fill="#ECF3F4" opacity="1.000000" stroke="none" 
	d="
M160.646790,48.050152 
	C160.989975,48.169010 160.993454,48.347187 161.001770,48.793381 
	C159.936508,51.075912 158.866409,53.090431 157.796326,55.104950 
	C157.244690,54.770569 156.693054,54.436188 156.141418,54.101807 
	C157.529984,52.104362 158.918549,50.106915 160.646790,48.050152 
z"/>
<path fill="#FEFEFE" opacity="1.000000" stroke="none" 
	d="
M32.188023,89.194366 
	C31.024595,90.265289 30.072952,91.053398 29.121307,91.841507 
	C28.752762,91.618652 28.384216,91.395790 28.015671,91.172935 
	C28.703350,89.862976 29.391027,88.553017 30.078707,87.243065 
	C30.852407,87.799225 31.626108,88.355385 32.188023,89.194366 
z"/>
<path fill="#1A6DD8" opacity="1.000000" stroke="none" 
	d="
M52.927193,146.005630 
	C52.522610,146.258026 52.118031,146.510422 51.507729,146.887024 
	C50.869694,143.911667 49.798283,141.336227 46.053696,140.471405 
	C45.886345,140.126923 46.031769,139.953400 46.380768,140.008606 
	C48.482533,140.711731 50.235298,141.359680 52.013229,142.353226 
	C52.334663,143.801086 52.630928,144.903366 52.927193,146.005630 
z"/>
<path fill="#1A6DD8" opacity="1.000000" stroke="none" 
	d="
M51.771912,149.376556 
	C52.540478,152.418732 53.253441,155.833191 53.932095,159.670441 
	C53.170628,156.645111 52.443470,153.196976 51.771912,149.376556 
z"/>
<path fill="#EDF6F7" opacity="1.000000" stroke="none" 
	d="
M98.011482,60.378464 
	C99.162041,60.026100 100.318275,60.044830 101.907631,60.098457 
	C101.856926,61.084682 101.373108,62.036007 100.558502,63.040413 
	C99.490868,62.312180 98.754013,61.530869 98.011482,60.378464 
z"/>
<path fill="#F4F4F4" opacity="1.000000" stroke="none" 
	d="
M174.306076,167.755768 
	C174.122772,166.800598 174.175934,166.077164 174.229080,165.353745 
	C175.087250,166.151596 175.945435,166.949463 176.803604,167.747314 
	C176.049911,167.827377 175.296219,167.907455 174.306076,167.755768 
z"/>
<path fill="#F6FAFA" opacity="1.000000" stroke="none" 
	d="
M170.001312,54.375458 
	C171.274490,54.837048 172.547150,55.673489 173.819809,56.509926 
	C173.601837,56.896049 173.383850,57.282173 173.165878,57.668297 
	C172.326462,57.463699 171.487045,57.259106 170.323517,57.026947 
	C169.999863,56.249695 170.000336,55.500000 170.001312,54.375458 
z"/>
<path fill="#F6FAFA" opacity="1.000000" stroke="none" 
	d="
M180.024384,71.916122 
	C180.957474,70.956520 182.072922,70.314911 183.493591,69.554237 
	C183.857224,70.004250 183.915619,70.573334 183.991287,71.570511 
	C182.741287,72.077118 181.474014,72.155617 180.024384,71.916122 
z"/>
<path fill="#1A6DD8" opacity="1.000000" stroke="none" 
	d="
M39.392723,138.015503 
	C39.020061,137.832535 39.020706,137.663376 39.352119,137.242020 
	C40.107250,136.963501 40.531609,136.937180 41.306801,136.948547 
	C43.115685,137.975281 44.573727,138.964340 46.031769,139.953400 
	C46.031769,139.953400 45.886345,140.126923 45.813553,140.213699 
	C43.749187,139.543427 41.757610,138.786362 39.392723,138.015503 
z"/>
<path fill="#FCFDFE" opacity="1.000000" stroke="none" 
	d="
M196.643051,77.006691 
	C196.199142,77.751961 195.401947,78.501411 194.302063,79.123749 
	C194.762848,78.334717 195.526306,77.672791 196.643051,77.006691 
z"/>
<path fill="#F6FAFA" opacity="1.000000" stroke="none" 
	d="
M175.702103,49.022095 
	C176.092255,49.844463 176.184769,50.687248 176.277252,51.530033 
	C175.683182,51.126987 175.089127,50.723942 174.247833,50.160408 
	C174.468552,49.680782 174.936508,49.361649 175.702103,49.022095 
z"/>
<path fill="#FAFBFB" opacity="1.000000" stroke="none" 
	d="
M49.338020,89.994598 
	C49.000305,89.999390 49.000107,89.499695 48.999763,89.249847 
	C49.795776,88.854836 50.592133,88.709671 51.388493,88.564507 
	C50.817570,89.039604 50.246651,89.514702 49.338020,89.994598 
z"/>
<path fill="#1B7FE8" opacity="1.000000" stroke="none" 
	d="
M115.719185,46.202560 
	C115.237167,46.790348 114.443436,47.395500 113.304688,47.993294 
	C113.775604,47.397270 114.591537,46.808601 115.719185,46.202560 
z"/>
<path fill="#F8F8F8" opacity="1.000000" stroke="none" 
	d="
M56.966110,37.692657 
	C56.559387,37.993244 56.113335,37.995800 55.332748,37.997353 
	C55.231937,37.478912 55.465656,36.961472 55.699379,36.444031 
	C56.108513,36.760895 56.517647,37.077759 56.966110,37.692657 
z"/>
<path fill="#FAFBFB" opacity="1.000000" stroke="none" 
	d="
M76.043106,68.282959 
	C76.449455,67.985268 76.890030,67.989136 77.660950,67.987335 
	C77.761353,68.505127 77.531410,69.028572 77.301476,69.552017 
	C76.893433,69.229507 76.485382,68.907005 76.043106,68.282959 
z"/>
<path fill="#FAFBFB" opacity="1.000000" stroke="none" 
	d="
M62.605255,74.045227 
	C62.209160,74.286850 61.815086,74.285110 61.423229,74.254799 
	C61.412128,74.253937 61.424587,73.948502 61.426064,73.785088 
	C61.819904,73.789345 62.213749,73.793594 62.605255,74.045227 
z"/>
<path fill="#FCFDFE" opacity="1.000000" stroke="none" 
	d="
M193.000305,73.999847 
	C193.510269,74.302208 194.019913,74.604713 194.529572,74.907227 
	C194.347870,75.116661 194.166183,75.326096 193.984482,75.535530 
	C193.679504,75.213242 193.374542,74.890961 193.034485,74.284492 
	C192.999390,74.000305 193.000000,74.000000 193.000305,73.999847 
z"/>
<path fill="#F6FAFA" opacity="1.000000" stroke="none" 
	d="
M181.069702,59.240746 
	C181.038345,59.815735 180.825409,59.996807 180.336304,60.131023 
	C180.087555,59.681438 180.049332,59.201527 180.005981,58.360794 
	C180.318497,58.307987 180.636139,58.616005 181.069702,59.240746 
z"/>
<path fill="#FAFBFB" opacity="1.000000" stroke="none" 
	d="
M75.682266,87.010574 
	C75.513367,87.304588 75.054916,87.621964 74.302887,87.943497 
	C74.470444,87.643089 74.931572,87.338509 75.682266,87.010574 
z"/>
<path fill="#FAFBFB" opacity="1.000000" stroke="none" 
	d="
M99.132401,65.136765 
	C99.334694,65.121895 99.214622,65.589020 99.088242,65.794403 
	C98.838158,65.786400 98.707367,65.576225 98.606407,65.352585 
	C98.599548,65.337402 98.816986,65.220970 99.132401,65.136765 
z"/>
<path fill="#FAFBFB" opacity="1.000000" stroke="none" 
	d="
M100.051300,64.104408 
	C100.245178,64.206459 100.407265,64.611176 100.283714,65.015640 
	C100.005226,64.812622 100.012367,64.609848 100.051300,64.104408 
z"/>
<path fill="#057CFA" opacity="1.000000" stroke="none" 
	d="
M55.707253,170.349030 
	C55.910461,170.343613 56.087814,170.579208 56.088631,170.915619 
	C55.912090,171.016449 55.681404,170.590042 55.707253,170.349030 
z"/>
<path fill="#FAFBFB" opacity="1.000000" stroke="none" 
	d="
M74.996780,83.002518 
	C74.873711,82.860794 74.753876,82.716560 74.634033,82.572327 
	C74.720589,82.620911 74.807152,82.669495 74.949387,82.855759 
	C75.005066,82.993439 75.000000,83.000000 74.996780,83.002518 
z"/>
<path fill="#FAFBFB" opacity="1.000000" stroke="none" 
	d="
M73.743164,88.104080 
	C73.874252,88.318558 73.705406,88.564438 73.226578,88.827774 
	C73.115707,88.620682 73.291252,88.384102 73.743164,88.104080 
z"/>
<path fill="#FAFBFB" opacity="1.000000" stroke="none" 
	d="
M33.532410,105.550446 
	C33.476997,105.583542 33.587822,105.517342 33.532410,105.550446 
z"/>
<path fill="#F6FAFA" opacity="1.000000" stroke="none" 
	d="
M185.026764,107.101570 
	C185.360840,107.150429 185.270950,107.600227 185.168213,107.805191 
	C184.790314,107.821991 184.515137,107.633820 184.130219,107.217087 
	C184.244553,107.009918 184.468613,107.031311 185.026764,107.101570 
z"/>
<path fill="#F4F4F4" opacity="1.000000" stroke="none" 
	d="
M165.997864,154.001678 
	C165.874969,153.858673 165.754227,153.713974 165.633469,153.569275 
	C165.720688,153.618393 165.807892,153.667526 165.949249,153.856186 
	C166.003387,153.995728 166.000000,154.000000 165.997864,154.001678 
z"/>
<path fill="#F6FAFA" opacity="1.000000" stroke="none" 
	d="
M195.465530,109.448875 
	C195.522095,109.414978 195.408966,109.482773 195.465530,109.448875 
z"/>
<path fill="#F6FAFA" opacity="1.000000" stroke="none" 
	d="
M195.864014,113.690636 
	C195.686615,113.774239 195.382019,113.647972 194.975983,113.286575 
	C195.217514,113.083008 195.504929,113.226112 195.864014,113.690636 
z"/>
<path fill="#F6FAFA" opacity="1.000000" stroke="none" 
	d="
M168.193542,124.928589 
	C168.013611,124.830978 167.995590,124.659332 168.087143,124.253113 
	C168.321747,124.204506 168.466766,124.381462 168.557648,124.582832 
	C168.580215,124.632797 168.427567,124.761848 168.193542,124.928589 
z"/>
<path fill="#0356B8" opacity="1.000000" stroke="none" 
	d="
M110.810646,69.715767 
	C112.315132,62.985855 115.189384,56.975830 121.904243,54.276917 
	C129.443680,51.246578 136.340332,53.603275 142.172256,58.772312 
	C152.820145,68.209900 158.040695,80.608635 161.009247,94.208519 
	C163.424927,105.275505 162.902878,116.136627 160.017578,127.082466 
	C156.601303,140.042709 142.461502,146.234665 132.155151,138.250153 
	C136.978592,129.184097 138.616821,120.070290 138.767761,110.645721 
	C138.854385,110.713463 138.819504,110.926186 139.072449,110.841690 
	C139.539597,110.483398 139.753784,110.209587 140.120728,109.676483 
	C140.870636,108.928314 141.467789,108.439438 142.412308,107.907349 
	C144.155441,106.129402 146.445129,104.551468 146.781952,102.631012 
	C147.858994,96.490303 146.588287,90.524559 141.843323,86.208252 
	C140.402573,84.897652 137.312714,85.399933 134.582520,85.022102 
	C133.128815,84.984680 132.070755,84.997047 130.966843,84.672806 
	C125.593742,77.569763 120.052307,71.097939 110.810646,69.715767 
M150.344971,79.278893 
	C150.709946,78.494476 151.490143,77.643135 151.376129,76.935944 
	C150.143600,69.289772 139.207703,58.175411 131.409470,56.774376 
	C130.357071,56.585297 128.477982,57.371143 127.999268,58.256054 
	C126.133743,61.704411 123.884438,65.269936 123.392738,69.004494 
	C123.133240,70.975372 126.209320,73.380875 127.765976,75.599564 
	C128.050171,76.004616 128.228577,76.486092 128.525620,76.879585 
	C130.621063,79.655396 133.074219,81.578026 136.902084,81.037361 
	C141.131836,80.439934 145.395630,80.083572 150.344971,79.278893 
M160.402847,111.592186 
	C155.248795,112.166611 149.885712,112.099068 145.056595,113.671440 
	C143.415848,114.205666 143.117081,118.873405 142.216034,121.655861 
	C142.062836,122.128906 142.004135,122.633987 141.835968,123.100548 
	C138.411240,132.601730 138.984558,133.349762 148.841568,131.955917 
	C153.138718,131.348267 156.111130,129.338593 157.101212,124.699501 
	C157.993103,120.520660 159.421310,116.456276 160.402847,111.592186 
z"/>
<path fill="#033A82" opacity="1.000000" stroke="none" 
	d="
M138.681152,110.577972 
	C138.616821,120.070290 136.978592,129.184097 132.075851,137.906067 
	C128.150253,135.086868 124.095634,132.149216 120.636826,128.626526 
	C118.622757,126.575256 117.563332,123.586655 116.367859,120.570312 
	C119.101318,119.080330 121.541290,118.039833 124.301453,116.845078 
	C129.308136,114.653206 133.994644,112.615593 138.681152,110.577972 
z"/>
<path fill="#033A83" opacity="1.000000" stroke="none" 
	d="
M110.557220,70.002045 
	C120.052307,71.097939 125.593742,77.569763 130.582047,84.794670 
	C124.858994,85.910576 119.474899,86.567993 113.727951,87.171776 
	C111.581940,87.744713 109.798790,88.371292 108.015640,88.997864 
	C108.778358,82.761353 109.541069,76.524841 110.557220,70.002045 
z"/>
<path fill="#8196B9" opacity="1.000000" stroke="none" 
	d="
M107.970718,89.450401 
	C109.798790,88.371292 111.581940,87.744713 113.737793,87.584435 
	C115.061684,93.532135 115.423149,99.207687 117.144325,104.435593 
	C118.611137,108.890900 121.642204,112.831200 123.981262,116.999329 
	C121.541290,118.039833 119.101318,119.080330 116.285660,120.243370 
	C110.812126,110.850166 107.872314,100.768822 107.970718,89.450401 
z"/>
<path fill="#F6FAFA" opacity="1.000000" stroke="none" 
	d="
M171.999084,71.000877 
	C170.813751,73.558121 169.435791,76.046379 168.504883,78.691948 
	C167.730988,80.891319 167.482727,83.275642 166.937622,85.971222 
	C164.915985,81.493744 162.958344,76.623077 160.991547,71.385269 
	C165.157455,74.498604 167.392410,71.724953 169.763107,68.508301 
	C170.715576,69.416985 171.358276,70.207726 172.000977,70.998474 
	C172.000977,70.998474 172.000000,71.000000 171.999084,71.000877 
z"/>
<path fill="#EDF6F7" opacity="1.000000" stroke="none" 
	d="
M103.194550,58.814392 
	C103.071594,58.351612 103.184204,57.710178 103.576355,57.032104 
	C103.713966,57.542225 103.572037,58.088978 103.194550,58.814392 
z"/>
<path fill="#D2E4FE" opacity="1.000000" stroke="none" 
	d="
M52.970322,103.420959 
	C58.869965,99.999954 64.917236,97.324394 70.488770,93.879425 
	C78.580116,88.876381 86.328163,83.318138 94.429810,77.857018 
	C94.526962,78.264267 94.766205,79.267174 95.009460,80.636383 
	C94.795944,86.196724 94.100967,91.429695 94.520142,96.571838 
	C94.825592,100.318741 97.020538,103.889565 97.524963,107.652573 
	C97.742767,109.277328 96.234528,112.217400 94.799721,112.795174 
	C87.991356,115.536812 80.985657,117.827110 73.954147,119.961563 
	C69.640961,121.270866 65.195885,122.539871 60.736797,122.887466 
	C52.870148,123.500710 51.668270,122.345146 51.476799,114.537209 
	C51.389557,110.979469 52.395321,107.394920 52.970322,103.420959 
z"/>
<path fill="#0A7DF8" opacity="1.000000" stroke="none" 
	d="
M46.380768,140.008606 
	C44.573727,138.964340 43.115685,137.975281 41.282310,136.581039 
	C39.295956,130.443451 37.684933,124.711052 36.073914,118.978661 
	C36.954098,112.273445 40.728039,107.645882 46.757027,104.234947 
	C47.650307,104.847443 48.912983,105.745255 48.833141,106.501297 
	C47.662270,117.588631 50.193470,127.774269 55.751434,137.773209 
	C56.055901,138.868927 56.527386,139.439041 56.998875,140.009155 
	C56.998875,140.009155 57.169273,140.347031 56.932117,140.859116 
	C55.125996,141.583344 53.557026,141.795486 51.988060,142.007629 
	C50.235298,141.359680 48.482533,140.711731 46.380768,140.008606 
M50.482197,136.592834 
	C50.482197,136.592834 50.412518,136.477539 50.482197,136.592834 
z"/>
<path fill="#0457BC" opacity="1.000000" stroke="none" 
	d="
M52.013229,142.353226 
	C53.557026,141.795486 55.125996,141.583344 56.927605,141.048279 
	C60.841595,141.140854 64.522942,141.556351 68.602325,142.036133 
	C69.000847,143.124100 69.001328,144.147812 69.002792,145.553436 
	C63.961678,145.956726 58.919575,145.978073 53.402328,146.002533 
	C52.630928,144.903366 52.334663,143.801086 52.013229,142.353226 
z"/>
<path fill="#0578F2" opacity="1.000000" stroke="none" 
	d="
M57.043835,139.691833 
	C56.527386,139.439041 56.055901,138.868927 55.819626,138.126923 
	C56.399487,138.428177 56.744141,138.901337 57.043835,139.691833 
z"/>
<path fill="#FEFEFE" opacity="1.000000" stroke="none" 
	d="
M181.606415,94.055954 
	C182.129349,94.026970 182.305817,94.038109 182.739136,94.115395 
	C182.922424,98.116684 180.283829,97.792480 177.152603,96.819862 
	C178.521729,95.911934 179.890839,95.004005 181.606415,94.055954 
z"/>
<path fill="#4696FB" opacity="1.000000" stroke="none" 
	d="
M69.960907,178.040329 
	C69.047806,179.046951 68.020607,180.981979 67.242966,180.886398 
	C64.894531,180.597794 61.543453,180.177246 60.602692,178.602036 
	C59.060265,176.019424 59.108097,172.487076 58.753979,169.085907 
	C60.077049,168.840927 61.131405,168.865280 62.919365,168.907059 
	C64.108452,168.909744 64.563934,168.894989 65.019424,168.880249 
	C65.443047,168.924347 65.866676,168.968445 66.737305,169.237305 
	C67.392723,169.735214 67.660477,169.924377 67.987579,170.029541 
	C68.029572,170.764984 68.071564,171.500427 68.087631,172.955048 
	C67.671547,174.999100 67.281395,176.323959 66.829277,177.859222 
	C68.014000,177.927734 68.987450,177.984039 69.960907,178.040329 
z"/>
<path fill="#147FF3" opacity="1.000000" stroke="none" 
	d="
M69.975250,178.025269 
	C68.987450,177.984039 68.014000,177.927734 66.829277,177.859222 
	C67.281395,176.323959 67.671547,174.999100 68.127457,173.321259 
	C68.380325,172.993439 68.567429,173.018616 69.034622,173.103668 
	C69.260452,173.520279 69.206192,173.876968 69.106300,174.850800 
	C69.378998,176.304840 69.697342,177.141739 70.015678,177.978653 
	C70.015678,177.978653 69.989609,178.010193 69.975250,178.025269 
z"/>
<path fill="#147FF3" opacity="1.000000" stroke="none" 
	d="
M64.970322,168.600403 
	C64.563934,168.894989 64.108452,168.909744 63.314060,168.874390 
	C63.310169,168.356140 63.645187,167.888016 63.980202,167.419876 
	C64.293869,167.720108 64.607544,168.020340 64.970322,168.600403 
z"/>
<path fill="#147FF3" opacity="1.000000" stroke="none" 
	d="
M67.881439,169.798035 
	C67.660477,169.924377 67.392723,169.735214 67.056595,169.248032 
	C67.211021,169.211517 67.493156,169.389023 67.881439,169.798035 
z"/>
<path fill="#0A60C5" opacity="1.000000" stroke="none" 
	d="
M35.772858,119.038757 
	C37.684933,124.711052 39.295956,130.443451 40.931473,136.543350 
	C40.531609,136.937180 40.107250,136.963501 39.364475,136.988602 
	C37.424877,131.508667 35.803699,126.029930 34.028019,120.189926 
	C34.406277,119.585396 34.939037,119.342125 35.772858,119.038757 
z"/>
<path fill="#FCFDFE" opacity="1.000000" stroke="none" 
	d="
M172.304962,70.962921 
	C171.358276,70.207726 170.715576,69.416985 170.036133,68.313431 
	C170.747971,68.000206 171.496536,67.999794 172.619202,67.999237 
	C172.865173,68.975174 172.737061,69.951271 172.304962,70.962921 
z"/>
<path fill="#057CFA" opacity="1.000000" stroke="none" 
	d="
M70.296341,177.975800 
	C69.697342,177.141739 69.378998,176.304840 69.074226,175.120819 
	C69.750458,175.593674 70.413124,176.413651 71.106590,177.586761 
	C70.950607,177.950928 70.763809,177.961945 70.296341,177.975800 
z"/>
<path fill="#FEFEFE" opacity="1.000000" stroke="none" 
	d="
M57.000362,95.378143 
	C58.108742,95.005959 59.217022,95.012825 60.745945,95.042297 
	C60.011311,96.025208 58.856041,96.985519 57.357079,97.990013 
	C57.009018,97.275200 57.004642,96.516197 57.000362,95.378143 
z"/>
<path fill="#FEFEFE" opacity="1.000000" stroke="none" 
	d="
M197.739685,87.028656 
	C197.724380,87.192917 197.468933,87.306473 197.122223,87.272072 
	C197.030960,87.124107 197.499557,86.977943 197.739685,87.028656 
z"/>
<path fill="#FEFEFE" opacity="1.000000" stroke="none" 
	d="
M40.044701,87.326881 
	C40.862843,87.160393 41.725677,87.318039 42.794189,87.737991 
	C42.029709,87.883873 41.059547,87.767441 40.044701,87.326881 
z"/>
<path fill="#F6FAFA" opacity="1.000000" stroke="none" 
	d="
M173.276764,80.398941 
	C173.150040,80.558853 172.930939,80.581932 172.711823,80.605019 
	C172.869339,80.490715 173.026855,80.376404 173.276764,80.398941 
z"/>
<path fill="#BCD6FC" opacity="1.000000" stroke="none" 
	d="
M124.301453,116.845078 
	C121.642204,112.831200 118.611137,108.890900 117.144325,104.435593 
	C115.423149,99.207687 115.061684,93.532135 114.100647,87.638069 
	C119.474899,86.567993 124.858994,85.910576 130.627884,85.131287 
	C132.070755,84.997047 133.128815,84.984680 134.549347,85.405678 
	C130.321625,94.177223 133.812332,104.967560 142.064941,107.950562 
	C141.467789,108.439438 140.870636,108.928314 139.829865,109.727493 
	C139.197327,110.333931 139.008408,110.630058 138.819504,110.926186 
	C138.819504,110.926186 138.854385,110.713463 138.767761,110.645721 
	C133.994644,112.615593 129.308136,114.653206 124.301453,116.845078 
z"/>
<path fill="#2366BE" opacity="1.000000" stroke="none" 
	d="
M149.994781,79.450562 
	C145.395630,80.083572 141.131836,80.439934 136.902084,81.037361 
	C133.074219,81.578026 130.621063,79.655396 128.525620,76.879585 
	C128.228577,76.486092 128.050171,76.004616 127.765976,75.599564 
	C126.209320,73.380875 123.133240,70.975372 123.392738,69.004494 
	C123.884438,65.269936 126.133743,61.704411 127.999268,58.256054 
	C128.477982,57.371143 130.357071,56.585297 131.409470,56.774376 
	C139.207703,58.175411 150.143600,69.289772 151.376129,76.935944 
	C151.490143,77.643135 150.709946,78.494476 149.994781,79.450562 
z"/>
<path fill="#2266BE" opacity="1.000000" stroke="none" 
	d="
M160.507904,111.966797 
	C159.421310,116.456276 157.993103,120.520660 157.101212,124.699501 
	C156.111130,129.338593 153.138718,131.348267 148.841568,131.955917 
	C138.984558,133.349762 138.411240,132.601730 141.835968,123.100548 
	C142.004135,122.633987 142.062836,122.128906 142.216034,121.655861 
	C143.117081,118.873405 143.415848,114.205666 145.056595,113.671440 
	C149.885712,112.099068 155.248795,112.166611 160.507904,111.966797 
z"/>
<path fill="#067CF9" opacity="1.000000" stroke="none" 
	d="
M142.412308,107.907341 
	C133.812332,104.967560 130.321625,94.177223 134.944992,85.455467 
	C137.312714,85.399933 140.402573,84.897652 141.843323,86.208252 
	C146.588287,90.524559 147.858994,96.490303 146.781952,102.631012 
	C146.445129,104.551468 144.155441,106.129402 142.412308,107.907341 
z"/>
<path fill="#033A82" opacity="1.000000" stroke="none" 
	d="
M139.072449,110.841690 
	C139.008408,110.630058 139.197327,110.333931 139.677109,109.986786 
	C139.753784,110.209587 139.539597,110.483398 139.072449,110.841690 
z"/>
<path fill="#0578F2" opacity="1.000000" stroke="none" 
	d="
M50.447357,136.535187 
	C50.412518,136.477539 50.482197,136.592834 50.447357,136.535187 
z"/>
</svg>