<?xml version="1.0" encoding="UTF-8"?>
<svg version="1.1" xmlns="http://www.w3.org/2000/svg" width="225" height="225">
<path d="M0 0 C74.25 0 148.5 0 225 0 C225 74.25 225 148.5 225 225 C150.75 225 76.5 225 0 225 C0 150.75 0 76.5 0 0 Z " fill="#000000" transform="translate(0,0)"/>
<path d="M0 0 C10.23 0 20.46 0 31 0 C32.68673145 4.66914377 34.37337154 9.33832038 36.05981445 14.00756836 C36.62877745 15.5827808 37.1977851 17.15797712 37.7668457 18.7331543 C42.85527852 32.81826317 47.9273103 46.90919528 53 61 C53.33 40.87 53.66 20.74 54 0 C64.23 0 74.46 0 85 0 C85 50.49 85 100.98 85 153 C79.72 152.67 74.44 152.34 69 152 C67.329375 151.89558594 65.65875 151.79117188 63.9375 151.68359375 C60.29166667 151.45572917 56.64583333 151.22786458 53 151 C52.35998047 149.15341797 52.35998047 149.15341797 51.70703125 147.26953125 C45.19138871 128.49428667 38.5949192 109.74750725 32 91 C31.9845388 92.10540382 31.9845388 92.10540382 31.96876526 93.23313904 C31.87095357 100.16421076 31.76846284 107.09519902 31.66066074 114.02612209 C31.60539973 117.58972968 31.55197482 121.15334543 31.50268555 124.71704102 C31.44599468 128.81015245 31.38142682 132.9031061 31.31640625 136.99609375 C31.29133751 138.92418129 31.29133751 138.92418129 31.26576233 140.89122009 C31.24581711 142.07236893 31.22587189 143.25351776 31.20532227 144.47045898 C31.18977798 145.51636703 31.1742337 146.56227509 31.15821838 147.63987732 C31 150 31 150 30 151 C20.1 151.66 10.2 152.32 0 153 C0 102.51 0 52.02 0 0 Z " fill="#E30813" transform="translate(70,36)"/>
<path d="M0 0 C10.23 0 20.46 0 31 0 C31 50.49 31 100.98 31 153 C28.83519208 149.75278812 27.61089219 146.49500998 26.3125 142.8515625 C26.05385162 142.1353624 25.79520325 141.41916229 25.52871704 140.68125916 C24.68145345 138.33071419 23.84046753 135.97798276 23 133.625 C22.41335593 131.99076554 21.82660361 130.35656993 21.23974609 128.72241211 C11.45071503 101.41146934 11.45071503 101.41146934 7.3059082 88.74145508 C6.3392282 85.97189608 5.30622474 83.34342036 4.15307617 80.6550293 C-2.26008995 64.92720422 -1.65532337 49.51996651 -1.01708984 32.89007568 C-0.88262963 29.1690131 -0.79166592 25.44686795 -0.69726562 21.72460938 C-0.51048529 14.48034422 -0.25389407 7.24344852 0 0 Z " fill="#AA050E" transform="translate(124,36)"/>
<path d="M0 0 C2.13680753 3.2052113 3.18008524 6.06030645 4.44140625 9.69921875 C4.68127762 10.38385193 4.92114899 11.06848511 5.16828918 11.77386475 C6.55251332 15.73274743 7.90696076 19.70121752 9.25048828 23.67407227 C12.07501199 31.96821789 14.99054562 40.14656834 18.47877502 48.18829346 C32.957831 81.63185443 35.56906393 113.94848464 31 150 C23.65909482 157.34090518 10.35861405 152.30942573 0 153 C0 102.51 0 52.02 0 0 Z " fill="#B0050E" transform="translate(70,36)"/>
<path d="M0 0 C2.13680753 3.2052113 3.18008524 6.06030645 4.44140625 9.69921875 C4.68127762 10.38385193 4.92114899 11.06848511 5.16828918 11.77386475 C6.55251332 15.73274743 7.90696076 19.70121752 9.25048828 23.67407227 C12.07501058 31.96821375 14.99050779 40.14657885 18.47879028 48.1882782 C33.46123601 82.79519529 33.77388172 113.02750425 31 150 C30.67 150 30.34 150 30 150 C30 131.19 30 112.38 30 93 C29.34 93 28.68 93 28 93 C27.74605469 92.14277344 27.49210937 91.28554687 27.23046875 90.40234375 C25.07096056 83.04976138 25.07096056 83.04976138 22.25 75.9375 C21 73 21 73 21 69 C20.34 69 19.68 69 19 69 C16.90070589 62.98983817 14.93543516 57.00343415 13.4375 50.8125 C10.86960034 40.22674344 6.85573513 30.16965738 3 20 C2.67 20 2.34 20 2 20 C1.67 63.56 1.34 107.12 1 152 C2.32 152.33 3.64 152.66 5 153 C3.35 153 1.7 153 0 153 C0 102.51 0 52.02 0 0 Z " fill="#81040A" transform="translate(70,36)"/>
<path d="M0 0 C2.80894178 3.29373119 4.01798538 6.49982666 5.33984375 10.6015625 C5.54807266 11.23806732 5.75630157 11.87457214 5.97084045 12.53036499 C6.63359867 14.55965209 7.2861642 16.59202086 7.9375 18.625 C8.79633845 21.28531229 9.65975861 23.94409005 10.52734375 26.6015625 C10.73755157 27.24609375 10.9477594 27.890625 11.16433716 28.5546875 C12.64792072 33.05474417 14.30859127 37.4483181 16.11352539 41.82763672 C17.44819894 45.09834045 18.60743004 48.40692493 19.75 51.75 C20.17796875 52.98234375 20.6059375 54.2146875 21.046875 55.484375 C21.95867654 58.84757738 22.19109311 61.53909142 22 65 C22.66 65 23.32 65 24 65 C24.84479453 67.37145894 25.67593283 69.74634124 26.5 72.125 C26.73847656 72.79015625 26.97695312 73.4553125 27.22265625 74.140625 C28.62708806 78.23354055 29.27343814 81.61131792 29 86 C26.6909683 83.6909683 26.20925648 82.12545392 25.1796875 79.04296875 C24.81681641 77.97127441 24.45394531 76.89958008 24.08007812 75.79541016 C23.68240234 74.6047998 23.28472656 73.41418945 22.875 72.1875 C21.98928035 69.57340628 21.1017579 66.96000874 20.2109375 64.34765625 C19.96772766 63.63349548 19.72451782 62.91933472 19.47393799 62.18353271 C15.57657614 50.78338899 11.48333233 39.45078041 7.41937256 28.10922241 C6.39240022 25.24271357 5.3679711 22.37530529 4.34375 19.5078125 C4.03579498 18.6515477 3.72783997 17.7952829 3.41055298 16.91307068 C-1.26763674 3.80291023 -1.26763674 3.80291023 0 0 Z " fill="#9E050D" transform="translate(125,100)"/>
<path d="M0 0 C0.33 0 0.66 0 1 0 C1 5.61 1 11.22 1 17 C-5.27 17 -11.54 17 -18 17 C-18 16.67 -18 16.34 -18 16 C-17.34773437 15.86464844 -16.69546875 15.72929687 -16.0234375 15.58984375 C-10.26316064 14.17101449 -6.72235152 12.6380797 -3.1171875 7.8515625 C-1.60319364 5.3423559 -0.69263193 2.8397909 0 0 Z " fill="#F1F1F1" transform="translate(224,208)"/>
<path d="M0 0 C2 3 2 3 3.25 5.875 C5.95093297 10.6980946 9.24249246 13.31652485 14.375 15.3125 C15.24125 15.539375 16.1075 15.76625 17 16 C17 16.33 17 16.66 17 17 C11.39 17 5.78 17 0 17 C0 11.39 0 5.78 0 0 Z " fill="#F6F6F6" transform="translate(0,208)"/>
<path d="M0 0 C5.61 0 11.22 0 17 0 C17 5.61 17 11.22 17 17 C16.34 15.68 15.68 14.36 15 13 C11.06724372 6.4906103 7.38507739 3.06095183 0 1 C0 0.67 0 0.34 0 0 Z " fill="#F5F5F5" transform="translate(208,0)"/>
<path d="M0 0 C5.28 0 10.56 0 16 0 C14.04297985 1.3046801 12.06417543 2.57742367 10.0625 3.8125 C5.39579391 7.1458615 2.8547982 10.59017191 1 16 C0.67 16 0.34 16 0 16 C0 10.72 0 5.44 0 0 Z " fill="#F9F9F9" transform="translate(0,0)"/>
<path d="M0 0 C2.37616467 2.37616467 3.04068181 4.35349521 4.1875 7.5 C4.55230469 8.4796875 4.91710937 9.459375 5.29296875 10.46875 C6 13 6 13 5 15 C1.8833769 12.45003564 0.98307948 9.85669643 0 6 C-0.125 2.625 -0.125 2.625 0 0 Z " fill="#88040B" transform="translate(95,108)"/>
</svg>
