<?xml version="1.0" encoding="UTF-8"?>
<svg version="1.1" xmlns="http://www.w3.org/2000/svg" width="225" height="225">
<path d="M0 0 C74.25 0 148.5 0 225 0 C225 74.25 225 148.5 225 225 C150.75 225 76.5 225 0 225 C0 150.75 0 76.5 0 0 Z " fill="#FCFCFC" transform="translate(0,0)"/>
<path d="M0 0 C8.29223992 -0.59766544 13.04978954 2.71833006 19.59033203 7.50097656 C21.68305916 8.96728125 23.77682793 10.4321003 25.87158203 11.89550781 C26.91443359 12.63494629 27.95728516 13.37438477 29.03173828 14.13623047 C34.63061673 18.04195622 40.40821564 21.67027754 46.17211914 25.32592773 C46.94821533 25.82455322 47.72431152 26.32317871 48.52392578 26.83691406 C49.54377563 27.48539307 49.54377563 27.48539307 50.58422852 28.14697266 C52.15283203 29.31347656 52.15283203 29.31347656 53.15283203 31.31347656 C53.25261924 33.1184504 53.28792089 34.92712587 53.29327393 36.73484802 C53.29898407 37.88600098 53.30469421 39.03715393 53.31057739 40.22319031 C53.31225418 42.12691154 53.31225418 42.12691154 53.31396484 44.0690918 C53.31859225 45.41425717 53.32361681 46.75942122 53.32901001 48.10458374 C53.34214193 51.76364045 53.3485803 55.4226788 53.35302067 59.0817554 C53.35594962 61.3662896 53.36005405 63.65081875 53.36452484 65.93535042 C53.37820076 73.07887895 53.38786742 80.22239598 53.39172673 87.3659367 C53.39621037 95.62030266 53.4137719 103.87450326 53.44272733 112.12881893 C53.46431786 118.50422839 53.47442957 124.87959124 53.47576785 131.25503689 C53.47681761 135.06528102 53.48276166 138.87536974 53.50058746 142.68557549 C53.51702331 146.26838077 53.51924577 149.85091306 53.51044846 153.43374252 C53.50930662 155.37859321 53.52305794 157.32343466 53.53720093 159.26823425 C53.5288472 160.99919342 53.5288472 160.99919342 53.52032471 162.76512146 C53.52179127 163.77004355 53.52325783 164.77496565 53.52476883 165.81033993 C53.15283203 168.31347656 53.15283203 168.31347656 51.84217453 170.12373447 C49.03252562 172.10246736 45.81892458 171.99339718 42.48876953 172.19238281 C41.71614777 172.2493483 40.943526 172.30631378 40.14749146 172.36500549 C37.60834983 172.54866463 35.06834371 172.71246124 32.52783203 172.87597656 C30.77189653 172.99908175 29.01603723 173.12327826 27.26025391 173.24853516 C14.35599436 174.1556794 1.44196657 174.95610597 -11.47460938 175.66723633 C-12.74224121 175.73869873 -14.00987305 175.81016113 -15.31591797 175.88378906 C-16.41355469 175.94324707 -17.51119141 176.00270508 -18.64208984 176.06396484 C-20.91219182 176.24068972 -23.17624687 176.50502695 -25.42993164 176.82983398 C-30.18790648 177.50323172 -34.86217872 177.49766567 -39.65966797 177.50097656 C-40.61292969 177.51322266 -41.56619141 177.52546875 -42.54833984 177.53808594 C-43.45777344 177.54001953 -44.36720703 177.54195312 -45.30419922 177.54394531 C-46.54133667 177.55010864 -46.54133667 177.55010864 -47.8034668 177.55639648 C-49.84716797 177.31347656 -49.84716797 177.31347656 -51.84716797 175.31347656 C-52.10164356 173.40470219 -52.10164356 173.40470219 -52.10786438 171.03102112 C-52.11494919 170.13229279 -52.122034 169.23356445 -52.1293335 168.30760193 C-52.12685608 167.31897659 -52.12437866 166.33035126 -52.12182617 165.31176758 C-52.1269371 164.27266235 -52.13204803 163.23355713 -52.13731384 162.16296387 C-52.15125946 158.71437891 -52.15024933 155.26599268 -52.14794922 151.81738281 C-52.15183342 149.42846095 -52.15616751 147.03953977 -52.16093445 144.65061951 C-52.16840737 139.63774377 -52.16809762 134.62493845 -52.1628418 129.61206055 C-52.15704585 123.17774499 -52.17397626 116.74371716 -52.19718647 110.3094492 C-52.21189501 105.37418422 -52.21279943 100.43898899 -52.20967674 95.50370598 C-52.21019141 93.13096484 -52.21545617 90.75821994 -52.22548866 88.38549995 C-52.23777983 85.07166803 -52.2311052 81.75840246 -52.21948242 78.44458008 C-52.23094803 76.96467842 -52.23094803 76.96467842 -52.24264526 75.45487976 C-52.23563095 74.5533316 -52.22861664 73.65178345 -52.22138977 72.72291565 C-52.22155751 71.93922387 -52.22172525 71.15553209 -52.22189808 70.34809208 C-51.74498983 67.75869537 -50.94325886 66.87079333 -48.84716797 65.31347656 C-45.71044922 65.02050781 -45.71044922 65.02050781 -42.15966797 65.12597656 C-40.39042969 65.16658203 -40.39042969 65.16658203 -38.58544922 65.20800781 C-37.68181641 65.2428125 -36.77818359 65.27761719 -35.84716797 65.31347656 C-35.46608887 65.97541016 -35.08500977 66.63734375 -34.69238281 67.31933594 C-26.03525819 82.35226343 -17.35433786 97.37066757 -8.58642578 112.33935547 C-6.7695838 115.44614505 -4.96071276 118.55750122 -3.15185547 121.66894531 C-1.96726732 123.69646886 -0.78238246 125.72381909 0.40283203 127.75097656 C1.22678467 129.17361816 1.22678467 129.17361816 2.06738281 130.625 C2.5751123 131.4902832 3.0828418 132.35556641 3.60595703 133.24707031 C4.05100586 134.01075928 4.49605469 134.77444824 4.95458984 135.5612793 C6.0467642 137.46288303 6.0467642 137.46288303 8.15283203 138.31347656 C8.14839081 137.39084015 8.14394958 136.46820374 8.13937378 135.51760864 C8.0993509 126.83571753 8.06887509 118.15385726 8.04920769 109.47189522 C8.03875669 105.00807902 8.02457359 100.54433884 8.00195312 96.08056641 C7.98027152 91.77526982 7.96827333 87.47004651 7.96307755 83.16469955 C7.95937334 81.51959962 7.95214026 79.87450383 7.94137192 78.22943497 C7.92691904 75.93069952 7.92485146 73.63226943 7.92578125 71.33349609 C7.92134003 70.02333527 7.9168988 68.71317444 7.912323 67.36331177 C8.15283203 64.31347656 8.15283203 64.31347656 10.15283203 62.31347656 C13.44997996 62.64319136 14.77551593 62.93616046 17.15283203 65.31347656 C17.36156513 67.82636054 17.44649557 70.23001383 17.44335938 72.74487305 C17.4500766 73.5108783 17.45679382 74.27688354 17.4637146 75.06610107 C17.48275805 77.60565627 17.48662188 80.14494811 17.48876953 82.68457031 C17.49519282 84.44572561 17.50192082 86.20687982 17.50894165 87.96803284 C17.52093013 91.66271439 17.52462084 95.35730232 17.5234375 99.05200195 C17.52323417 103.79149616 17.55054385 108.5303917 17.58498192 113.26974392 C17.60719486 116.90797189 17.61127678 120.54605448 17.61021805 124.18434334 C17.61258219 125.93189623 17.62145122 127.67945265 17.63688278 129.42693901 C17.65643125 131.86928379 17.65074978 134.3103207 17.63867188 136.75268555 C17.64991089 137.47746597 17.6611499 138.2022464 17.67272949 138.94898987 C17.63203805 142.17924571 17.57740344 143.86766713 15.30215454 146.25672913 C12.48585322 147.64140694 10.28488782 147.782156 7.15283203 147.81347656 C5.60595703 147.85988281 5.60595703 147.85988281 4.02783203 147.90722656 C0.14493709 147.10532435 -0.55856826 145.49087957 -2.84716797 142.31347656 C-4.00709181 140.43719344 -5.12622 138.53527543 -6.21044922 136.61425781 C-6.84281494 135.49986328 -7.47518066 134.38546875 -8.12670898 133.23730469 C-8.45792755 132.64892822 -8.78914612 132.06055176 -9.13040161 131.4543457 C-10.5352335 128.95882911 -11.94958555 126.46875228 -13.36326599 123.97824097 C-14.09551096 122.68793885 -14.82724673 121.39734763 -15.55848694 120.10647583 C-19.30815946 113.48906497 -23.10495951 106.89938488 -26.90966797 100.31347656 C-27.50368408 99.28391846 -28.0977002 98.25436035 -28.7097168 97.19360352 C-29.28230225 96.20191162 -29.8548877 95.21021973 -30.44482422 94.18847656 C-30.99799316 93.22941406 -31.55116211 92.27035156 -32.12109375 91.28222656 C-33.34818216 89.17170393 -34.58743893 87.0682357 -35.83496094 84.96972656 C-36.4770752 83.88691406 -37.11918945 82.80410156 -37.78076172 81.68847656 C-38.36784912 80.70621094 -38.95493652 79.72394531 -39.55981445 78.71191406 C-40.84716797 76.31347656 -40.84716797 76.31347656 -40.84716797 74.31347656 C-41.50716797 74.31347656 -42.16716797 74.31347656 -42.84716797 74.31347656 C-42.84716797 105.33347656 -42.84716797 136.35347656 -42.84716797 168.31347656 C-33.93716797 167.32347656 -33.93716797 167.32347656 -24.84716797 166.31347656 C-19.65141426 165.91961613 -14.46528105 165.55393459 -9.26513672 165.24316406 C-7.86792427 165.1566815 -6.47073332 165.06985094 -5.07356262 164.98269653 C-2.18925395 164.80365689 0.69520573 164.62742661 3.57983398 164.45361328 C7.26718726 164.23138555 10.95418774 164.00383026 14.64110279 163.77445793 C17.50721541 163.59638224 20.37343238 163.42003997 23.23969078 163.24432755 C24.60041817 163.16089634 25.96112741 163.07716866 27.3218174 162.99312973 C29.21306325 162.87678727 31.10445392 162.76280626 32.99584961 162.64892578 C34.06740799 162.58389862 35.13896637 162.51887146 36.24299622 162.45187378 C38.88617228 162.3261594 41.50744598 162.30360564 44.15283203 162.31347656 C44.60815569 146.03136064 44.91727585 129.75382922 45.0569849 113.46623993 C45.12520694 105.90137626 45.23949103 98.34267685 45.46606445 90.78076172 C45.66366613 84.18174129 45.77093333 77.58815537 45.77407736 70.98607779 C45.77878512 67.49361296 45.82568501 64.01431011 45.98127937 60.52503967 C46.93653483 45.54769134 46.93653483 45.54769134 40.68842697 32.59646606 C34.62991804 27.66093417 28.07618772 24.15814688 21.04717827 20.78633118 C16.27398712 18.35738314 12.41698506 15.10763586 8.28955078 11.71972656 C0.47798718 8.21765571 -10.04180691 10.45735543 -18.38232422 11.30175781 C-19.98074913 11.45626404 -19.98074913 11.45626404 -21.61146545 11.6138916 C-23.8773824 11.83340304 -26.14306094 12.0553877 -28.4085083 12.2796936 C-34.3334916 12.86570537 -40.26042173 13.43148842 -46.18701172 14.00097656 C-47.35993774 14.11423782 -48.53286377 14.22749908 -49.74133301 14.3441925 C-59.08791921 15.24577419 -68.43643272 16.12013627 -77.79098511 16.93515015 C-79.22256859 17.06039592 -80.65399336 17.18747191 -82.0852356 17.31655884 C-84.04972607 17.49348673 -86.01484558 17.66338721 -87.97998047 17.83300781 C-89.05135254 17.92686768 -90.12272461 18.02072754 -91.2265625 18.11743164 C-94.3562022 18.28689224 -97.44075635 18.3330078 -100.57345581 18.32572937 C-101.561723 18.32396037 -102.5499902 18.32219137 -103.56820488 18.32036877 C-104.69629161 18.31695713 -104.69629161 18.31695713 -105.84716797 18.31347656 C-105.92698539 33.52617415 -105.95503685 48.73836682 -105.92232609 63.95122337 C-105.90832827 71.01577875 -105.91094282 78.07958248 -105.95336914 85.14404297 C-105.99428879 91.96553709 -105.98798198 98.78570464 -105.95324516 105.60722733 C-105.94765879 108.20585138 -105.95773252 110.80455914 -105.9839344 113.4030571 C-106.87162497 129.16858228 -106.87162497 129.16858228 -100.45214844 142.78076172 C-98.9538799 144.00471895 -97.42255356 145.19051612 -95.84716797 146.31347656 C-94.30569458 148.02255249 -94.30569458 148.02255249 -93.06982422 149.62597656 C-89.13074431 154.62242671 -89.13074431 154.62242671 -84.84716797 159.31347656 C-84.84385782 158.702026 -84.84054768 158.09057545 -84.83713722 157.46059608 C-84.75599081 142.59700973 -84.66392605 127.73352132 -84.55964088 112.87008095 C-84.50947432 105.68228925 -84.46303199 98.4945092 -84.42529297 91.30664062 C-84.39239829 85.04322293 -84.35258127 78.7798945 -84.30437791 72.51657522 C-84.27908757 69.19879914 -84.25834626 65.88109477 -84.24382401 62.5632515 C-84.22704316 58.86348797 -84.19802806 55.16401403 -84.16601562 51.46435547 C-84.16385544 50.35880814 -84.16169525 49.2532608 -84.1594696 48.11421204 C-84.14830612 47.11017838 -84.13714264 46.10614471 -84.12564087 45.07168579 C-84.12011011 44.19598246 -84.11457935 43.32027912 -84.108881 42.41803932 C-83.84716797 40.31347656 -83.84716797 40.31347656 -81.84716797 38.31347656 C-79.34700938 37.87173075 -76.93135868 37.55566663 -74.40966797 37.31347656 C-73.61455811 37.23154053 -72.81944824 37.14960449 -72.00024414 37.06518555 C-62.93616142 36.16539465 -53.8503706 35.52971267 -44.76513672 34.88769531 C-38.80664146 34.46379822 -32.85223033 33.99974106 -26.89794922 33.52050781 C-24.28471484 33.31212131 -21.67145629 33.10403976 -19.05819702 32.89596558 C-17.3565814 32.75943712 -15.65509885 32.62123814 -13.95376587 32.48123169 C8.51513565 30.6351619 8.51513565 30.6351619 15.15283203 31.31347656 C16.14283203 32.30347656 16.14283203 32.30347656 17.15283203 33.31347656 C16.82311724 36.61062449 16.53014813 37.93616046 14.15283203 40.31347656 C12.36094666 40.6824646 12.36094666 40.6824646 10.13696289 40.85400391 C9.2839711 40.9242276 8.43097931 40.99445129 7.55213928 41.06680298 C6.13051735 41.16957047 6.13051735 41.16957047 4.68017578 41.27441406 C3.67478256 41.35428558 2.66938934 41.4341571 1.63352966 41.51644897 C-1.85938706 41.79126388 -5.3532112 42.05223436 -8.84716797 42.31347656 C-10.84462063 42.46778886 -12.84207187 42.6221214 -14.83945179 42.77737236 C-23.33064393 43.43733688 -31.82319409 44.07875453 -40.31614304 44.71564484 C-46.20446647 45.15765065 -52.09268022 45.60111634 -57.98091519 46.04429889 C-61.50961751 46.30987951 -65.03832484 46.57539364 -68.56703186 46.84091187 C-70.38097742 46.97740678 -70.38097742 46.97740678 -72.23156834 47.11665916 C-73.09471622 47.18160891 -73.95786409 47.24655865 -74.84716797 47.31347656 C-74.84532438 47.97131071 -74.8434808 48.62914486 -74.84158134 49.30691338 C-74.79745549 65.29701238 -74.76433736 81.28709028 -74.74354362 97.27723503 C-74.73322124 105.00987812 -74.71914259 112.74248062 -74.69628906 120.47509766 C-74.67638457 127.21309248 -74.66345854 133.95105791 -74.65899098 140.68908131 C-74.65637859 144.25840397 -74.65021853 147.82764255 -74.63570786 151.39693832 C-74.61965865 155.37678378 -74.61918639 159.35654619 -74.62011719 163.33642578 C-74.61292664 164.52612976 -74.60573608 165.71583374 -74.59832764 166.94158936 C-74.60107697 168.0213504 -74.60382629 169.10111145 -74.60665894 170.21359253 C-74.60481535 171.15566496 -74.60297176 172.09773739 -74.60107231 173.06835747 C-74.84716797 175.31347656 -74.84716797 175.31347656 -76.84716797 177.31347656 C-80.94857501 177.23221325 -83.12552736 176.9783996 -86.18310547 174.16113281 C-87.19244141 172.78248047 -87.19244141 172.78248047 -88.22216797 171.37597656 C-91.14227973 167.54023654 -94.07984034 163.8597224 -97.34716797 160.31347656 C-102.0543376 155.14465807 -106.46966135 149.76234236 -110.84716797 144.31347656 C-111.53830185 143.68720367 -112.22943573 143.06093079 -112.94151306 142.41567993 C-115.93263297 137.54645506 -115.41202468 132.74176706 -115.38061523 127.13525391 C-115.3892308 125.90063919 -115.39784637 124.66602448 -115.40672302 123.39399719 C-115.42551668 120.01576529 -115.42628559 116.6385154 -115.41740155 113.26030684 C-115.41228697 110.43945887 -115.41958756 107.6186987 -115.42687362 104.79785979 C-115.44386173 98.14543498 -115.44031584 91.49323966 -115.42358398 84.84082031 C-115.40664099 77.97581103 -115.4225288 71.11143658 -115.45480686 64.24649656 C-115.48147819 58.35080838 -115.48878619 52.45531814 -115.48029178 46.55957568 C-115.47535801 43.03881454 -115.47760251 39.5184359 -115.4980793 35.99772263 C-115.51979902 32.07586393 -115.50106566 28.15477533 -115.47827148 24.23291016 C-115.48996368 23.06400742 -115.50165588 21.89510468 -115.51370239 20.69078064 C-115.50104843 19.62528488 -115.48839447 18.55978912 -115.47535706 17.46200562 C-115.47477075 16.53472342 -115.47418444 15.60744122 -115.47358036 14.65205956 C-114.84716797 12.31347656 -114.84716797 12.31347656 -112.49807644 10.5234623 C-109.36050843 9.09134475 -106.88513862 8.80966765 -103.44482422 8.61816406 C-101.61467773 8.50408203 -101.61467773 8.50408203 -99.74755859 8.38769531 C-97.84780273 8.28908203 -97.84780273 8.28908203 -95.90966797 8.18847656 C-93.4004116 8.04245552 -90.8912898 7.89409919 -88.38232422 7.74316406 C-87.27252197 7.68370605 -86.16271973 7.62424805 -85.01928711 7.56298828 C-81.91196481 7.31857334 -78.91721694 6.84116941 -75.84716797 6.31347656 C-74.15662297 6.14664217 -72.46357489 6.00352906 -70.76904297 5.88378906 C-69.29987427 5.77635376 -69.29987427 5.77635376 -67.80102539 5.66674805 C-66.74375244 5.59141846 -65.68647949 5.51608887 -64.59716797 5.43847656 C-52.30762242 4.53080166 -40.03536658 3.47100724 -27.76220703 2.36669922 C-23.79103047 2.00972773 -19.81925455 1.66018524 -15.84716797 1.31347656 C-14.68781738 1.2105127 -13.5284668 1.10754883 -12.33398438 1.00146484 C-10.17692098 0.82046365 -8.01829376 0.65697615 -5.85839844 0.51367188 C-3.90242467 0.38363308 -1.94851703 0.21453403 0 0 Z " fill="#040404" transform="translate(138.84716796875,23.6865234375)"/>
</svg>
