<?xml version="1.0" encoding="UTF-8"?>
<svg version="1.1" xmlns="http://www.w3.org/2000/svg" width="225" height="225">
<path d="M0 0 C74.25 0 148.5 0 225 0 C225 74.25 225 148.5 225 225 C150.75 225 76.5 225 0 225 C0 150.75 0 76.5 0 0 Z " fill="#FCFCFC" transform="translate(0,0)"/>
<path d="M0 0 C14.7963382 -0.07050862 29.59266324 -0.12319093 44.38913441 -0.15543652 C51.26151504 -0.17081577 58.13379048 -0.19173094 65.00610352 -0.22631836 C71.65213953 -0.25975062 78.29809591 -0.27690961 84.94421959 -0.28463173 C87.46563105 -0.29012698 89.98703733 -0.30085609 92.50840187 -0.31719017 C128.41917861 -0.54034026 159.41420052 6.49194426 185.75 32.1875 C200.11305937 46.72320995 209.21294137 64.17114102 214 84 C214.26490234 85.02468384 214.26490234 85.02468384 214.53515625 86.07006836 C215.91347216 91.69224356 216.36583334 97.03291966 216.375 102.8125 C216.39949219 103.64458984 216.42398438 104.47667969 216.44921875 105.33398438 C216.4781518 111.3472365 216.4781518 111.3472365 214.16015625 114.51171875 C211.31295418 116.47335345 209.4643647 117 206 117 C203.25283613 115.22960551 201.46854078 113.93708156 200 111 C199.78791768 109.08076002 199.58096544 107.16075024 199.40576172 105.23779297 C197.46078953 84.18249006 191.43526412 66.62780213 178 50 C177.13181641 48.86884766 177.13181641 48.86884766 176.24609375 47.71484375 C162.49515628 30.87514279 141.13150534 21.22549891 120 18 C94.00165798 15.97919884 70.84706562 21.42143767 50.3125 38.1953125 C47.79777078 40.39570057 45.38274736 42.65770676 43 45 C42.31292969 45.67417969 41.62585937 46.34835938 40.91796875 47.04296875 C23.27681496 65.58879709 17.36673641 88.93342941 17.76171875 113.859375 C18.36493502 133.43567448 25.99449033 150.70332475 38 166 C39.02867188 167.32064453 39.02867188 167.32064453 40.078125 168.66796875 C55.75138847 187.38881123 78.88668095 196.85826471 102.6875 199 C103.44208496 199.04688965 104.19666992 199.0937793 104.97412109 199.14208984 C109.84194761 199.52566886 112.59185706 200.46152655 116 204 C117.25610015 207.6897942 117.34352813 209.26386829 115.6875 212.8125 C114 215 114 215 112 216 C84.92681703 217.71848508 58.63097157 208.91206378 38 191 C16.16858548 171.18934451 2.17152172 145.68808907 0 116 C-0.34727223 107.05915982 -0.23361613 98.10570981 -0.1953125 89.16015625 C-0.19157573 86.58084727 -0.1887319 84.00153686 -0.18673706 81.42222595 C-0.17992476 75.36655612 -0.16422078 69.3109714 -0.14403808 63.25533336 C-0.12153457 56.35065335 -0.11064965 49.44596946 -0.10064721 42.54126179 C-0.07984938 28.36080185 -0.04476459 14.18040356 0 0 Z " fill="#020202" transform="translate(0,0)"/>
<path d="M0 0 C14.22338412 11.83165435 25.69373764 28.32071621 27.625 47.18359375 C28.54020335 60.93980417 28.54020335 60.93980417 25.8515625 64.59375 C23.51854897 66.25960352 22.45140539 66.75161407 19.625 66.74609375 C18.635 66.77896484 18.635 66.77896484 17.625 66.8125 C14.40215592 65.79906661 13.37092123 64.01553078 11.625 61.18359375 C10.97265625 57.65234375 10.97265625 57.65234375 10.6875 53.68359375 C9.2311715 38.91949401 2.71500336 25.76435477 -7.9375 15.37109375 C-22.93048235 3.32853765 -39.44812729 0.94949396 -58.046875 2.390625 C-71.84397623 4.75065547 -84.76689216 14.21320376 -92.79296875 25.4296875 C-96.87502483 31.74237531 -99.74075856 37.84976647 -101.375 45.18359375 C-101.54555908 45.8067749 -101.71611816 46.42995605 -101.8918457 47.07202148 C-105.18757002 61.47561906 -101.48264363 76.65402839 -94.3046875 89.1484375 C-86.5176437 101.39648008 -73.66545673 110.89009005 -59.375 114.18359375 C-55.91075025 114.68431322 -52.43596533 115.08419126 -48.94384766 115.32592773 C-44.27131602 115.73009186 -41.60585362 116.75042862 -38.375 120.18359375 C-37.74609375 122.18359375 -37.74609375 122.18359375 -37.8125 124.18359375 C-37.81121094 124.84359375 -37.80992188 125.50359375 -37.80859375 126.18359375 C-38.65381803 129.16810982 -39.89156456 130.34326293 -42.375 132.18359375 C-59.12371422 134.76814625 -75.2610435 128.43742064 -89.07421875 119.421875 C-91.28374006 117.76762606 -93.33654584 116.04393055 -95.375 114.18359375 C-96.51001953 113.15105469 -96.51001953 113.15105469 -97.66796875 112.09765625 C-111.8942403 98.51478392 -120.02248174 80.40310536 -120.77783203 60.67651367 C-121.09967314 39.27408016 -112.92864213 20.2420152 -98.140625 4.859375 C-70.95746597 -21.30219472 -29.6341559 -22.78556464 0 0 Z " fill="#020202" transform="translate(154.375,49.81640625)"/>
<path d="M0 0 C1.60175559 0.69462667 3.20245378 1.39179957 4.79754639 2.10159302 C9.51805778 4.02714567 14.44719894 5.38753674 19.3203125 6.87109375 C21.73581067 7.61740631 24.15117118 8.36416454 26.56640625 9.11132812 C30.35481869 10.27905692 34.14417988 11.4433498 37.93603516 12.59985352 C41.60894319 13.72198566 45.27733294 14.85797155 48.9453125 15.99609375 C50.07873077 16.33789169 51.21214905 16.67968964 52.37991333 17.03184509 C62.5800549 20.21645877 62.5800549 20.21645877 66 24 C66.82999724 28.14998622 67.02505954 30.39100562 64.73828125 33.98046875 C62.91964555 36.10433002 61.0043071 38.05015777 59 40 C58.1853125 40.82628906 57.370625 41.65257812 56.53125 42.50390625 C54.37141752 44.68766093 52.19405724 46.85071943 50 49 C55.49610595 55.71113456 61.64759948 61.72720773 67.8125 67.8125 C69.90521273 69.8786386 71.9945929 71.94806565 74.08203125 74.01953125 C75.00218018 74.92807861 75.9223291 75.83662598 76.87036133 76.77270508 C80.12369074 80.17521846 80.11609102 82.01617229 80.0625 86.625 C80.05347656 87.62789063 80.04445313 88.63078125 80.03515625 89.6640625 C80.02355469 90.43492187 80.01195312 91.20578125 80 92 C78.33807279 92.19246583 76.66933923 92.32636193 75 92.4375 C74.071875 92.51871094 73.14375 92.59992188 72.1875 92.68359375 C67.21751294 91.61772643 64.55402826 88.50586968 61 85 C60.07832031 84.09838135 59.15664062 83.1967627 58.20703125 82.26782227 C55.11449735 79.22261339 52.05630362 76.14399555 49 73.0625 C47.92862113 71.98609346 46.85700818 70.90991986 45.78515625 69.83398438 C43.18740362 67.22533255 40.59282038 64.61355529 38 62 C33.88684166 65.45257582 29.93581213 68.95915636 26.1875 72.8125 C22.00607014 77.10908112 20.15960606 78.08352656 14.0703125 78.5234375 C10.85762043 77.71117196 9.87493321 75.65872716 8 73 C6.80439758 70.12762451 6.80439758 70.12762451 5.81762695 66.94042969 C5.44076248 65.74278992 5.06389801 64.54515015 4.6756134 63.31121826 C4.27969197 62.01481449 3.88391803 60.71836567 3.48828125 59.421875 C3.07146331 58.08587264 2.65357449 56.75020395 2.23466492 55.41485596 C1.13886707 51.91323494 0.05580289 48.40781207 -1.02404785 44.90124512 C-2.75955857 39.27384761 -4.51513549 33.65267186 -6.26941872 28.03110504 C-6.88071648 26.06616851 -7.48700837 24.09974247 -8.092453 22.13299561 C-8.45986099 20.94796448 -8.82726898 19.76293335 -9.20581055 18.54199219 C-9.52905807 17.49340027 -9.8523056 16.44480835 -10.18534851 15.36444092 C-10.78205236 13.07188161 -10.78205236 13.07188161 -12 12 C-12.43784542 8.14696032 -12.30585252 6.45877878 -10.125 3.1875 C-6.7852183 -0.25051057 -4.72369037 -0.35650493 0 0 Z " fill="#020202" transform="translate(145,133)"/>
<path d="M0 0 C2.9375 0.875 2.9375 0.875 4.9375 3.875 C5.0625 6.5625 5.0625 6.5625 4.9375 8.875 C5.80375 8.9575 6.67 9.04 7.5625 9.125 C14.23194971 10.60709994 17.96087596 14.64857983 21.9375 19.875 C23.10093227 22.20186453 23.13645988 23.72221413 23.1875 26.3125 C23.22617188 27.48619141 23.22617188 27.48619141 23.265625 28.68359375 C22.9375 30.875 22.9375 30.875 21.578125 32.66796875 C19.9375 33.875 19.9375 33.875 17.4375 33.75 C14.66302929 32.77893525 13.56484786 32.31602179 11.9375 29.875 C11.793125 28.699375 11.64875 27.52375 11.5 26.3125 C11.314375 25.178125 11.12875 24.04375 10.9375 22.875 C9.08603436 21.40695637 9.08603436 21.40695637 6.9375 20.875 C6.2775 20.545 5.6175 20.215 4.9375 19.875 C4.9375 26.145 4.9375 32.415 4.9375 38.875 C6.9175 39.205 8.8975 39.535 10.9375 39.875 C16.14172 42.74263143 20.25219157 46.50438314 22.9375 51.875 C23.62383931 58.00861456 24.15732902 64.0890824 20.5625 69.375 C16.86460932 73.55060862 12.11084443 75.93964813 6.9375 77.875 C6.2775 77.875 5.6175 77.875 4.9375 77.875 C4.999375 78.638125 5.06125 79.40125 5.125 80.1875 C4.9375 82.875 4.9375 82.875 3.875 84.75 C0.82180685 86.52282183 -1.72661708 85.56735306 -5.0625 84.875 C-5.3925 82.565 -5.7225 80.255 -6.0625 77.875 C-6.8875 77.83375 -7.7125 77.7925 -8.5625 77.75 C-14.51979578 76.26067606 -18.53118941 72.64189683 -22.5 68.0625 C-24.42019459 64.14530303 -25.52267261 60.26755678 -25.0625 55.875 C-23.796875 54.0859375 -23.796875 54.0859375 -22.0625 52.875 C-18.375 53.1875 -18.375 53.1875 -15.0625 53.875 C-14.90394531 54.57367188 -14.74539062 55.27234375 -14.58203125 55.9921875 C-14.34871094 56.90226562 -14.11539063 57.81234375 -13.875 58.75 C-13.65457031 59.65492187 -13.43414062 60.55984375 -13.20703125 61.4921875 C-12.08295766 64.52041369 -12.08295766 64.52041369 -7.0625 65.875 C-6.7325 59.935 -6.4025 53.995 -6.0625 47.875 C-8.0425 47.545 -10.0225 47.215 -12.0625 46.875 C-17.93654507 43.80520068 -22.60907745 39.0594338 -25.0625 32.875 C-26.15111422 27.37412639 -25.20571607 22.59070861 -22.45703125 17.734375 C-19.06349896 13.20966528 -14.73305388 9.83965605 -9.0625 9 C-7.5775 8.938125 -7.5775 8.938125 -6.0625 8.875 C-6.124375 7.946875 -6.18625 7.01875 -6.25 6.0625 C-6.0625 2.875 -6.0625 2.875 -4.9375 0.9375 C-3.0625 -0.125 -3.0625 -0.125 0 0 Z " fill="#040404" transform="translate(109.0625,65.125)"/>
<path d="M0 0 C33 0 66 0 100 0 C100 0.33 100 0.66 100 1 C99.1028125 1.08636719 98.205625 1.17273438 97.28125 1.26171875 C81.09452048 3.084398 67.23103746 8.15327327 53 16 C52.03578125 16.52078125 51.0715625 17.0415625 50.078125 17.578125 C25.65467588 31.88535259 10.60760717 56.92943104 3.2890625 83.58984375 C1.97775307 88.99661959 1.43937642 94.46154459 1 100 C0.67 100 0.34 100 0 100 C0 67 0 34 0 0 Z " fill="#FDFDFD" transform="translate(0,0)"/>
<path d="M0 0 C6.05981905 1.10538094 11.82819078 3.06821163 17.6875 4.9375 C18.84056641 5.29779297 19.99363281 5.65808594 21.18164062 6.02929688 C22.8300293 6.55426758 22.8300293 6.55426758 24.51171875 7.08984375 C26.01931763 7.56732056 26.01931763 7.56732056 27.55737305 8.05444336 C30 9 30 9 32 11 C25.07 17.93 18.14 24.86 11 32 C8.16576237 29.16576237 7.33075284 25.71740234 6.0625 22 C5.79743652 21.23413574 5.53237305 20.46827148 5.25927734 19.67919922 C0 4.37331217 0 4.37331217 0 0 Z " fill="#FAFAFA" transform="translate(155,155)"/>
<path d="M0 0 C0 5.61 0 11.22 0 17 C-6 14 -6 14 -8 11 C-7.92084336 6.64638487 -7.68366584 4.68366584 -4.5625 1.5625 C-2 0 -2 0 0 0 Z " fill="#E9E9E9" transform="translate(103,85)"/>
<path d="M0 0 C5.42105263 2.71052632 5.42105263 2.71052632 7 5 C7.51451424 9.04261188 7.65485184 11.11933718 5.1875 14.4375 C3 16 3 16 0 16 C0 10.72 0 5.44 0 0 Z " fill="#F7F7F7" transform="translate(114,115)"/>
<path d="M0 0 C0.33 0 0.66 0 1 0 C1 2.31 1 4.62 1 7 C-1.31 7 -3.62 7 -6 7 C-5.195625 6.401875 -4.39125 5.80375 -3.5625 5.1875 C-0.77672016 3.19052724 -0.77672016 3.19052724 0 0 Z " fill="#D7D7D7" transform="translate(224,218)"/>
</svg>
