<?xml version="1.0" encoding="UTF-8"?>
<svg version="1.1" xmlns="http://www.w3.org/2000/svg" width="200" height="200">
<path d="M0 0 C66 0 132 0 200 0 C200 66 200 132 200 200 C134 200 68 200 0 200 C0 134 0 68 0 0 Z " fill="#FDFDFD" transform="translate(0,0)"/>
<path d="M0 0 C14.52 0 29.04 0 44 0 C44 14.85 44 29.7 44 45 C39.38 45 34.76 45 30 45 C29.67 38.4 29.34 31.8 29 25 C7.55 46.45 -13.9 67.9 -36 90 C-40.1725131 87.91374345 -42.86737361 85.38841113 -46.078125 82.1171875 C-46.64956238 81.54292023 -47.22099976 80.96865295 -47.80975342 80.37698364 C-49.62792945 78.5476419 -51.43901492 76.71145807 -53.25 74.875 C-54.48391329 73.63105226 -55.71828322 72.3875573 -56.953125 71.14453125 C-59.97406743 68.10157633 -62.98867092 65.05246746 -66 62 C-71.43733055 66.52991796 -76.46458931 71.34294216 -81.4375 76.375 C-82.16904297 77.11105469 -82.90058594 77.84710938 -83.65429688 78.60546875 C-85.43852723 80.40136074 -87.22036124 82.19955985 -89 84 C-92.76488042 82.27845212 -95.15063897 80.00765886 -98 77 C-97.38703078 89.25938442 -92.2083698 99.92759127 -84 109 C-70.82741639 120.57708604 -58.34042304 122.81789507 -41.359375 122.17919922 C-36.41620222 121.80375543 -32.34387659 120.30011826 -28 118 C-27.13117188 117.55269531 -26.26234375 117.10539062 -25.3671875 116.64453125 C-13.72555764 110.16344478 -6.54797382 100.44708624 -2 88 C-1.16950575 84.4224863 -0.98272964 81.24523649 -1.25390625 77.609375 C-2.20287095 63.96242524 -2.20287095 63.96242524 1.22265625 59.53515625 C3.70075511 57.10585258 6.15225857 54.97816324 9 53 C11 54 11 54 11.8515625 55.94140625 C16.52395381 71.77562124 14.60335893 88.02355328 6.890625 102.5625 C5.76659829 105.63878362 6.00136809 106.8862674 7 110 C9.1107397 112.67816628 9.1107397 112.67816628 11.84765625 115.2734375 C12.33777695 115.76027008 12.82789764 116.24710266 13.33287048 116.74868774 C14.90027113 118.30038907 16.48125132 119.83742689 18.0625 121.375 C19.09917118 122.40016882 20.13498731 123.42620305 21.16992188 124.453125 C26.11291969 129.33598627 31.11678908 134.1144588 36.42553711 138.6027832 C39.65597783 141.46955514 41.69473084 144.05708898 42.375 148.38671875 C42.6480647 154.09547761 41.88691276 157.58782876 38 162 C33.47647959 166.08220135 30.30198943 167.07433594 24.23046875 167.42578125 C17.65364852 166.17031119 12.68263231 159.94499198 8.1953125 155.390625 C7.4713327 154.66381531 6.74735291 153.93700562 6.00143433 153.18817139 C3.70452619 150.88012481 1.41469504 148.56520026 -0.875 146.25 C-2.4370369 144.67792514 -3.9995321 143.10630551 -5.5625 141.53515625 C-9.38032149 137.69535848 -13.19236639 133.84989911 -17 130 C-17.60541122 130.20301224 -18.21082245 130.40602448 -18.83457947 130.6151886 C-19.63545486 130.88308701 -20.43633026 131.15098541 -21.26147461 131.42700195 C-22.05251083 131.69188919 -22.84354706 131.95677643 -23.65855408 132.22969055 C-42.66651684 138.48309712 -59.56289815 139.26645923 -78 130.5 C-95.04973896 121.88716188 -104.83492238 107.68354299 -110.75 89.72265625 C-114.66449346 74.25497029 -112.74557222 58.00640633 -105.42578125 43.984375 C-99.20601539 33.60360028 -91.31939836 25.31005834 -81 19 C-80.06800781 18.41798828 -80.06800781 18.41798828 -79.1171875 17.82421875 C-65.23967096 10.04439887 -47.84412998 8.6314466 -32.625 12.625 C-21.78574856 16.20884499 -13.11514673 20.92583886 -5 29 C-6.92287034 33.29378813 -9.62478869 35.77153701 -13 39 C-15.88807294 37.64279869 -18.36079945 36.06191364 -20.9375 34.1875 C-34.10182293 25.53179817 -47.98896662 23.65839945 -63.40625 26.6640625 C-66.12713213 27.56320458 -68.48903159 28.62262412 -71 30 C-71.94101563 30.50917969 -72.88203125 31.01835938 -73.8515625 31.54296875 C-83.64024682 37.30800251 -90.87106577 45.27809015 -95 56 C-94.62996323 59.33620456 -93.51262631 60.81510756 -91 63 C-87.42174213 61.49403162 -85.24907311 59.41843719 -82.59375 56.61328125 C-81.76746094 55.75798828 -80.94117187 54.90269531 -80.08984375 54.02148438 C-78.35741876 52.20936261 -76.63087803 50.39159776 -74.91015625 48.56835938 C-74.08386719 47.71693359 -73.25757813 46.86550781 -72.40625 45.98828125 C-71.65666016 45.19977783 -70.90707031 44.41127441 -70.13476562 43.59887695 C-68 42 -68 42 -66.04412842 42.24380493 C-62.63619984 43.50451769 -60.40783294 46.22896642 -57.921875 48.78515625 C-57.35043762 49.36083847 -56.77900024 49.93652069 -56.19024658 50.52964783 C-54.36966198 52.36700319 -52.55979432 54.21452132 -50.75 56.0625 C-49.51631747 57.31123138 -48.28195022 58.55928669 -47.046875 59.80664062 C-44.02325345 62.8633102 -41.00920079 65.92913526 -38 69 C-34.13533667 67.41219641 -31.69940845 64.94066771 -28.77246094 61.99951172 C-28.01080627 61.23829514 -28.01080627 61.23829514 -27.23376465 60.46170044 C-25.56251491 58.78906131 -23.89845444 57.10945783 -22.234375 55.4296875 C-21.07467623 54.26625722 -19.91453408 53.10326874 -18.75396729 51.94070435 C-15.70490648 48.884018 -12.66190037 45.82137256 -9.62011719 42.75744629 C-6.51340087 39.63024835 -3.40099455 36.50872493 -0.2890625 33.38671875 C5.81287661 27.26334875 11.90789646 21.13315545 18 15 C12.06 14.67 6.12 14.34 0 14 C0 9.38 0 4.76 0 0 Z " fill="#040404" transform="translate(129,17)"/>
</svg>
