<?xml version="1.0" encoding="UTF-8"?>
<svg version="1.1" xmlns="http://www.w3.org/2000/svg" width="225" height="225">
<path d="M0 0 C74.25 0 148.5 0 225 0 C225 74.25 225 148.5 225 225 C150.75 225 76.5 225 0 225 C0 150.75 0 76.5 0 0 Z " fill="#020202" transform="translate(0,0)"/>
<path d="M0 0 C4.25264913 3.40741855 8.14684563 7.15245429 12 11 C12.66902344 11.65742187 13.33804688 12.31484375 14.02734375 12.9921875 C29.47844648 29.31920309 34.66996118 51.09156447 34.25 72.8984375 C33.45998484 94.41055028 22.87213094 113.10618956 8 128 C7.34257812 128.66902344 6.68515625 129.33804688 6.0078125 130.02734375 C-2.17207897 137.76839984 -13.33631148 143.56170791 -24 147 C-24.88945313 147.29777344 -25.77890625 147.59554687 -26.6953125 147.90234375 C-47.56025177 153.81316858 -69.51565349 150.32756888 -88.30859375 140.1328125 C-108.94914797 128.44268089 -122.64356857 110.39657963 -129.3125 87.75 C-134.91349687 65.44928176 -130.47822969 43.49113226 -119 24 C-110.89482107 11.0051937 -100.46064571 1.25186079 -87 -6 C-85.66001953 -6.72316406 -85.66001953 -6.72316406 -84.29296875 -7.4609375 C-57.26880552 -20.83121316 -24.45377954 -17.17664943 0 0 Z " fill="#FBFBFB" transform="translate(146,30)"/>
<path d="M0 0 C38.94 0 77.88 0 118 0 C118 70.95 118 141.9 118 215 C100.33333333 197.33333333 82.66666667 179.66666667 65 162 C66.37595047 158.4129782 67.84823003 155.6762217 70.1875 152.625 C85.02093257 131.8581944 90.01195005 105.62049683 86.22851562 80.58837891 C82.99434546 62.62622666 74.09107006 45.56784198 62 32 C61.32453125 31.24203125 60.6490625 30.4840625 59.953125 29.703125 C43.98847722 12.80623501 22.63524276 4.40434051 0 1 C0 0.67 0 0.34 0 0 Z " fill="#FEFEFE" transform="translate(107,0)"/>
<path d="M0 0 C0.33 0 0.66 0 1 0 C1.14695313 1.1859375 1.29390625 2.371875 1.4453125 3.59375 C4.27474432 24.66557118 11.57397356 43.00911645 26 59 C27.04800781 60.17175781 27.04800781 60.17175781 28.1171875 61.3671875 C42.30097558 76.38225986 60.97731969 85.03133884 81 89 C81.93714844 89.19207031 82.87429687 89.38414062 83.83984375 89.58203125 C111.77932668 93.27736459 137.82441603 84.89568303 160 68 C163.72759869 69.55639797 166.08709806 71.8453396 168.92041016 74.69335938 C169.39570663 75.1683638 169.87100311 75.64336823 170.36070251 76.13276672 C171.92494552 77.69839889 173.48198988 79.2709892 175.0390625 80.84375 C176.1267086 81.93512886 177.21479906 83.02606505 178.30331421 84.11657715 C181.16419501 86.98508331 184.01902101 89.85954238 186.87261963 92.73529053 C189.77864955 95.6617662 192.69033304 98.5826046 195.6015625 101.50390625 C200.71425123 106.63573209 205.82197165 111.77245764 210.92617798 116.91271973 C212.2819572 118.2772974 213.63981443 119.63981443 215 121 C144.05 121 73.1 121 0 121 C0 81.07 0 41.14 0 0 Z " fill="#FEFEFE" transform="translate(0,104)"/>
<path d="M0 0 C28.71 0 57.42 0 87 0 C87 0.33 87 0.66 87 1 C86.01902344 1.14695313 85.03804688 1.29390625 84.02734375 1.4453125 C64.45479096 4.60509486 46.81440374 12.63532384 32 26 C30.82824219 27.04800781 30.82824219 27.04800781 29.6328125 28.1171875 C12.54779808 44.25631877 2.12655658 67.56762306 1 91 C0.67 91 0.34 91 0 91 C0 60.97 0 30.94 0 0 Z " fill="#FCFCFC" transform="translate(0,0)"/>
<path d="M0 0 C3.40349714 0.92822649 4.39011418 1.23666869 6.4375 3.9375 C6.77807617 6.0222168 6.77807617 6.0222168 6.73046875 8.38671875 C6.72080078 9.23427734 6.71113281 10.08183594 6.70117188 10.95507812 C6.67603516 11.83615234 6.65089844 12.71722656 6.625 13.625 C6.61146484 14.51767578 6.59792969 15.41035156 6.58398438 16.33007812 C6.54864079 18.53316166 6.49930493 20.73502582 6.4375 22.9375 C7.26942871 22.9060791 7.26942871 22.9060791 8.11816406 22.87402344 C10.64109023 22.79066452 13.16372649 22.73878132 15.6875 22.6875 C16.56019531 22.65398437 17.43289062 22.62046875 18.33203125 22.5859375 C24.78157563 22.48747117 24.78157563 22.48747117 28.05078125 24.73046875 C29.4375 26.9375 29.4375 26.9375 29.375 30.5 C28.13694292 35.03954262 28.13694292 35.03954262 25.4375 36.9375 C22.390625 37.32568359 22.390625 37.32568359 18.6875 37.3359375 C18.03297852 37.33880768 17.37845703 37.34167786 16.70410156 37.34463501 C15.32225681 37.34667368 13.94038307 37.34115746 12.55859375 37.32861328 C10.4446555 37.31255436 8.33262887 37.32846601 6.21875 37.34765625 C4.87499578 37.34567378 3.53124276 37.34183002 2.1875 37.3359375 C0.96546875 37.33255371 -0.2565625 37.32916992 -1.515625 37.32568359 C-4.5625 36.9375 -4.5625 36.9375 -6.45727539 35.83227539 C-8.12876158 32.96671225 -7.96965068 30.52017322 -7.99609375 27.22265625 C-8.0013356 26.57050644 -8.00657745 25.91835663 -8.01197815 25.2464447 C-8.01839347 23.86881939 -8.01706757 22.49113927 -8.00854492 21.11352539 C-8.00004137 19.01023299 -8.02878361 16.90966417 -8.06054688 14.80664062 C-8.06215929 13.46614664 -8.06158059 12.12564787 -8.05859375 10.78515625 C-8.06044678 9.56836182 -8.0622998 8.35156738 -8.06420898 7.09790039 C-7.5625 3.9375 -7.5625 3.9375 -5.75415039 1.50561523 C-3.5625 -0.0625 -3.5625 -0.0625 0 0 Z " fill="#010101" transform="translate(60.5625,105.0625)"/>
<path d="M0 0 C4.51534003 1.23145637 4.51534003 1.23145637 6.4375 3.9375 C7.00391136 8.05775764 6.91017023 12.17816935 6.88354492 16.33422852 C6.87504133 18.36512819 6.90378379 20.3932069 6.93554688 22.42382812 C6.93490234 23.70580078 6.93425781 24.98777344 6.93359375 26.30859375 C6.93637329 28.0709436 6.93637329 28.0709436 6.93920898 29.86889648 C6.4375 32.9375 6.4375 32.9375 4.81860352 35.31640625 C0.37589022 38.34107725 -4.82450247 37.5639772 -10.03466797 37.51391602 C-12.05733393 37.50003545 -14.07538011 37.53414196 -16.09765625 37.57226562 C-17.37511719 37.57033203 -18.65257813 37.56839844 -19.96875 37.56640625 C-21.13728516 37.56713135 -22.30582031 37.56785645 -23.50976562 37.56860352 C-26.5625 36.9375 -26.5625 36.9375 -28.94335938 34.55834961 C-30.76830018 31.60437802 -31.25865488 30.33125506 -30.5625 26.9375 C-29.140625 24.80078125 -29.140625 24.80078125 -26.5625 22.9375 C-23.29995272 22.44169854 -20.10277913 22.56113773 -16.8125 22.6875 C-15.92433594 22.70554687 -15.03617188 22.72359375 -14.12109375 22.7421875 C-11.93379152 22.78922626 -9.74870184 22.85492991 -7.5625 22.9375 C-7.58344727 22.38288086 -7.60439453 21.82826172 -7.62597656 21.25683594 C-7.70933548 18.73390977 -7.76121868 16.21127351 -7.8125 13.6875 C-7.84601563 12.81480469 -7.87953125 11.94210938 -7.9140625 11.04296875 C-8.01252883 4.59342437 -8.01252883 4.59342437 -5.76953125 1.32421875 C-3.5625 -0.0625 -3.5625 -0.0625 0 0 Z " fill="#010101" transform="translate(135.5625,105.0625)"/>
<path d="M0 0 C1.27746094 -0.00064453 2.55492188 -0.00128906 3.87109375 -0.00195312 C4.86471924 0.01363647 4.86471924 0.01363647 5.87841797 0.02954102 C7.90024898 0.05850777 9.91945672 0.0501431 11.94140625 0.03710938 C21.55654421 0.10017537 21.55654421 0.10017537 24.78295898 1.60351562 C27.18331017 4.40206013 26.94003233 6.56455012 26.97265625 10.2109375 C26.98195412 11.18916222 26.98195412 11.18916222 26.99143982 12.18714905 C26.99853477 13.56477365 26.99536931 14.94248405 26.98266602 16.32006836 C26.96881332 18.42397667 27.00284125 20.52342185 27.04101562 22.62695312 C27.04196705 23.967449 27.04010674 25.30795043 27.03515625 26.6484375 C27.03588135 27.86523193 27.03660645 29.08202637 27.03735352 30.33569336 C26.40625 33.49609375 26.40625 33.49609375 24.06225586 35.92797852 C21.40625 37.49609375 21.40625 37.49609375 18.28125 37.43359375 C15.30775996 36.46397743 14.2870824 35.91205263 12.40625 33.49609375 C12.06567383 31.41137695 12.06567383 31.41137695 12.11328125 29.046875 C12.12294922 28.19931641 12.13261719 27.35175781 12.14257812 26.47851562 C12.16771484 25.59744141 12.19285156 24.71636719 12.21875 23.80859375 C12.23905273 22.46958008 12.23905273 22.46958008 12.25976562 21.10351562 C12.29510921 18.90043209 12.34444507 16.69856793 12.40625 14.49609375 C11.57432129 14.53536987 11.57432129 14.53536987 10.72558594 14.57543945 C8.20276431 14.67963378 5.68039511 14.74448266 3.15625 14.80859375 C2.28355469 14.85048828 1.41085938 14.89238281 0.51171875 14.93554688 C-5.97821603 15.05940059 -5.97821603 15.05940059 -9.171875 12.13671875 C-10.7650998 9.1778727 -11.26916431 7.78873853 -10.59375 4.49609375 C-7.42751479 0.34781002 -5.10481768 -0.00809506 0 0 Z " fill="#000000" transform="translate(115.59375,52.50390625)"/>
<path d="M0 0 C2.02202836 0.00852047 4.0412381 -0.02028147 6.06298828 -0.05200195 C7.34044922 -0.05135742 8.61791016 -0.05071289 9.93408203 -0.05004883 C11.68688477 -0.05282837 11.68688477 -0.05282837 13.47509766 -0.05566406 C17.14715726 0.54782942 18.36555312 1.4542481 20.52783203 4.44604492 C20.46745454 7.88756172 20.35969282 10.34392851 18.24731445 13.14257812 C16.04446389 14.81246584 14.82075864 14.79422465 12.07861328 14.73901367 C11.23105469 14.7293457 10.38349609 14.71967773 9.51025391 14.7097168 C8.62917969 14.68458008 7.74810547 14.65944336 6.84033203 14.63354492 C5.94765625 14.62000977 5.05498047 14.60647461 4.13525391 14.5925293 C1.93217037 14.55718571 -0.26969379 14.50784985 -2.47216797 14.44604492 C-2.44598389 15.00066406 -2.4197998 15.5552832 -2.39282227 16.12670898 C-2.28862794 18.64953061 -2.22377906 21.17189981 -2.15966797 23.69604492 C-2.09682617 25.00508789 -2.09682617 25.00508789 -2.03271484 26.34057617 C-1.90919427 32.81305432 -1.90919427 32.81305432 -4.79638672 36.05932617 C-7.47216797 37.44604492 -7.47216797 37.44604492 -10.59716797 37.38354492 C-13.6311211 36.39421238 -14.63483895 35.98681229 -16.47216797 33.44604492 C-16.8762207 30.39916992 -16.8762207 30.39916992 -16.90576172 26.69604492 C-16.91100357 26.04152344 -16.91624542 25.38700195 -16.92164612 24.71264648 C-16.9280606 23.33082496 -16.92673663 21.94894879 -16.91821289 20.56713867 C-16.90969546 18.45286968 -16.93847528 16.34129738 -16.97021484 14.22729492 C-16.97182685 12.88354573 -16.97124934 11.53979176 -16.96826172 10.19604492 C-16.97011475 8.97401367 -16.97196777 7.75198242 -16.97387695 6.49291992 C-16.47216797 3.44604492 -16.47216797 3.44604492 -14.85327148 1.55126953 C-10.19165038 -0.61249123 -5.05098547 -0.03255926 0 0 Z " fill="#000000" transform="translate(69.47216796875,52.553955078125)"/>
</svg>
